<svg version="1.1" xmlns="http://www.w3.org/2000/svg" xmlns:xlink="http://www.w3.org/1999/xlink" width="690.35479" height="601.91985" viewBox="0,0,690.35479,601.91985"><g transform="translate(56.05827,98.34623)"><g data-paper-data="{&quot;isPaintingLayer&quot;:true}" fill-rule="nonzero" stroke-linejoin="miter" stroke-miterlimit="10" stroke-dasharray="" stroke-dashoffset="0" style="mix-blend-mode: normal"><path d="M-51.29128,503.57362v-596.02553h626.12613v596.02553z" fill="#c0dbff" stroke="none" stroke-width="0" stroke-linecap="butt"/><path d="M403.87989,95.93566c0,19.0729 -15.79776,34.53453 -35.28528,34.53453c-19.48753,0 -35.28529,-15.46164 -35.28529,-34.53453c0,-19.0729 15.79776,-34.53453 35.28529,-34.53453c19.48753,0 35.28528,15.46163 35.28528,34.53453z" fill="#80b575" stroke="none" stroke-width="0" stroke-linecap="butt"/><path d="M511.87989,19.93562c0,19.0729 -15.79776,34.53454 -35.28528,34.53454c-19.48753,0 -35.28529,-15.46164 -35.28529,-34.53453c0,-19.07289 15.79776,-34.53453 35.28529,-34.53453c19.48753,0 35.28528,15.46164 35.28528,34.53453z" fill="#80b575" stroke="none" stroke-width="0" stroke-linecap="butt"/><path d="M464.34235,11.43715c0,19.0729 -15.79776,34.53454 -35.28528,34.53454c-19.48753,0 -35.28528,-15.46164 -35.28528,-34.53453c0,-19.07289 15.79776,-34.53453 35.28528,-34.53453c19.48753,0 35.28528,15.46164 35.28528,34.53453z" fill="#80b575" stroke="none" stroke-width="0" stroke-linecap="butt"/><path d="M458.83184,-16.59591c0,19.0729 -15.79776,34.53454 -35.28529,34.53454c-19.48753,0 -35.28528,-15.46164 -35.28528,-34.53453c0,-19.07289 15.79776,-34.53453 35.28528,-34.53453c19.48753,0 35.28529,15.46164 35.28529,34.53453z" fill="#8cc580" stroke="#7bae71" stroke-width="4" stroke-linecap="butt"/><path d="M414.29731,16.94763c0,19.0729 -15.79776,34.53454 -35.28529,34.53454c-19.48753,0 -35.28528,-15.46164 -35.28528,-34.53454c0,-19.07289 15.79776,-34.53453 35.28528,-34.53453c19.48753,0 35.28529,15.46164 35.28529,34.53453z" fill="#80b575" stroke="none" stroke-width="0" stroke-linecap="butt"/><path d="M465.19371,-60.28562c0,19.91572 -16.64941,36.0606 -37.1875,36.0606c-20.53809,0 -37.1875,-16.14488 -37.1875,-36.0606c0,-19.91572 16.64941,-36.06061 37.1875,-36.06061c20.53809,0 37.1875,16.14489 37.1875,36.06061z" fill="#a5e998" stroke="#72a169" stroke-width="4" stroke-linecap="butt"/><path d="M522.39037,-16.10042c0,19.0729 -15.79776,34.53454 -35.28529,34.53454c-19.48753,0 -35.28528,-15.46164 -35.28528,-34.53454c0,-19.0729 15.79776,-34.53453 35.28528,-34.53453c19.48753,0 35.28529,15.46163 35.28529,34.53453z" fill="#8cc580" stroke="#7bae71" stroke-width="4" stroke-linecap="butt"/><path d="M407.2853,-14.08838c0,19.0729 -15.79776,34.53454 -35.28528,34.53454c-19.48753,0 -35.28528,-15.46164 -35.28528,-34.53453c0,-19.07289 15.79776,-34.53453 35.28528,-34.53453c19.48753,0 35.28528,15.46164 35.28528,34.53453z" fill="#8cc580" stroke="#7bae71" stroke-width="4" stroke-linecap="butt"/><path d="M522.19368,-55.22501c0,17.67311 -14.77461,32 -33,32c-18.22539,0 -33,-14.32689 -33,-32c0,-17.67311 14.77461,-32 33,-32c18.22539,0 33,14.32689 33,32z" fill="#a5e998" stroke="#72a169" stroke-width="4" stroke-linecap="butt"/><path d="M398.19371,-43.22501c0,17.67311 -14.77461,32 -33,32c-18.22539,0 -33,-14.32689 -33,-32c0,-17.67311 14.77461,-32 33,-32c18.22539,0 33,14.32689 33,32z" fill="#a5e998" stroke="#72a169" stroke-width="4" stroke-linecap="butt"/><path d="M399.69371,-29.47501c0,0 5.37129,3.03688 6.0934,9.37544c0.77425,6.79619 -0.5934,16.12456 -0.5934,16.12456" fill="none" stroke="#8cc580" stroke-width="7" stroke-linecap="round"/><path d="M454.86037,-5.475c0,0 -2.90741,-7.10183 -2.27264,-11.22784c0.58546,-3.8055 4.26472,-10.38681 5.56315,-14.42574c0.43071,-1.3398 -0.95718,1.15357 -0.95718,1.15357" fill="none" stroke="#8cc580" stroke-width="7" stroke-linecap="round"/><path d="M391.52704,-62.89168c0,0 2.84611,5.16166 5.10382,8.80874c2.05688,3.32265 1.56284,14.19126 1.56284,14.19126" fill="none" stroke="#a5e998" stroke-width="5" stroke-linecap="round"/><path d="M458.86037,-44.89168c0,0 -2.4648,-8.19704 -2.16289,-11.31684c0.14017,-1.44845 -0.36231,-5.241 0.59334,-8.09399c1.47039,-4.38971 4.23622,-7.25584 4.23622,-7.25584" fill="none" stroke="#a5e998" stroke-width="6.5" stroke-linecap="round"/><path d="M397.51783,-37.45222c-1.15353,1.02208 -1.85437,2.63797 -2.93532,4.21277c0,0 -1.42303,2.05549 -3.47851,0.63246c-0.58017,-0.40165 -0.88321,-0.85369 -1.01935,-1.29568c-1.75452,-1.76511 0.00795,-3.52757 0.00795,-3.52757l1.33333,-1.33333c0.54858,-0.53379 1.37866,-1.26628 2.31761,-1.95331c0.82468,-0.9528 1.7411,-1.77136 2.75915,-2.2261c1.18107,-0.52755 2.56112,-0.36552 3.84169,-0.54828l0.40875,0.25768l0.0469,-0.18758l2.61593,0.65398c1.1133,0.25265 1.94439,1.24829 1.94439,2.43804c0,1.18975 -0.8311,2.18539 -1.94439,2.43804l-2.61593,0.65398l-0.02652,-0.10609c-0.14102,0.0628 -0.28397,0.12171 -0.42912,0.17619c-0.77801,0.292 -1.63855,-0.40673 -2.46783,-0.35334c-0.1201,0.00773 -0.23985,0.03133 -0.35872,0.06814z" fill="#a5e998" stroke="none" stroke-width="0.5" stroke-linecap="butt"/><path d="M389.16438,-58.10308c-0.41709,0.58828 -1.16496,1.15126 -2.46096,0.89206c-1.73257,-0.34651 -1.99574,-1.67262 -2.0011,-2.42058c-0.15406,-0.77602 0.07551,-1.36492 0.40223,-1.79058l0.38816,-1.36005c0.76467,-0.98224 1.25723,-2.25782 2.29402,-2.94673c3.01603,-2.00407 6.3538,-1.61213 9.41978,-0.43351h0.25804l0.03925,-0.31403l2.63376,0.32922c1.25027,0.13791 2.22282,1.19778 2.22282,2.48481c0,1.38071 -1.11929,2.5 -2.5,2.5h-2.46076c-2.90055,0.6525 -5.49546,1.90777 -8.23524,3.05939z" fill="#a5e998" stroke="none" stroke-width="0.5" stroke-linecap="butt"/><path d="M461.19371,-41.49582l-0.97675,-0.0193c-1.66433,-0.21126 -3.34557,-0.31726 -5.02325,-0.31403c0,0 -1.02855,0 -1.76619,-0.65973c-0.29924,-0.00482 -0.59933,-0.00731 -0.90047,-0.00693c0,0 -2.5,0 -2.5,-2.5c0,-2.5 2.5,-2.5 2.5,-2.5c3.26711,0.0038 6.41232,0.33886 9.66666,0.33333h2.33334c0,0 2.5,0 2.5,2.5c0,2.5 -2.5,2.5 -2.5,2.5h-1.55944c-0.73816,0.66667 -1.7739,0.66667 -1.7739,0.66667z" fill="#a5e998" stroke="none" stroke-width="0.5" stroke-linecap="butt"/><path d="M445.69371,-20.99581c-2,-1.5 -0.5,-3.5 -0.5,-3.5l2.0152,-2.13119c1.36833,-0.51524 2.47819,-1.67203 3.31814,-2.86881c0,0 0.52608,-0.70146 1.37056,-0.96197c0.66526,-1.76341 1.06153,-3.51547 2.53718,-5.23973c1.09105,-1.27488 1.62953,-3.75074 3.30695,-3.79548c0.10023,-0.00268 4.59166,4.44672 5.55308,5.39609l1.51774,1.87269c0,0 1.56173,1.95217 -0.39044,3.51391c-1.95217,1.56174 -3.51391,-0.39044 -3.51391,-0.39044l-1.14893,-1.46063c-0.53292,-0.53845 -1.22713,-0.96598 -1.72917,-1.52566c-0.35607,0.34431 -0.77839,0.65515 -1.03817,1.06422c-0.92669,1.45923 -0.77463,3.41915 -1.62272,4.92542c-0.94343,1.67559 -2.46953,3.01499 -3.22431,4.7836c0,0 -1.01534,2.28453 -3.29987,1.26919c-0.35538,-0.15795 -0.6309,-0.34661 -0.84283,-0.5526c-0.60679,0.24253 -1.40682,0.27765 -2.30849,-0.3986z" fill="#8cc580" stroke="none" stroke-width="0.5" stroke-linecap="butt"/><path d="M405.79417,-25.07526c-1.92055,1.60046 -3.52101,-0.32009 -3.52101,-0.32009l-1.49363,-1.86671c-0.05978,0.1791 -0.11536,0.35865 -0.16046,0.53926c0,0 -0.60634,2.42535 -3.0317,1.81902c-2.42536,-0.60634 -1.81901,-3.03169 -1.81901,-3.03169c0.43101,-1.72211 1.68849,-7.33129 2.83934,-7.71849c4.9153,-1.65371 5.46665,3.1077 6.14842,5.52626l1.35814,1.53144c0,0 1.60046,1.92055 -0.3201,3.52101z" fill="#8cc580" stroke="none" stroke-width="0.5" stroke-linecap="butt"/><path d="M356.34235,87.43715c0,19.0729 -15.79776,34.53453 -35.28528,34.53453c-19.48753,0 -35.28528,-15.46164 -35.28528,-34.53453c0,-19.0729 15.79776,-34.53453 35.28528,-34.53453c19.48753,0 35.28528,15.46164 35.28528,34.53453z" fill="#80b575" stroke="none" stroke-width="0" stroke-linecap="butt"/><path d="M350.83184,59.40411c0,19.07289 -15.79776,34.53454 -35.28529,34.53454c-19.48753,0 -35.28528,-15.46164 -35.28528,-34.53453c0,-19.07289 15.79776,-34.53453 35.28528,-34.53453c19.48753,0 35.28529,15.46164 35.28529,34.53453z" fill="#8cc580" stroke="#7bae71" stroke-width="4" stroke-linecap="butt"/><path d="M306.29731,92.94767c0,19.0729 -15.79776,34.53453 -35.28529,34.53453c-19.48753,0 -35.28528,-15.46164 -35.28528,-34.53453c0,-19.0729 15.79776,-34.53453 35.28528,-34.53453c19.48753,0 35.28529,15.46164 35.28529,34.53453z" fill="#80b575" stroke="none" stroke-width="0" stroke-linecap="butt"/><path d="M357.19371,15.71438c0,19.91572 -16.64941,36.0606 -37.1875,36.0606c-20.53809,0 -37.1875,-16.14488 -37.1875,-36.0606c0,-19.91572 16.64941,-36.0606 37.1875,-36.0606c20.53809,0 37.1875,16.14488 37.1875,36.0606z" fill="#a5e998" stroke="#72a169" stroke-width="4" stroke-linecap="butt"/><path d="M414.3904,59.89961c0,19.0729 -15.79776,34.53454 -35.28529,34.53454c-19.48753,0 -35.28528,-15.46164 -35.28528,-34.53454c0,-19.0729 15.79776,-34.53453 35.28528,-34.53453c19.48753,0 35.28529,15.46163 35.28529,34.53453z" fill="#8cc580" stroke="#7bae71" stroke-width="4" stroke-linecap="butt"/><path d="M299.2853,61.91162c0,19.07289 -15.79776,34.53454 -35.28528,34.53454c-19.48753,0 -35.28528,-15.46164 -35.28528,-34.53453c0,-19.07289 15.79776,-34.53453 35.28528,-34.53453c19.48753,0 35.28528,15.46164 35.28528,34.53453z" fill="#8cc580" stroke="#7bae71" stroke-width="4" stroke-linecap="butt"/><path d="M414.19371,20.77496c0,17.67311 -14.77461,32 -33,32c-18.22539,0 -33,-14.32689 -33,-32c0,-17.67311 14.77461,-32 33,-32c18.22539,0 33,14.32689 33,32z" fill="#a5e998" stroke="#72a169" stroke-width="4" stroke-linecap="butt"/><path d="M290.19371,32.77499c0,17.67311 -14.77461,32 -33,32c-18.22539,0 -33,-14.32689 -33,-32c0,-17.67311 14.77461,-32 33,-32c18.22539,0 33,14.32689 33,32z" fill="#a5e998" stroke="#72a169" stroke-width="4" stroke-linecap="butt"/><path d="M291.69371,46.52499c0,0 5.37129,3.03688 6.0934,9.37544c0.77425,6.79619 -0.5934,16.12457 -0.5934,16.12457" fill="none" stroke="#8cc580" stroke-width="7" stroke-linecap="round"/><path d="M346.86037,70.52497c0,0 -2.90741,-7.10182 -2.27264,-11.22784c0.58546,-3.8055 4.26472,-10.38679 5.56315,-14.42573c0.43071,-1.3398 -0.95718,1.15357 -0.95718,1.15357" fill="none" stroke="#8cc580" stroke-width="7" stroke-linecap="round"/><path d="M283.52702,13.10832c0,0 2.84611,5.16166 5.10382,8.80874c2.05688,3.32265 1.56284,14.19126 1.56284,14.19126" fill="none" stroke="#a5e998" stroke-width="5" stroke-linecap="round"/><path d="M350.86037,31.10832c0,0 -2.4648,-8.19704 -2.16289,-11.31684c0.14017,-1.44845 -0.36231,-5.241 0.59334,-8.09399c1.47039,-4.38971 4.23622,-7.25584 4.23622,-7.25584" fill="none" stroke="#a5e998" stroke-width="6.5" stroke-linecap="round"/><path d="M289.51783,38.54777c-1.15353,1.02208 -1.85437,2.63797 -2.93532,4.21277c0,0 -1.42303,2.05549 -3.47851,0.63246c-0.58017,-0.40165 -0.88321,-0.85369 -1.01935,-1.29568c-1.75452,-1.76511 0.00795,-3.52757 0.00795,-3.52757l1.33333,-1.33333c0.54858,-0.53379 1.37866,-1.26628 2.31761,-1.95331c0.82468,-0.9528 1.7411,-1.77136 2.75915,-2.2261c1.18107,-0.52755 2.56112,-0.36552 3.84169,-0.54828l0.40875,0.25768l0.0469,-0.18758l2.61593,0.65398c1.1133,0.25265 1.94439,1.24829 1.94439,2.43804c0,1.18975 -0.8311,2.18539 -1.94439,2.43804l-2.61593,0.65398l-0.02652,-0.10609c-0.14102,0.0628 -0.28397,0.12171 -0.42912,0.17619c-0.77801,0.292 -1.63855,-0.40673 -2.46783,-0.35334c-0.1201,0.00773 -0.23985,0.03133 -0.35872,0.06814z" fill="#a5e998" stroke="none" stroke-width="0.5" stroke-linecap="butt"/><path d="M281.16436,17.89692c-0.41709,0.58828 -1.16496,1.15126 -2.46096,0.89206c-1.73257,-0.34652 -1.99574,-1.67262 -2.0011,-2.42058c-0.15406,-0.77601 0.07551,-1.36492 0.40223,-1.79058l0.38816,-1.36005c0.76467,-0.98225 1.25723,-2.25781 2.29402,-2.94673c3.01603,-2.00407 6.3538,-1.61214 9.41978,-0.43351h0.25804l0.03925,-0.31403l2.63376,0.32922c1.25027,0.13791 2.22282,1.19778 2.22282,2.48481c0,1.38071 -1.11929,2.5 -2.5,2.5h-2.46076c-2.90055,0.6525 -5.49546,1.90777 -8.23524,3.0594z" fill="#a5e998" stroke="none" stroke-width="0.5" stroke-linecap="butt"/><path d="M353.19371,34.50418l-0.97675,-0.0193c-1.66433,-0.21126 -3.34557,-0.31726 -5.02325,-0.31403c0,0 -1.02855,0 -1.76619,-0.65973c-0.29924,-0.00482 -0.59933,-0.00731 -0.90047,-0.00693c0,0 -2.5,0 -2.5,-2.5c0,-2.5 2.5,-2.5 2.5,-2.5c3.26711,0.0038 6.41232,0.33885 9.66666,0.33333h2.33334c0,0 2.5,0 2.5,2.5c0,2.5 -2.5,2.5 -2.5,2.5h-1.55944c-0.73816,0.66667 -1.7739,0.66667 -1.7739,0.66667z" fill="#a5e998" stroke="none" stroke-width="0.5" stroke-linecap="butt"/><path d="M337.69371,55.00419c-2,-1.5 -0.5,-3.5 -0.5,-3.5l2.0152,-2.13119c1.36833,-0.51523 2.47819,-1.67203 3.31814,-2.86881c0,0 0.52608,-0.70146 1.37056,-0.96197c0.66526,-1.76342 1.06153,-3.51546 2.53718,-5.23973c1.09105,-1.27488 1.62953,-3.75074 3.30695,-3.79548c0.10023,-0.00268 4.59166,4.44672 5.55308,5.39609l1.51774,1.87269c0,0 1.56173,1.95217 -0.39044,3.51391c-1.95217,1.56174 -3.51391,-0.39043 -3.51391,-0.39043l-1.14893,-1.46064c-0.53292,-0.53845 -1.22713,-0.96598 -1.72917,-1.52566c-0.35607,0.34431 -0.77839,0.65515 -1.03817,1.06422c-0.92669,1.45923 -0.77463,3.41915 -1.62272,4.92542c-0.94343,1.67559 -2.46953,3.01498 -3.22431,4.78359c0,0 -1.01534,2.28453 -3.29987,1.26919c-0.35538,-0.15794 -0.6309,-0.3466 -0.84283,-0.5526c-0.60679,0.24253 -1.40682,0.27766 -2.30849,-0.3986z" fill="#8cc580" stroke="none" stroke-width="0.5" stroke-linecap="butt"/><path d="M297.79417,50.92475c-1.92055,1.60046 -3.52101,-0.32009 -3.52101,-0.32009l-1.49363,-1.86671c-0.05978,0.1791 -0.11536,0.35865 -0.16046,0.53926c0,0 -0.60634,2.42536 -3.0317,1.81902c-2.42536,-0.60634 -1.81901,-3.03169 -1.81901,-3.03169c0.43101,-1.72212 1.68849,-7.33129 2.83934,-7.71849c4.9153,-1.65371 5.46665,3.10769 6.14842,5.52626l1.35814,1.53144c0,0 1.60046,1.92055 -0.3201,3.52101z" fill="#8cc580" stroke="none" stroke-width="0.5" stroke-linecap="butt"/><path d="M282.87989,41.93565c0,19.0729 -15.79776,34.53454 -35.28529,34.53454c-19.48753,0 -35.28528,-15.46164 -35.28528,-34.53454c0,-19.07289 15.79776,-34.53453 35.28528,-34.53453c19.48752,0 35.28529,15.46164 35.28529,34.53453z" fill="#80b575" stroke="none" stroke-width="0" stroke-linecap="butt"/><path d="M235.34235,33.43715c0,19.07289 -15.79776,34.53454 -35.28529,34.53454c-19.48753,0 -35.28528,-15.46164 -35.28528,-34.53453c0,-19.07289 15.79776,-34.53453 35.28528,-34.53453c19.48753,0 35.28529,15.46164 35.28529,34.53453z" fill="#80b575" stroke="none" stroke-width="0" stroke-linecap="butt"/><path d="M229.83183,5.40411c0,19.0729 -15.79776,34.53454 -35.28528,34.53454c-19.48753,0 -35.28529,-15.46164 -35.28529,-34.53453c0,-19.07289 15.79776,-34.53453 35.28529,-34.53453c19.48753,0 35.28528,15.46164 35.28528,34.53453z" fill="#8cc580" stroke="#7bae71" stroke-width="4" stroke-linecap="butt"/><path d="M185.29731,38.94766c0,19.0729 -15.79776,34.53453 -35.28528,34.53453c-19.48753,0 -35.28528,-15.46164 -35.28528,-34.53453c0,-19.07289 15.79776,-34.53453 35.28529,-34.53453c19.48753,0 35.28528,15.46164 35.28528,34.53453z" fill="#80b575" stroke="none" stroke-width="0" stroke-linecap="butt"/><path d="M236.19371,-38.28564c0,19.91572 -16.64942,36.0606 -37.1875,36.0606c-20.53808,0 -37.1875,-16.14488 -37.1875,-36.0606c0,-19.91572 16.64942,-36.06061 37.1875,-36.06061c20.53808,0 37.1875,16.14489 37.1875,36.06061z" fill="#a5e998" stroke="#72a169" stroke-width="4" stroke-linecap="butt"/><path d="M293.39038,5.89961c0,19.0729 -15.79776,34.53454 -35.28529,34.53454c-19.48753,0 -35.28528,-15.46164 -35.28528,-34.53453c0,-19.07289 15.79776,-34.53453 35.28528,-34.53453c19.48753,0 35.28529,15.46164 35.28529,34.53453z" fill="#8cc580" stroke="#7bae71" stroke-width="4" stroke-linecap="butt"/><path d="M178.2853,7.91162c0,19.0729 -15.79776,34.53454 -35.28528,34.53454c-19.48753,0 -35.28528,-15.46164 -35.28528,-34.53454c0,-19.07289 15.79776,-34.53453 35.28529,-34.53453c19.48753,0 35.28528,15.46164 35.28528,34.53453z" fill="#8cc580" stroke="#7bae71" stroke-width="4" stroke-linecap="butt"/><path d="M293.19371,-33.22501c0,17.67311 -14.77461,32 -33,32c-18.22539,0 -33,-14.32689 -33,-32c0,-17.67311 14.77461,-32 33,-32c18.22539,0 33,14.32689 33,32z" fill="#a5e998" stroke="#72a169" stroke-width="4" stroke-linecap="butt"/><path d="M169.19371,-21.22501c0,17.67311 -14.77461,32 -33,32c-18.22539,0 -33,-14.32689 -33,-32c0,-17.67311 14.7746,-32 33,-32c18.22539,0 33,14.32689 33,32z" fill="#a5e998" stroke="#72a169" stroke-width="4" stroke-linecap="butt"/><path d="M170.69371,-7.47501c0,0 5.37129,3.03688 6.0934,9.37544c0.77425,6.79619 -0.5934,16.12456 -0.5934,16.12456" fill="none" stroke="#8cc580" stroke-width="7" stroke-linecap="round"/><path d="M225.86037,16.525c0,0 -2.90741,-7.10182 -2.27264,-11.22784c0.58546,-3.8055 4.26471,-10.3868 5.56315,-14.42574c0.43071,-1.3398 -0.95718,1.15357 -0.95718,1.15357" fill="none" stroke="#8cc580" stroke-width="7" stroke-linecap="round"/><path d="M162.52703,-40.89168c0,0 2.84611,5.16166 5.10383,8.80874c2.05688,3.32265 1.56284,14.19126 1.56284,14.19126" fill="none" stroke="#a5e998" stroke-width="5" stroke-linecap="round"/><path d="M229.86036,-22.89168c0,0 -2.4648,-8.19704 -2.16288,-11.31684c0.14017,-1.44845 -0.36231,-5.241 0.59333,-8.09399c1.47039,-4.38972 4.23622,-7.25584 4.23622,-7.25584" fill="none" stroke="#a5e998" stroke-width="6.5" stroke-linecap="round"/><path d="M168.51784,-15.45222c-1.15354,1.02207 -1.85437,2.63797 -2.93532,4.21277c0,0 -1.42303,2.05548 -3.47851,0.63246c-0.58017,-0.40165 -0.88321,-0.85369 -1.01935,-1.29568c-1.75452,-1.76511 0.00794,-3.52757 0.00794,-3.52757l1.33334,-1.33333c0.54857,-0.53379 1.37866,-1.26628 2.31762,-1.95331c0.82468,-0.95279 1.74109,-1.77136 2.75915,-2.2261c1.18107,-0.52755 2.56113,-0.36552 3.84169,-0.54828l0.40876,0.25768l0.0469,-0.18758l2.61593,0.65398c1.1133,0.25265 1.94439,1.24829 1.94439,2.43804c0,1.18975 -0.83109,2.18539 -1.94439,2.43804l-2.61593,0.65399l-0.02653,-0.10609c-0.14102,0.0628 -0.28397,0.12171 -0.42912,0.17619c-0.77801,0.292 -1.63855,-0.40673 -2.46783,-0.35334c-0.1201,0.00773 -0.23986,0.03133 -0.35872,0.06814z" fill="#a5e998" stroke="none" stroke-width="0.5" stroke-linecap="butt"/><path d="M160.16437,-36.10311c-0.41709,0.58828 -1.16496,1.15126 -2.46096,0.89206c-1.73257,-0.34651 -1.99574,-1.67262 -2.0011,-2.42058c-0.15405,-0.77602 0.07551,-1.36492 0.40223,-1.79058l0.38816,-1.36005c0.76467,-0.98224 1.25723,-2.25782 2.29402,-2.94673c3.01603,-2.00407 6.3538,-1.61213 9.41978,-0.43351h0.25804l0.03925,-0.31403l2.63376,0.32922c1.25027,0.13791 2.22281,1.19778 2.22281,2.48481c0,1.38071 -1.11929,2.5 -2.5,2.5h-2.46076c-2.90055,0.6525 -5.49546,1.90777 -8.23523,3.05939z" fill="#a5e998" stroke="none" stroke-width="0.5" stroke-linecap="butt"/><path d="M232.19371,-19.49581l-0.97675,-0.0193c-1.66433,-0.21127 -3.34556,-0.31725 -5.02325,-0.31403c0,0 -1.02855,0 -1.76619,-0.65974c-0.29924,-0.00483 -0.59933,-0.00731 -0.90048,-0.00693c0,0 -2.5,0 -2.5,-2.5c0,-2.5 2.5,-2.5 2.5,-2.5c3.26711,0.0038 6.41232,0.33885 9.66666,0.33333h2.33334c0,0 2.5,0 2.5,2.5c0,2.5 -2.5,2.5 -2.5,2.5h-1.55944c-0.73816,0.66666 -1.7739,0.66667 -1.7739,0.66667z" fill="#a5e998" stroke="none" stroke-width="0.5" stroke-linecap="butt"/><path d="M216.69371,1.00419c-2,-1.5 -0.5,-3.5 -0.5,-3.5l2.0152,-2.1312c1.36832,-0.51523 2.47819,-1.67203 3.31813,-2.8688c0,0 0.52609,-0.70146 1.37056,-0.96197c0.66526,-1.76342 1.06153,-3.51546 2.53717,-5.23973c1.09106,-1.27488 1.62954,-3.75074 3.30695,-3.79548c0.10022,-0.00267 4.59166,4.44671 5.55308,5.39608l1.51774,1.8727c0,0 1.56173,1.95217 -0.39043,3.51391c-1.95217,1.56174 -3.51391,-0.39044 -3.51391,-0.39044l-1.14893,-1.46064c-0.53292,-0.53845 -1.22713,-0.96598 -1.72917,-1.52566c-0.35607,0.34431 -0.77839,0.65515 -1.03817,1.06422c-0.92669,1.45923 -0.77463,3.41916 -1.62272,4.92543c-0.94343,1.67559 -2.46953,3.01499 -3.2243,4.7836c0,0 -1.01535,2.28453 -3.29988,1.26919c-0.35538,-0.15794 -0.6309,-0.34661 -0.84282,-0.5526c-0.60679,0.24253 -1.40683,0.27766 -2.3085,-0.39859z" fill="#8cc580" stroke="none" stroke-width="0.5" stroke-linecap="butt"/><path d="M176.79417,-3.07526c-1.92056,1.60046 -3.52101,-0.32009 -3.52101,-0.32009l-1.49363,-1.86672c-0.05979,0.1791 -0.11535,0.35865 -0.16046,0.53926c0,0 -0.60634,2.42535 -3.03169,1.81901c-2.42535,-0.60634 -1.81902,-3.03169 -1.81902,-3.03169c0.43101,-1.72211 1.68849,-7.33129 2.83935,-7.71848c4.9153,-1.65371 5.46665,3.10769 6.14843,5.52626l1.35814,1.53144c0,0 1.60046,1.92055 -0.3201,3.52101z" fill="#8cc580" stroke="none" stroke-width="0.5" stroke-linecap="butt"/><path d="M134.87989,90.93566c0,19.0729 -15.79776,34.53454 -35.28529,34.53454c-19.48753,0 -35.28528,-15.46164 -35.28528,-34.53454c0,-19.0729 15.79776,-34.53453 35.28529,-34.53453c19.48753,0 35.28529,15.46163 35.28529,34.53453z" fill="#80b575" stroke="none" stroke-width="0" stroke-linecap="butt"/><path d="M87.34235,82.43713c0,19.0729 -15.79776,34.53453 -35.28528,34.53453c-19.48752,0 -35.28528,-15.46164 -35.28528,-34.53453c0,-19.0729 15.79776,-34.53453 35.28529,-34.53453c19.48752,0 35.28528,15.46164 35.28528,34.53453z" fill="#80b575" stroke="none" stroke-width="0" stroke-linecap="butt"/><path d="M81.83182,54.40411c0,19.07289 -15.79776,34.53454 -35.28528,34.53454c-19.48753,0 -35.28528,-15.46164 -35.28528,-34.53453c0,-19.07289 15.79776,-34.53453 35.28529,-34.53453c19.48752,0 35.28528,15.46164 35.28528,34.53453z" fill="#8cc580" stroke="#7bae71" stroke-width="4" stroke-linecap="butt"/><path d="M37.2973,87.94767c0,19.0729 -15.79776,34.53453 -35.28528,34.53453c-19.48753,0 -35.28528,-15.46164 -35.28528,-34.53453c0,-19.0729 15.79776,-34.53453 35.28529,-34.53453c19.48753,0 35.28529,15.46164 35.28529,34.53453z" fill="#80b575" stroke="none" stroke-width="0" stroke-linecap="butt"/><path d="M88.19371,10.71438c0,19.91572 -16.64942,36.0606 -37.1875,36.0606c-20.53808,0 -37.1875,-16.14488 -37.1875,-36.0606c0,-19.91572 16.64941,-36.0606 37.1875,-36.0606c20.53809,0 37.1875,16.14488 37.1875,36.0606z" fill="#a5e998" stroke="#72a169" stroke-width="4" stroke-linecap="butt"/><path d="M-55.7958,463.03308l6.87336,-141.14114c0,0 75.54379,-40.54054 154.65056,-40.54054c37.99142,0 122.54876,24.62599 204.41956,27.10843c47.41588,1.43772 116.26907,-17.01121 152.31492,-12.47302c92.34775,11.62664 112.37223,-20.64141 112.37223,-20.64141v187.68769z" fill="#d0e8bf" stroke="#765945" stroke-width="0.5" stroke-linecap="butt"/><path d="M145.39039,54.89961c0,19.0729 -15.79776,34.53454 -35.28528,34.53454c-19.48753,0 -35.28528,-15.46164 -35.28528,-34.53454c0,-19.0729 15.79776,-34.53453 35.28528,-34.53453c19.48752,0 35.28529,15.46163 35.28529,34.53453z" fill="#8cc580" stroke="#7bae71" stroke-width="4" stroke-linecap="butt"/><path d="M30.28529,56.91162c0,19.07289 -15.79776,34.53454 -35.28528,34.53454c-19.48753,0 -35.28528,-15.46164 -35.28528,-34.53453c0,-19.07289 15.79776,-34.53453 35.28529,-34.53453c19.48753,0 35.28529,15.46164 35.28529,34.53453z" fill="#8cc580" stroke="#7bae71" stroke-width="4" stroke-linecap="butt"/><path d="M145.19371,15.77499c0,17.67311 -14.7746,32 -33,32c-18.2254,0 -33,-14.32689 -33,-32c0,-17.67311 14.7746,-32 33,-32c18.2254,0 33,14.32689 33,32z" fill="#a5e998" stroke="#72a169" stroke-width="4" stroke-linecap="butt"/><path d="M21.1937,27.77499c0,17.67311 -14.77461,32 -33,32c-18.22539,0 -33,-14.32689 -33,-32c0,-17.67311 14.77461,-32 33,-32c18.2254,0 33,14.32689 33,32z" fill="#a5e998" stroke="#72a169" stroke-width="4" stroke-linecap="butt"/><path d="M23.78079,287.38892c0,0 8.70044,-119.21564 0.95857,-163.02214c-4.74178,-26.83082 -43.00061,-74.86788 -43.00061,-74.86788c0,0 6.70077,-16.99665 19.79515,-3.08244c9.02193,9.58678 23.44513,51.80576 31.21355,51.58686c6.21061,-0.17502 -1.89428,-71.24788 7.43538,-75.33919c6.12503,-2.686 21.8812,-8.38648 25.83748,9.40077c4.41222,19.83713 -2.92375,63.67887 5.6129,66.27421c5.93679,1.80492 32.11035,-51.61343 38.79308,-55.89987c21.09888,-13.53324 22.96413,2.78619 22.96413,2.78619c0,0 -51.35223,53.34448 -55.84482,80.1804c-7.45532,44.53335 15.30428,161.98309 15.30428,161.98309c0,0 -24.28528,9.97144 -36.03604,9.97144c-11.25049,0 -33.03303,-9.97144 -33.03303,-9.97144z" fill="#b1a49b" stroke="#938981" stroke-width="2.5" stroke-linecap="butt"/><path d="M168.59049,245.57766c0,0 18.26659,-118.36456 14.61458,-162.73085c-0.96931,-11.77559 -6.42284,-21.16398 -13.58908,-35.80444c-9.37077,-19.14427 -20.85767,-42.3947 -20.85767,-42.3947c0,0 9.35123,-12.83079 19.01667,-1.64925c12.13387,14.03719 25.86889,52.781 34.76314,53.26439c8.01085,0.43538 24.87949,-40.83597 36.91407,-46.39408c4.12759,-1.90631 11.64916,-1.18628 7.24602,9.31246c-5.39536,12.86457 -23.16351,36.27002 -18.835,36.46868c7.40098,0.33966 29.89242,-34.73971 43.36605,-44.8122c15.47156,-11.56609 21.57237,1.6386 21.57237,1.6386c0,0 -53.13926,49.17809 -59.6521,75.62031c-10.80784,43.87999 0.8812,162.99037 0.8812,162.99037c0,0 -23.84772,8.0212 -34.98111,7.08391c-10.6594,-0.89739 -30.45914,-12.59317 -30.45914,-12.59317z" fill="#b1a49b" stroke="#938981" stroke-width="2.5" stroke-linecap="butt"/><path d="M303.50252,263.5846c0,0 2.20783,-108.01388 -6.35201,-147.24757c-1.97051,-9.03174 -42.01686,-24.55379 -56.5646,-50.47979c-14.54774,-25.92599 23.25118,5.56553 29.78874,2.76166c4.88723,-2.09607 2.07961,-9.82433 2.07961,-9.82433c0,0 -13.1923,-34.49484 -8.04167,-35.3266c4.36775,-0.70535 4.47468,-11.20886 17.7303,-9.57944c2.60982,0.32081 6.79665,8.31083 9.69185,15.02648c3.28288,7.61489 12.19079,14.877 13.45733,11.66327c8.99014,-22.81169 19.12074,-47.05242 29.94099,-48.78676c4.42792,-0.70974 15.5909,2.31518 13.0852,15.28956c-2.85071,14.76079 -19.52801,39.9988 -15.13792,44.53186c6.67259,6.88987 22.65639,-16.58235 33.90823,-20.82364c12.32017,-4.644 19.65856,9.54822 19.65856,9.54822c0,0 -41.64508,50.31327 -44.31297,74.73341c-4.42728,40.52444 20.23831,145.63043 20.23831,145.63043c0,0 -20.3659,10.0179 -30.43252,10.50842c-9.63805,0.46965 -28.73741,-7.62517 -28.73741,-7.62517z" fill="#b1a49b" stroke="#938981" stroke-width="2.5" stroke-linecap="butt"/><path d="M413.79079,268.05493c0,0 10.99417,-158.78917 1.21128,-217.13718c-5.99188,-35.73728 -54.33706,-99.7202 -54.33706,-99.7202c0,0 9.7306,-13.44266 20.90418,-8.05408c10.22776,4.93244 21.4211,28.80771 32.53002,27.39827c5.58505,-0.7086 3.69513,-39.65979 9.03848,-38.35187c13.44498,3.291 22.86416,41.78042 30.07184,41.79762c4.52479,0.0108 12.5745,-20.46849 21.09524,-26.01122c8.76008,-5.69842 17.93249,3.53525 17.93249,3.53525c0,0 -4.83039,65.04612 -10.5074,100.79021c-9.4208,59.31615 19.33902,215.75322 19.33902,215.75322c0,0 -30.68772,13.28144 -45.53639,13.28144c-14.21652,0 -41.74169,-13.28144 -41.74169,-13.28144z" fill="#b1a49b" stroke="#938981" stroke-width="3" stroke-linecap="butt"/><path d="M22.6937,41.52499c0,0 5.37129,3.03688 6.0934,9.37544c0.77425,6.79619 -0.5934,16.12457 -0.5934,16.12457" fill="none" stroke="#8cc580" stroke-width="7" stroke-linecap="round"/><path d="M77.86037,65.52497c0,0 -2.90741,-7.10182 -2.27264,-11.22784c0.58546,-3.8055 4.26472,-10.38679 5.56315,-14.42573c0.43072,-1.3398 -0.95717,1.15357 -0.95717,1.15357" fill="none" stroke="#8cc580" stroke-width="7" stroke-linecap="round"/><path d="M14.52703,8.10832c0,0 2.84611,5.16166 5.10383,8.80874c2.05688,3.32265 1.56284,14.19126 1.56284,14.19126" fill="none" stroke="#a5e998" stroke-width="5" stroke-linecap="round"/><path d="M81.86034,26.10832c0,0 -2.4648,-8.19704 -2.16289,-11.31684c0.14017,-1.44845 -0.36231,-5.241 0.59333,-8.09399c1.47039,-4.38971 4.23622,-7.25584 4.23622,-7.25584" fill="none" stroke="#a5e998" stroke-width="6.5" stroke-linecap="round"/><path d="M20.51781,33.54777c-1.15354,1.02208 -1.85437,2.63797 -2.93532,4.21277c0,0 -1.42302,2.05549 -3.4785,0.63246c-0.58017,-0.40165 -0.88322,-0.85369 -1.01936,-1.29568c-1.75452,-1.76511 0.00794,-3.52757 0.00794,-3.52757l1.33334,-1.33333c0.54857,-0.53379 1.37866,-1.26628 2.31762,-1.95331c0.82468,-0.95279 1.74109,-1.77136 2.75915,-2.2261c1.18107,-0.52755 2.56113,-0.36552 3.84169,-0.54828l0.40875,0.25768l0.0469,-0.18758l2.61593,0.65398c1.1133,0.25265 1.9444,1.24829 1.9444,2.43804c0,1.18975 -0.8311,2.18539 -1.94439,2.43804l-2.61593,0.65398l-0.02652,-0.10609c-0.14102,0.0628 -0.28397,0.12171 -0.42913,0.17619c-0.77801,0.292 -1.63855,-0.40673 -2.46783,-0.35334c-0.1201,0.00773 -0.23986,0.03133 -0.35872,0.06814z" fill="#a5e998" stroke="none" stroke-width="0.5" stroke-linecap="butt"/><path d="M12.16437,12.89692c-0.41709,0.58829 -1.16497,1.15126 -2.46096,0.89206c-1.73257,-0.34652 -1.99574,-1.67263 -2.0011,-2.42059c-0.15405,-0.77601 0.07552,-1.36492 0.40223,-1.79058l0.38816,-1.36005c0.76467,-0.98224 1.25723,-2.25781 2.29402,-2.94673c3.01603,-2.00407 6.3538,-1.61214 9.41978,-0.43351h0.25804l0.03925,-0.31402l2.63377,0.32922c1.25027,0.13791 2.22282,1.19778 2.22282,2.4848c0,1.38071 -1.11929,2.5 -2.5,2.5h-2.46076c-2.90056,0.6525 -5.49546,1.90777 -8.23523,3.05939z" fill="#a5e998" stroke="none" stroke-width="0.5" stroke-linecap="butt"/><path d="M84.19371,29.50419l-0.97676,-0.0193c-1.66433,-0.21127 -3.34556,-0.31725 -5.02324,-0.31403c0,0 -1.02856,0 -1.76619,-0.65974c-0.29924,-0.00483 -0.59933,-0.00731 -0.90048,-0.00693c0,0 -2.5,0 -2.5,-2.5c0,-2.5 2.5,-2.5 2.5,-2.5c3.26711,0.0038 6.41232,0.33885 9.66667,0.33333h2.33333c0,0 2.5,0 2.5,2.5c0,2.5 -2.5,2.5 -2.5,2.5h-1.55943c-0.73816,0.66666 -1.7739,0.66667 -1.7739,0.66667z" fill="#a5e998" stroke="none" stroke-width="0.5" stroke-linecap="butt"/><path d="M68.6937,50.00419c-2,-1.5 -0.5,-3.5 -0.5,-3.5l2.0152,-2.13119c1.36832,-0.51523 2.47819,-1.67203 3.31813,-2.86881c0,0 0.52608,-0.70146 1.37056,-0.96197c0.66526,-1.76342 1.06153,-3.51546 2.53718,-5.23973c1.09105,-1.27488 1.62954,-3.75074 3.30695,-3.79548c0.10022,-0.00267 4.59166,4.44672 5.55308,5.39609l1.51774,1.87269c0,0 1.56173,1.95217 -0.39043,3.51391c-1.95217,1.56174 -3.51391,-0.39043 -3.51391,-0.39043l-1.14893,-1.46064c-0.53292,-0.53845 -1.22713,-0.96598 -1.72917,-1.52566c-0.35607,0.34431 -0.77839,0.65515 -1.03817,1.06422c-0.92669,1.45923 -0.77463,3.41915 -1.62272,4.92542c-0.94343,1.67559 -2.46953,3.01498 -3.22431,4.78359c0,0 -1.01534,2.28453 -3.29987,1.26919c-0.35538,-0.15794 -0.6309,-0.3466 -0.84283,-0.5526c-0.60679,0.24253 -1.40682,0.27766 -2.30849,-0.3986z" fill="#8cc580" stroke="none" stroke-width="0.5" stroke-linecap="butt"/><path d="M28.79416,45.92475c-1.92056,1.60046 -3.52101,-0.32009 -3.52101,-0.32009l-1.49363,-1.86671c-0.05979,0.1791 -0.11535,0.35865 -0.16046,0.53926c0,0 -0.60634,2.42536 -3.0317,1.81902c-2.42535,-0.60634 -1.81902,-3.03169 -1.81902,-3.03169c0.43101,-1.72212 1.68849,-7.33129 2.83935,-7.71849c4.9153,-1.65371 5.46665,3.10769 6.14843,5.52626l1.35814,1.53144c0,0 1.60046,1.92055 -0.32009,3.52101z" fill="#8cc580" stroke="none" stroke-width="0.5" stroke-linecap="butt"/><path d="M132.36486,295.19336c0,19.32997 -27.74311,24.33334 -65.66667,24.33334c-37.92355,0 -71.66666,-5.00337 -71.66666,-24.33334c0,-4.32956 2.87282,-7.19673 3.92667,-11.68389c0.93844,-3.99574 -0.11759,-9.69012 2.61825,-12.4352c2.94513,-2.95507 7.68946,-2.08614 13.29096,-4.87428c2.87593,-1.4315 6.49926,-9.34162 12.88638,-10.44169c6.38712,-1.10007 17.22142,4.75236 23.43736,4.18556c3.00301,-0.27383 7.83659,-7.59005 12.84039,-5.41716c1.2325,0.53521 5.51263,3.41986 13.07722,4.0098c3.10719,0.24232 8.70819,-3.50474 11.82933,-2.29575c3.18238,1.23272 6.44394,7.40066 9.68009,9.10461c1.8187,0.95761 9.9306,-4.76193 14.08014,-1.09177c1.55056,1.37143 3.95581,4.6136 8.16538,6.58669c2.26683,1.0625 6.81025,2.62693 8.48728,5.13991c3.54302,5.3091 3.01389,15.17534 3.01389,19.21318z" fill="#b5deb4" stroke="#8bab8b" stroke-width="2.5" stroke-linecap="butt"/><path d="M264.25717,275.82989c0,21.98994 -31.56081,27.68182 -74.70299,27.68182c-43.14218,0 -81.52865,-5.69188 -81.52865,-27.68182c0,-4.92534 3.26814,-8.18707 4.46702,-13.2917c1.06758,-4.54559 -0.13377,-11.02357 2.97855,-14.1464c3.3504,-3.36172 8.7476,-2.3732 15.11991,-5.54503c3.27169,-1.62849 7.39362,-10.62711 14.65966,-11.87856c7.26604,-1.25145 19.59125,5.40633 26.66255,4.76154c3.41625,-0.31151 8.91497,-8.63451 14.60734,-6.16261c1.40211,0.60886 6.27122,3.89047 14.87677,4.56158c3.53476,0.27567 9.90652,-3.98703 13.45715,-2.61167c3.6203,1.40235 7.33068,8.41905 11.01216,10.35748c2.06897,1.08938 11.29715,-5.41721 16.0177,-1.24201c1.76393,1.56015 4.50016,5.24847 9.28901,7.49308c2.57876,1.20871 7.7474,2.98842 9.6552,5.84721c4.03057,6.03967 3.42863,17.26361 3.42863,21.85709z" fill="#b5deb4" stroke="#8bab8b" stroke-width="2.5" stroke-linecap="butt"/><path d="M421.95642,267.8577c0,25.53659 -36.65108,32.14647 -86.75143,32.14647c-50.10034,0 -94.67796,-6.60989 -94.67796,-32.14647c0,-5.71972 3.79524,-9.50752 5.18748,-15.43544c1.23977,-5.27872 -0.15535,-12.8015 3.45895,-16.428c3.89077,-3.90392 10.15845,-2.75597 17.55852,-6.43936c3.79937,-1.89113 8.5861,-12.34109 17.02404,-13.79439c8.43795,-1.45329 22.75101,6.27828 30.96281,5.52949c3.96724,-0.36175 10.35282,-10.02713 16.96328,-7.15655c1.62824,0.70706 7.28267,4.51794 17.27615,5.2973c4.10487,0.32012 11.50429,-4.63007 15.62758,-3.03289c4.2042,1.62852 8.51301,9.77692 12.78825,12.02799c2.40267,1.26508 13.11921,-6.29092 18.60111,-1.44233c2.04843,1.81178 5.22597,6.09496 10.78718,8.70159c2.99467,1.40365 8.99693,3.4704 11.21244,6.79028c4.68063,7.01378 3.98161,20.04796 3.98161,25.3823z" fill="#b5deb4" stroke="#8bab8b" stroke-width="2.5" stroke-linecap="butt"/><path d="M534.95341,277.25333c0,27.60546 -39.62041,34.75085 -93.77969,34.75085c-54.15927,0 -102.34838,-7.1454 -102.34838,-34.75085c0,-6.18311 4.10271,-10.27778 5.60774,-16.68596c1.34021,-5.70638 -0.16793,-13.83863 3.73918,-17.75893c4.20599,-4.22019 10.98144,-2.97924 18.98103,-6.96105c4.10717,-2.04434 9.2817,-13.34092 18.40326,-14.91195c9.12156,-1.57103 24.59421,6.78692 33.47129,5.97747c4.28865,-0.39106 11.19157,-10.83949 18.33758,-7.73634c1.76016,0.76434 7.87268,4.88397 18.6758,5.72647c4.43743,0.34606 12.43631,-5.00519 16.89366,-3.2786c4.54481,1.76046 9.20269,10.569 13.8243,13.00244c2.59732,1.36757 14.18208,-6.80059 20.1081,-1.55918c2.21438,1.95856 5.64936,6.58875 11.66111,9.40657c3.23729,1.51737 9.72582,3.75156 12.12082,7.3404c5.05984,7.58201 4.30419,21.67217 4.30419,27.43867z" fill="#b5deb4" stroke="#8bab8b" stroke-width="2.5" stroke-linecap="butt"/><path d="M444.91593,154.9897c0,19.07289 -15.79776,34.53454 -35.28528,34.53454c-19.48753,0 -35.28528,-15.46164 -35.28528,-34.53454c0,-19.07289 15.79776,-34.53453 35.28528,-34.53453c19.48753,0 35.28528,15.46164 35.28528,34.53453z" fill="#597d51" stroke="none" stroke-width="0" stroke-linecap="butt"/><path d="M552.91593,78.9897c0,19.0729 -15.79776,34.53453 -35.28529,34.53453c-19.48753,0 -35.28528,-15.46164 -35.28528,-34.53453c0,-19.0729 15.79776,-34.53453 35.28528,-34.53453c19.48753,0 35.28529,15.46164 35.28529,34.53453z" fill="#597d51" stroke="none" stroke-width="0" stroke-linecap="butt"/><path d="M505.37838,70.49121c0,19.0729 -15.79776,34.53454 -35.28528,34.53454c-19.48753,0 -35.28529,-15.46164 -35.28529,-34.53454c0,-19.0729 15.79776,-34.53453 35.28529,-34.53453c19.48753,0 35.28528,15.46163 35.28528,34.53453z" fill="#80b575" stroke="none" stroke-width="0" stroke-linecap="butt"/><path d="M499.86788,42.45817c0,19.0729 -15.79776,34.53454 -35.28528,34.53454c-19.48753,0 -35.28528,-15.46164 -35.28528,-34.53454c0,-19.07289 15.79776,-34.53453 35.28528,-34.53453c19.48753,0 35.28528,15.46164 35.28528,34.53453z" fill="#8cc580" stroke="#7bae71" stroke-width="4" stroke-linecap="butt"/><path d="M455.33334,76.00169c0,19.0729 -15.79776,34.53454 -35.28528,34.53454c-19.48753,0 -35.28528,-15.46164 -35.28528,-34.53454c0,-19.0729 15.79776,-34.53453 35.28528,-34.53453c19.48753,0 35.28528,15.46163 35.28528,34.53453z" fill="#80b575" stroke="none" stroke-width="0" stroke-linecap="butt"/><path d="M506.22974,-1.23157c0,19.91572 -16.64941,36.0606 -37.1875,36.0606c-20.53809,0 -37.1875,-16.14488 -37.1875,-36.0606c0,-19.91572 16.64941,-36.06061 37.1875,-36.06061c20.53809,0 37.1875,16.14489 37.1875,36.06061z" fill="#9edc8f" stroke="#82b575" stroke-width="4" stroke-linecap="butt"/><path d="M563.42643,42.95367c0,19.07289 -15.79776,34.53454 -35.28529,34.53454c-19.48753,0 -35.28528,-15.46164 -35.28528,-34.53453c0,-19.07289 15.79776,-34.53453 35.28528,-34.53453c19.48753,0 35.28529,15.46163 35.28529,34.53453z" fill="#8cc580" stroke="#7bae71" stroke-width="4" stroke-linecap="butt"/><path d="M448.32133,44.96568c0,19.07289 -15.79776,34.53454 -35.28528,34.53454c-19.48753,0 -35.28529,-15.46164 -35.28529,-34.53453c0,-19.07289 15.79776,-34.53453 35.28529,-34.53453c19.48753,0 35.28528,15.46164 35.28528,34.53453z" fill="#8cc580" stroke="#7bae71" stroke-width="4" stroke-linecap="butt"/><path d="M563.22973,3.82904c0,17.67311 -14.7746,32 -33,32c-18.2254,0 -33,-14.32689 -33,-32c0,-17.67311 14.7746,-32 33,-32c18.2254,0 33,14.32689 33,32z" fill="#9edc8f" stroke="#82b575" stroke-width="4" stroke-linecap="butt"/><path d="M439.22974,15.82904c0,17.67311 -14.77461,32 -33,32c-18.22539,0 -33,-14.32689 -33,-32c0,-17.67311 14.77461,-32 33,-32c18.22539,0 33,14.32689 33,32z" fill="#9edc8f" stroke="#82b575" stroke-width="4" stroke-linecap="butt"/><path d="M440.72974,29.57904c0,0 5.37129,3.03688 6.0934,9.37544c0.77425,6.79619 -0.5934,16.12456 -0.5934,16.12456" fill="none" stroke="#8cc580" stroke-width="7" stroke-linecap="round"/><path d="M495.89641,53.57905c0,0 -2.90741,-7.10182 -2.27264,-11.22784c0.58546,-3.8055 4.26472,-10.3868 5.56315,-14.42574c0.43071,-1.3398 -0.95718,1.15357 -0.95718,1.15357" fill="none" stroke="#8cc580" stroke-width="7" stroke-linecap="round"/><path d="M432.56308,-3.83762c0,0 2.84611,5.16166 5.10383,8.80874c2.05688,3.32265 1.56284,14.19126 1.56284,14.19126" fill="none" stroke="#9edc8f" stroke-width="5" stroke-linecap="round"/><path d="M499.89641,14.16238c0,0 -2.4648,-8.19704 -2.16288,-11.31684c0.14017,-1.44845 -0.36231,-5.241 0.59333,-8.09399c1.47039,-4.38971 4.23622,-7.25584 4.23622,-7.25584" fill="none" stroke="#9edc8f" stroke-width="6.5" stroke-linecap="round"/><path d="M438.55388,21.60183c-1.15353,1.02208 -1.85437,2.63798 -2.93532,4.21277c0,0 -1.42302,2.05549 -3.4785,0.63246c-0.58017,-0.40166 -0.88322,-0.8537 -1.01936,-1.29568c-1.75452,-1.76511 0.00795,-3.52757 0.00795,-3.52757l1.33334,-1.33334c0.54858,-0.53379 1.37866,-1.26628 2.31761,-1.95331c0.82468,-0.95279 1.74109,-1.77136 2.75915,-2.2261c1.18107,-0.52755 2.56113,-0.36552 3.84169,-0.54828l0.40875,0.25768l0.0469,-0.18758l2.61593,0.65398c1.1133,0.25265 1.94439,1.24828 1.94439,2.43804c0,1.18975 -0.8311,2.18539 -1.94439,2.43804l-2.61593,0.65398l-0.02652,-0.10609c-0.14102,0.06281 -0.28397,0.1217 -0.42912,0.17619c-0.77801,0.292 -1.63855,-0.40673 -2.46784,-0.35334c-0.1201,0.00773 -0.23985,0.03133 -0.35872,0.06814z" fill="#9edc8f" stroke="none" stroke-width="0.5" stroke-linecap="butt"/><path d="M430.20041,0.95097c-0.41709,0.58829 -1.16496,1.15126 -2.46096,0.89206c-1.73257,-0.34652 -1.99574,-1.67262 -2.0011,-2.42058c-0.15406,-0.77602 0.07552,-1.36492 0.40223,-1.79058l0.38816,-1.36005c0.76467,-0.98225 1.25723,-2.25782 2.29402,-2.94673c3.01603,-2.00407 6.3538,-1.61213 9.41978,-0.43351h0.25804l0.03925,-0.31402l2.63377,0.32922c1.25027,0.13791 2.22281,1.19778 2.22281,2.4848c0,1.38071 -1.11929,2.5 -2.5,2.5h-2.46076c-2.90055,0.65251 -5.49546,1.90778 -8.23523,3.0594z" fill="#9edc8f" stroke="none" stroke-width="0.5" stroke-linecap="butt"/><path d="M502.22974,17.55825l-0.97676,-0.0193c-1.66433,-0.21127 -3.34556,-0.31726 -5.02324,-0.31403c0,0 -1.02855,0 -1.76619,-0.65973c-0.29924,-0.00483 -0.59934,-0.00731 -0.90048,-0.00693c0,0 -2.5,0 -2.5,-2.5c0,-2.5 2.5,-2.5 2.5,-2.5c3.26711,0.0038 6.41232,0.33886 9.66667,0.33333h2.33333c0,0 2.5,0 2.5,2.5c0,2.5 -2.5,2.5 -2.5,2.5h-1.55944c-0.73816,0.66666 -1.7739,0.66667 -1.7739,0.66667z" fill="#9edc8f" stroke="none" stroke-width="0.5" stroke-linecap="butt"/><path d="M486.72974,38.05822c-2,-1.5 -0.5,-3.5 -0.5,-3.5l2.0152,-2.13119c1.36833,-0.51524 2.47819,-1.67203 3.31813,-2.8688c0,0 0.52609,-0.70146 1.37056,-0.96197c0.66526,-1.76341 1.06153,-3.51546 2.53717,-5.23973c1.09105,-1.27489 1.62954,-3.75074 3.30695,-3.79548c0.10023,-0.00267 4.59166,4.44672 5.55308,5.39609l1.51774,1.87269c0,0 1.56174,1.95217 -0.39043,3.51391c-1.95217,1.56174 -3.51391,-0.39044 -3.51391,-0.39044l-1.14893,-1.46063c-0.53292,-0.53845 -1.22713,-0.96598 -1.72917,-1.52566c-0.35607,0.34431 -0.77839,0.65515 -1.03817,1.06422c-0.92669,1.45923 -0.77462,3.41915 -1.62272,4.92542c-0.94343,1.67559 -2.46953,3.01499 -3.22431,4.7836c0,0 -1.01534,2.28453 -3.29987,1.26919c-0.35538,-0.15794 -0.6309,-0.34661 -0.84283,-0.5526c-0.60679,0.24253 -1.40682,0.27766 -2.30849,-0.3986z" fill="#8cc580" stroke="none" stroke-width="0.5" stroke-linecap="butt"/><path d="M446.8302,33.9788c-1.92055,1.60046 -3.52102,-0.32009 -3.52102,-0.32009l-1.49363,-1.86672c-0.05978,0.1791 -0.11536,0.35865 -0.16046,0.53926c0,0 -0.60634,2.42536 -3.0317,1.81902c-2.42536,-0.60634 -1.81901,-3.0317 -1.81901,-3.0317c0.43101,-1.72211 1.68849,-7.33129 2.83934,-7.71849c4.9153,-1.6537 5.46665,3.10769 6.14843,5.52626l1.35814,1.53144c0,0 1.60046,1.92055 -0.32009,3.52101z" fill="#8cc580" stroke="none" stroke-width="0.5" stroke-linecap="butt"/><path d="M397.37838,146.4912c0,19.07289 -15.79776,34.53453 -35.28528,34.53453c-19.48753,0 -35.28529,-15.46164 -35.28529,-34.53453c0,-19.0729 15.79776,-34.53453 35.28529,-34.53453c19.48753,0 35.28528,15.46164 35.28528,34.53453z" fill="#658c5b" stroke="none" stroke-width="0" stroke-linecap="butt"/><path d="M391.86788,118.45818c0,19.07289 -15.79776,34.53454 -35.28528,34.53454c-19.48753,0 -35.28528,-15.46164 -35.28528,-34.53454c0,-19.0729 15.79776,-34.53453 35.28528,-34.53453c19.48753,0 35.28528,15.46164 35.28528,34.53453z" fill="#7dae71" stroke="#7bae71" stroke-width="4" stroke-linecap="butt"/><path d="M347.33334,152.00171c0,19.07289 -15.79776,34.53454 -35.28528,34.53454c-19.48753,0 -35.28528,-15.46164 -35.28528,-34.53454c0,-19.07289 15.79776,-34.53453 35.28528,-34.53453c19.48753,0 35.28528,15.46164 35.28528,34.53453z" fill="#597d51" stroke="none" stroke-width="0" stroke-linecap="butt"/><path d="M398.22974,74.76843c0,19.91572 -16.64941,36.0606 -37.1875,36.0606c-20.53809,0 -37.1875,-16.14489 -37.1875,-36.0606c0,-19.91572 16.64941,-36.06061 37.1875,-36.06061c20.53809,0 37.1875,16.14489 37.1875,36.06061z" fill="#9edc8f" stroke="#82b575" stroke-width="4" stroke-linecap="butt"/><path d="M455.42643,118.95366c0,19.07289 -15.79776,34.53454 -35.28528,34.53454c-19.48753,0 -35.28528,-15.46164 -35.28528,-34.53454c0,-19.0729 15.79776,-34.53453 35.28528,-34.53453c19.48753,0 35.28528,15.46164 35.28528,34.53453z" fill="#7dae71" stroke="#658c5b" stroke-width="4" stroke-linecap="butt"/><path d="M340.32133,120.96568c0,19.07289 -15.79776,34.53454 -35.28528,34.53454c-19.48753,0 -35.28529,-15.46164 -35.28529,-34.53454c0,-19.0729 15.79776,-34.53453 35.28529,-34.53453c19.48753,0 35.28528,15.46163 35.28528,34.53453z" fill="#7dae71" stroke="#658c5b" stroke-width="4" stroke-linecap="butt"/><path d="M455.22974,79.82904c0,17.67311 -14.77461,32 -33,32c-18.22539,0 -33,-14.32689 -33,-32c0,-17.67311 14.77461,-32 33,-32c18.22539,0 33,14.32689 33,32z" fill="#9edc8f" stroke="#82b575" stroke-width="4" stroke-linecap="butt"/><path d="M331.22972,91.82904c0,17.67311 -14.77461,32 -33,32c-18.22539,0 -33,-14.32689 -33,-32c0,-17.67311 14.77461,-32 33,-32c18.22539,0 33,14.32689 33,32z" fill="#9edc8f" stroke="#72a169" stroke-width="4" stroke-linecap="butt"/><path d="M332.72972,105.57904c0,0 5.37129,3.03688 6.0934,9.37544c0.77425,6.79618 -0.5934,16.12457 -0.5934,16.12457" fill="none" stroke="#8cc580" stroke-width="7" stroke-linecap="round"/><path d="M387.89641,129.57904c0,0 -2.90741,-7.10183 -2.27264,-11.22784c0.58546,-3.8055 4.26472,-10.38681 5.56315,-14.42574c0.43071,-1.33979 -0.95718,1.15358 -0.95718,1.15358" fill="none" stroke="#7dae71" stroke-width="7" stroke-linecap="round"/><path d="M324.56308,72.16237c0,0 2.84611,5.16166 5.10383,8.80874c2.05688,3.32265 1.56284,14.19126 1.56284,14.19126" fill="none" stroke="#9edc8f" stroke-width="5" stroke-linecap="round"/><path d="M391.89641,90.16239c0,0 -2.4648,-8.19704 -2.16288,-11.31684c0.14017,-1.44845 -0.36231,-5.241 0.59333,-8.09399c1.47039,-4.38971 4.23622,-7.25584 4.23622,-7.25584" fill="none" stroke="#9edc8f" stroke-width="6.5" stroke-linecap="round"/><path d="M330.55386,97.60184c-1.15353,1.02208 -1.85437,2.63798 -2.93532,4.21277c0,0 -1.42302,2.05548 -3.4785,0.63246c-0.58017,-0.40166 -0.88322,-0.8537 -1.01936,-1.29568c-1.75452,-1.76511 0.00795,-3.52757 0.00795,-3.52757l1.33334,-1.33333c0.54858,-0.53378 1.37866,-1.26628 2.31761,-1.95331c0.82468,-0.95279 1.74109,-1.77136 2.75915,-2.2261c1.18107,-0.52756 2.56113,-0.36552 3.84169,-0.54828l0.40875,0.25768l0.0469,-0.18758l2.61593,0.65398c1.1133,0.25265 1.94439,1.24828 1.94439,2.43804c0,1.18976 -0.8311,2.18539 -1.94439,2.43804l-2.61593,0.65399l-0.02652,-0.10609c-0.14102,0.0628 -0.28397,0.12171 -0.42912,0.17619c-0.77801,0.292 -1.63855,-0.40673 -2.46784,-0.35334c-0.1201,0.00773 -0.23985,0.03133 -0.35872,0.06814z" fill="#9edc8f" stroke="none" stroke-width="0.5" stroke-linecap="butt"/><path d="M322.20041,76.95096c-0.41709,0.58828 -1.16496,1.15126 -2.46096,0.89206c-1.73257,-0.34651 -1.99574,-1.67262 -2.0011,-2.42059c-0.15406,-0.77602 0.07552,-1.36492 0.40223,-1.79058l0.38816,-1.36005c0.76467,-0.98225 1.25723,-2.25781 2.29402,-2.94673c3.01603,-2.00407 6.3538,-1.61214 9.41978,-0.43351h0.25804l0.03925,-0.31402l2.63377,0.32922c1.25027,0.13791 2.22281,1.19778 2.22281,2.4848c0,1.38071 -1.11929,2.5 -2.5,2.5h-2.46076c-2.90055,0.65251 -5.49546,1.90778 -8.23523,3.0594z" fill="#a5e998" stroke="none" stroke-width="0.5" stroke-linecap="butt"/><path d="M394.22974,93.55826l-0.97676,-0.01931c-1.66433,-0.21126 -3.34556,-0.31726 -5.02324,-0.31403c0,0 -1.02855,0 -1.76619,-0.65973c-0.29924,-0.00482 -0.59934,-0.00731 -0.90048,-0.00693c0,0 -2.5,0 -2.5,-2.5c0,-2.5 2.5,-2.5 2.5,-2.5c3.26711,0.0038 6.41232,0.33885 9.66667,0.33333h2.33333c0,0 2.5,0 2.5,2.5c0,2.5 -2.5,2.5 -2.5,2.5h-1.55944c-0.73816,0.66666 -1.7739,0.66667 -1.7739,0.66667z" fill="#9edc8f" stroke="none" stroke-width="0.5" stroke-linecap="butt"/><path d="M378.72974,114.05826c-2,-1.5 -0.5,-3.5 -0.5,-3.5l2.0152,-2.1312c1.36833,-0.51524 2.47819,-1.67203 3.31813,-2.8688c0,0 0.52609,-0.70146 1.37056,-0.96197c0.66526,-1.76341 1.06153,-3.51546 2.53717,-5.23973c1.09105,-1.27488 1.62954,-3.75074 3.30695,-3.79548c0.10023,-0.00267 4.59166,4.44671 5.55308,5.39608l1.51774,1.87269c0,0 1.56174,1.95217 -0.39043,3.51391c-1.95217,1.56174 -3.51391,-0.39044 -3.51391,-0.39044l-1.14893,-1.46063c-0.53292,-0.53845 -1.22713,-0.96599 -1.72917,-1.52567c-0.35607,0.34431 -0.77839,0.65515 -1.03817,1.06422c-0.92669,1.45924 -0.77462,3.41916 -1.62272,4.92543c-0.94343,1.67559 -2.46953,3.01498 -3.22431,4.78359c0,0 -1.01534,2.28453 -3.29987,1.26919c-0.35538,-0.15794 -0.6309,-0.3466 -0.84283,-0.5526c-0.60679,0.24253 -1.40682,0.27765 -2.30849,-0.3986z" fill="#7dae71" stroke="none" stroke-width="0.5" stroke-linecap="butt"/><path d="M338.8302,109.97881c-1.92055,1.60046 -3.52102,-0.32009 -3.52102,-0.32009l-1.49363,-1.86671c-0.05978,0.17911 -0.11536,0.35865 -0.16046,0.53926c0,0 -0.60634,2.42535 -3.0317,1.81901c-2.42536,-0.60634 -1.81901,-3.03169 -1.81901,-3.03169c0.43101,-1.72212 1.35516,-8.66462 2.50601,-9.05182c4.9153,-1.65371 5.79998,4.44103 6.48176,6.85959l1.35814,1.53144c0,0 1.60046,1.92055 -0.32009,3.52101z" fill="#7dae71" stroke="none" stroke-width="0.5" stroke-linecap="butt"/><path d="M323.91593,100.9897c0,19.0729 -15.79776,34.53453 -35.28528,34.53453c-19.48753,0 -35.28528,-15.46164 -35.28528,-34.53453c0,-19.0729 15.79776,-34.53453 35.28528,-34.53453c19.48753,0 35.28528,15.46164 35.28528,34.53453z" fill="#597d51" stroke="none" stroke-width="0" stroke-linecap="butt"/><path d="M276.37836,92.49121c0,19.0729 -15.79776,34.53454 -35.28529,34.53454c-19.48753,0 -35.28528,-15.46164 -35.28528,-34.53454c0,-19.0729 15.79776,-34.53453 35.28528,-34.53453c19.48752,0 35.28529,15.46163 35.28529,34.53453z" fill="#597d51" stroke="none" stroke-width="0" stroke-linecap="butt"/><path d="M270.86788,64.45818c0,19.0729 -15.79776,34.53454 -35.28528,34.53454c-19.48753,0 -35.28529,-15.46164 -35.28529,-34.53454c0,-19.0729 15.79776,-34.53453 35.28529,-34.53453c19.48753,0 35.28528,15.46163 35.28528,34.53453z" fill="#7dae71" stroke="#648b5a" stroke-width="4" stroke-linecap="butt"/><path d="M226.33334,98.00171c0,19.0729 -15.79776,34.53454 -35.28528,34.53454c-19.48753,0 -35.28529,-15.46164 -35.28529,-34.53454c0,-19.0729 15.79776,-34.53453 35.28529,-34.53453c19.48753,0 35.28528,15.46163 35.28528,34.53453z" fill="#7dae71" stroke="#597d51" stroke-width="2.5" stroke-linecap="butt"/><path d="M277.22972,20.76844c0,19.91572 -16.64942,36.0606 -37.1875,36.0606c-20.53808,0 -37.1875,-16.14488 -37.1875,-36.0606c0,-19.91572 16.64942,-36.06061 37.1875,-36.06061c20.53808,0 37.1875,16.14489 37.1875,36.06061z" fill="#9edc8f" stroke="#82b575" stroke-width="4" stroke-linecap="butt"/><path d="M334.42643,64.95364c0,19.0729 -15.79776,34.53453 -35.28528,34.53453c-19.48753,0 -35.28528,-15.46164 -35.28528,-34.53453c0,-19.0729 15.79776,-34.53453 35.28528,-34.53453c19.48753,0 35.28528,15.46164 35.28528,34.53453z" fill="#7dae71" stroke="#658c5b" stroke-width="4" stroke-linecap="butt"/><path d="M219.32132,66.96564c0,19.0729 -15.79776,34.53454 -35.28528,34.53454c-19.48753,0 -35.28528,-15.46164 -35.28528,-34.53454c0,-19.0729 15.79776,-34.53453 35.28528,-34.53453c19.48753,0 35.28528,15.46163 35.28528,34.53453z" fill="#7dae71" stroke="#7bae71" stroke-width="4" stroke-linecap="butt"/><path d="M334.22972,25.82904c0,17.67311 -14.77461,32 -33,32c-18.22539,0 -33,-14.32689 -33,-32c0,-17.67311 14.77461,-32 33,-32c18.22539,0 33,14.32689 33,32z" fill="#9edc8f" stroke="#82b575" stroke-width="4" stroke-linecap="butt"/><path d="M210.22973,37.82904c0,17.67311 -14.77461,32 -33,32c-18.22539,0 -33,-14.32689 -33,-32c0,-17.67311 14.77461,-32 33,-32c18.22539,0 33,14.32689 33,32z" fill="#9edc8f" stroke="#82b575" stroke-width="4" stroke-linecap="butt"/><path d="M228.19371,91.48653l-10.96397,-14.40748c0,0 1.36765,-9.32837 0.5934,-16.12456c-0.72211,-6.33856 -6.0934,-9.37544 -6.0934,-9.37544" fill="none" stroke="#7dae71" stroke-width="2.5" stroke-linecap="round"/><path d="M266.89641,75.57904c0,0 -2.90741,-7.10183 -2.27264,-11.22784c0.58546,-3.8055 4.26472,-10.38679 5.56315,-14.42573c0.43071,-1.3398 -0.95718,1.15357 -0.95718,1.15357" fill="none" stroke="#7dae71" stroke-width="7" stroke-linecap="round"/><path d="M203.56308,18.16235c0,0 2.84611,5.16166 5.10383,8.80874c2.05688,3.32265 1.56284,14.19126 1.56284,14.19126" fill="none" stroke="#9edc8f" stroke-width="5" stroke-linecap="round"/><path d="M270.89641,36.16238c0,0 -2.4648,-8.19704 -2.16288,-11.31684c0.14017,-1.44845 -0.36231,-5.241 0.59333,-8.09399c1.47039,-4.38971 4.23622,-7.25584 4.23622,-7.25584" fill="none" stroke="#9edc8f" stroke-width="6.5" stroke-linecap="round"/><path d="M209.55387,43.60183c-1.15354,1.02208 -1.85437,2.63798 -2.93532,4.21277c0,0 -1.42303,2.05548 -3.47851,0.63246c-0.58017,-0.40165 -0.88321,-0.85369 -1.01935,-1.29568c-1.75452,-1.76511 0.00794,-3.52757 0.00794,-3.52757l1.33334,-1.33333c0.54857,-0.53379 1.37866,-1.26628 2.31762,-1.95331c0.82468,-0.9528 1.74109,-1.77136 2.75915,-2.2261c1.18107,-0.52755 2.56113,-0.36552 3.84169,-0.54828l0.40876,0.25768l0.0469,-0.18758l2.61593,0.65398c1.1133,0.25265 1.9444,1.24829 1.9444,2.43804c0,1.18975 -0.8311,2.18539 -1.9444,2.43804l-2.61593,0.65398l-0.02652,-0.10609c-0.14102,0.0628 -0.28397,0.12171 -0.42913,0.17619c-0.77801,0.292 -1.63855,-0.40673 -2.46783,-0.35334c-0.1201,0.00773 -0.23986,0.03133 -0.35872,0.06814z" fill="#9edc8f" stroke="none" stroke-width="0.5" stroke-linecap="butt"/><path d="M201.20041,22.95097c-0.41709,0.58828 -1.16496,1.15126 -2.46096,0.89206c-1.73257,-0.34652 -1.99574,-1.67262 -2.0011,-2.42058c-0.15405,-0.77602 0.07551,-1.36492 0.40223,-1.79058l0.38816,-1.36005c0.76467,-0.98224 1.25723,-2.25782 2.29402,-2.94673c3.01603,-2.00407 6.3538,-1.61214 9.41978,-0.43351h0.25804l0.03925,-0.31403l2.63376,0.32922c1.25027,0.13791 2.22282,1.19778 2.22282,2.48481c0,1.38071 -1.11929,2.5 -2.5,2.5h-2.46076c-2.90055,0.65251 -5.49546,1.90777 -8.23523,3.05939z" fill="#9edc8f" stroke="none" stroke-width="0.5" stroke-linecap="butt"/><path d="M273.22972,39.55822l-0.97676,-0.0193c-1.66433,-0.21126 -3.34556,-0.31726 -5.02324,-0.31403c0,0 -1.02855,0 -1.76619,-0.65973c-0.29924,-0.00482 -0.59934,-0.00731 -0.90048,-0.00693c0,0 -2.5,0 -2.5,-2.5c0,-2.5 2.5,-2.5 2.5,-2.5c3.26711,0.0038 6.41232,0.33886 9.66667,0.33333h2.33333c0,0 2.5,0 2.5,2.5c0,2.5 -2.5,2.5 -2.5,2.5h-1.55944c-0.73816,0.66667 -1.7739,0.66667 -1.7739,0.66667z" fill="#9edc8f" stroke="none" stroke-width="0.5" stroke-linecap="butt"/><path d="M257.72972,60.05826c-2,-1.5 -0.5,-3.5 -0.5,-3.5l2.0152,-2.13119c1.36833,-0.51523 2.47819,-1.67203 3.31813,-2.86881c0,0 0.52609,-0.70146 1.37056,-0.96197c0.66526,-1.76342 1.06153,-3.51547 2.53717,-5.23974c1.09105,-1.27488 1.62954,-3.75074 3.30695,-3.79548c0.10023,-0.00268 4.59166,4.44671 5.55308,5.39608l1.51774,1.8727c0,0 1.56174,1.95217 -0.39043,3.51391c-1.95217,1.56174 -3.51391,-0.39043 -3.51391,-0.39043l-1.14893,-1.46064c-0.53292,-0.53845 -1.22713,-0.96598 -1.72917,-1.52566c-0.35607,0.34431 -0.77839,0.65515 -1.03817,1.06422c-0.92669,1.45923 -0.77462,3.41915 -1.62272,4.92542c-0.94343,1.67559 -2.46953,3.01499 -3.22431,4.7836c0,0 -1.01534,2.28453 -3.29987,1.26919c-0.35538,-0.15794 -0.6309,-0.34661 -0.84283,-0.5526c-0.60679,0.24253 -1.40682,0.27766 -2.30849,-0.3986z" fill="#7dae71" stroke="none" stroke-width="0.5" stroke-linecap="butt"/><path d="M217.83019,55.9788c-1.92056,1.60046 -3.52101,-0.32009 -3.52101,-0.32009l-1.49363,-1.86671c-0.05979,0.1791 -0.11535,0.35865 -0.16046,0.53926c0,0 -0.60634,2.42536 -3.0317,1.81902c-2.42535,-0.60634 -1.81902,-3.03169 -1.81902,-3.03169c0.43101,-1.72212 1.68849,-7.33129 2.83935,-7.71849c4.9153,-1.65371 5.46665,3.10769 6.14843,5.52626l1.35814,1.53144c0,0 1.60046,1.92055 -0.3201,3.52101z" fill="#7dae71" stroke="none" stroke-width="0.5" stroke-linecap="butt"/><path d="M175.91593,149.9897c0,19.07289 -15.79776,34.53454 -35.28529,34.53454c-19.48753,0 -35.28528,-15.46164 -35.28528,-34.53454c0,-19.07289 15.79776,-34.53453 35.28529,-34.53453c19.48753,0 35.28529,15.46164 35.28529,34.53453z" fill="#597d51" stroke="none" stroke-width="0" stroke-linecap="butt"/><path d="M128.37838,141.4912c0,19.07289 -15.79776,34.53453 -35.28528,34.53453c-19.48753,0 -35.28528,-15.46164 -35.28528,-34.53453c0,-19.0729 15.79776,-34.53453 35.28529,-34.53453c19.48753,0 35.28529,15.46164 35.28529,34.53453z" fill="#597d51" stroke="none" stroke-width="0" stroke-linecap="butt"/><path d="M122.86788,113.45818c0,19.07289 -15.79776,34.53454 -35.28528,34.53454c-19.48753,0 -35.28528,-15.46164 -35.28528,-34.53454c0,-19.0729 15.79776,-34.53453 35.28528,-34.53453c19.48753,0 35.28529,15.46164 35.28529,34.53453z" fill="#7dae71" stroke="#658c5b" stroke-width="4" stroke-linecap="butt"/><path d="M78.33334,147.00171c0,19.07289 -15.79776,34.53454 -35.28528,34.53454c-19.48753,0 -35.28528,-15.46164 -35.28528,-34.53454c0,-19.0729 15.79776,-34.53453 35.28529,-34.53453c19.48753,0 35.28529,15.46163 35.28529,34.53453z" fill="#597d51" stroke="none" stroke-width="0" stroke-linecap="butt"/><path d="M129.22973,69.76843c0,19.91572 -16.64941,36.0606 -37.1875,36.0606c-20.53808,0 -37.1875,-16.14489 -37.1875,-36.0606c0,-19.91572 16.64942,-36.06061 37.1875,-36.06061c20.53808,0 37.1875,16.14489 37.1875,36.06061z" fill="#9edc8f" stroke="#82b575" stroke-width="4" stroke-linecap="butt"/><path d="M186.42644,113.95366c0,19.07289 -15.79776,34.53454 -35.28528,34.53454c-19.48753,0 -35.28528,-15.46164 -35.28528,-34.53454c0,-19.0729 15.79776,-34.53453 35.28529,-34.53453c19.48753,0 35.28528,15.46164 35.28528,34.53453z" fill="#7dae71" stroke="#658c5b" stroke-width="4" stroke-linecap="butt"/><path d="M71.3213,115.96568c0,19.07289 -15.79776,34.53454 -35.28528,34.53454c-19.48753,0 -35.28528,-15.46164 -35.28528,-34.53454c0,-19.0729 15.79776,-34.53453 35.28529,-34.53453c19.48753,0 35.28529,15.46163 35.28529,34.53453z" fill="#7dae71" stroke="#658c5b" stroke-width="4" stroke-linecap="butt"/><path d="M186.22973,74.82904c0,17.67311 -14.77461,32 -33,32c-18.22539,0 -33,-14.32689 -33,-32c0,-17.67311 14.7746,-32 33,-32c18.22539,0 33,14.32689 33,32z" fill="#9edc8f" stroke="#82b575" stroke-width="4" stroke-linecap="butt"/><path d="M62.22973,86.82904c0,17.67311 -14.77461,32 -33,32c-18.22539,0 -33,-14.32689 -33,-32c0,-17.67311 14.77461,-32 33,-32c18.22539,0 33,14.32689 33,32z" fill="#9edc8f" stroke="#82b575" stroke-width="4" stroke-linecap="butt"/><path d="M61.48676,295.0304c0,0 8.01129,-87.63517 0.88264,-119.83723c-4.36619,-19.72328 -39.59462,-55.03522 -39.59462,-55.03522c0,0 6.17002,-12.4942 18.22722,-2.26589c8.30731,7.04722 21.58808,38.08231 28.74118,37.92139c5.71868,-0.12866 -1.74424,-52.37417 6.84644,-55.38168c5.63989,-1.97447 20.14804,-6.16488 23.79094,6.91049c4.06274,14.58223 -2.69217,46.8102 5.16832,48.71803c5.46654,1.32679 29.56696,-37.94092 35.72036,-41.09187c19.42767,-9.94826 21.14519,2.04813 21.14519,2.04813c0,0 -47.28473,39.21341 -51.42147,58.94044c-6.8648,32.73637 14.09206,119.07343 14.09206,119.07343c0,0 -22.36169,7.32998 -33.1817,7.32998c-10.35936,0 -30.41655,-7.32998 -30.41655,-7.32998z" fill="#b08566" stroke="#765945" stroke-width="2.5" stroke-linecap="butt"/><path d="M196.44615,305.95564c0,0 18.51392,-119.96726 14.81246,-164.93429c-2.26709,-27.54163 -34.91317,-79.25799 -34.91317,-79.25799c0,0 9.47785,-13.00453 19.27416,-1.67158c12.29817,14.22726 26.21916,53.49567 35.23385,53.98561c8.11932,0.44127 25.21637,-41.38891 37.4139,-47.02228c4.18348,-1.93212 11.80689,-1.20234 7.34413,9.43855c-5.46842,13.03875 -23.47715,36.76113 -19.09003,36.96248c7.50119,0.34426 30.29718,-35.2101 43.95325,-45.41897c15.68106,-11.7227 21.86446,1.66079 21.86446,1.66079c0,0 -53.85878,49.84398 -60.4598,76.64423c-10.95418,44.47414 0.89313,165.19732 0.89313,165.19732c0,0 -24.17063,8.1298 -35.45476,7.17982c-10.80374,-0.90954 -30.87156,-12.76368 -30.87156,-12.76368z" fill="#b08566" stroke="#765945" stroke-width="2.5" stroke-linecap="butt"/><path d="M353.61902,287.13962c0,0 1.92717,-79.21208 -5.54455,-107.98416c-1.72002,-6.62343 -36.67573,-18.00655 -49.37418,-37.0194c-12.69845,-19.01285 20.29552,4.08149 26.00203,2.02526c4.26598,-1.53716 1.81525,-7.20468 1.81525,-7.20468c0,0 -11.51531,-25.29683 -7.01943,-25.9068c3.81253,-0.51726 3.90586,-8.22004 15.47644,-7.0251c2.27806,0.23526 5.93267,6.09475 8.45984,11.01968c2.86556,5.58439 10.64111,10.91007 11.74665,8.55327c7.84732,-16.72898 16.69013,-34.50595 26.13492,-35.77782c3.86505,-0.52048 13.609,1.69784 11.42182,11.21262c-2.48833,10.82483 -17.04564,29.33316 -13.21361,32.65749c5.82437,5.0527 19.77634,-12.16068 29.59786,-15.27104c10.75404,-3.40568 17.15959,7.0022 17.15959,7.0022c0,0 -36.35121,36.89728 -38.67996,54.80583c-3.86449,29.71864 17.66564,106.79823 17.66564,106.79823c0,0 -17.77701,7.34664 -26.56397,7.70637c-8.41287,0.34441 -25.08435,-5.59193 -25.08435,-5.59193z" fill="#b08566" stroke="#765945" stroke-width="2.5" stroke-linecap="butt"/><path d="M454.82682,279.56623c0,0 10.99417,-116.84479 1.21128,-159.78009c-5.99188,-26.29723 -54.33706,-73.37897 -54.33706,-73.37897c0,0 7.70781,-5.59008 23.53535,-3.29794c11.29549,1.63581 27.46322,7.82827 44.5584,20.46128c7.37456,5.44966 28.36084,-22.74861 24.16643,-11.02621c-13.7006,38.28987 18.89579,9.36325 36.00687,-2.7828c11.0746,-7.86114 15.31723,5.71573 15.31723,5.71573c0,0 -16.84241,39.02508 -22.51941,65.32732c-9.4208,43.64771 19.33902,158.76171 19.33902,158.76171c0,0 -30.68773,9.77313 -45.5364,9.77313c-14.21652,0 -41.74168,-9.77313 -41.74168,-9.77313z" fill="#b08566" stroke="#765945" stroke-width="3" stroke-linecap="butt"/><path d="M63.72973,100.57904c0,0 5.37129,3.03688 6.0934,9.37544c0.77425,6.79618 -0.5934,16.12456 -0.5934,16.12456" fill="none" stroke="#7dae71" stroke-width="7" stroke-linecap="round"/><path d="M118.89639,124.57904c0,0 -2.90741,-7.10183 -2.27264,-11.22784c0.58546,-3.8055 4.26472,-10.38681 5.56315,-14.42574c0.43072,-1.33979 -0.95717,1.15358 -0.95717,1.15358" fill="none" stroke="#7dae71" stroke-width="7" stroke-linecap="round"/><path d="M55.56307,67.16237c0,0 2.84611,5.16166 5.10383,8.80874c2.05688,3.32265 1.56284,14.19126 1.56284,14.19126" fill="none" stroke="#9edc8f" stroke-width="5" stroke-linecap="round"/><path d="M122.8964,85.16239c0,0 -2.4648,-8.19704 -2.16289,-11.31684c0.14017,-1.44845 -0.36231,-5.241 0.59334,-8.09399c1.47039,-4.38972 4.23622,-7.25584 4.23622,-7.25584" fill="none" stroke="#9edc8f" stroke-width="6.5" stroke-linecap="round"/><path d="M61.55387,92.60184c-1.15353,1.02208 -1.85437,2.63798 -2.93532,4.21277c0,0 -1.42302,2.05548 -3.4785,0.63246c-0.58017,-0.40166 -0.88321,-0.8537 -1.01935,-1.29568c-1.75452,-1.76511 0.00794,-3.52757 0.00794,-3.52757l1.33333,-1.33333c0.54857,-0.53378 1.37866,-1.26628 2.31762,-1.95331c0.82469,-0.95279 1.7411,-1.77136 2.75915,-2.2261c1.18107,-0.52756 2.56112,-0.36552 3.84169,-0.54828l0.40875,0.25768l0.0469,-0.18758l2.61593,0.65398c1.1133,0.25265 1.9444,1.24828 1.9444,2.43804c0,1.18976 -0.8311,2.18539 -1.94439,2.43804l-2.61593,0.65399l-0.02653,-0.10609c-0.14102,0.0628 -0.28397,0.12171 -0.42912,0.17619c-0.77801,0.292 -1.63855,-0.40673 -2.46784,-0.35334c-0.1201,0.00773 -0.23985,0.03133 -0.35872,0.06814z" fill="#9edc8f" stroke="none" stroke-width="0.5" stroke-linecap="butt"/><path d="M53.2004,71.95096c-0.41709,0.58828 -1.16497,1.15126 -2.46096,0.89206c-1.73257,-0.34651 -1.99574,-1.67262 -2.0011,-2.42059c-0.15405,-0.77602 0.07551,-1.36492 0.40223,-1.79058l0.38816,-1.36005c0.76467,-0.98225 1.25723,-2.25781 2.29401,-2.94673c3.01603,-2.00407 6.3538,-1.61214 9.41978,-0.43351h0.25804l0.03925,-0.31403l2.63377,0.32922c1.25028,0.13791 2.22281,1.19778 2.22281,2.4848c0,1.38071 -1.11929,2.5 -2.5,2.5h-2.46076c-2.90055,0.65251 -5.49546,1.90778 -8.23523,3.0594z" fill="#9edc8f" stroke="none" stroke-width="0.5" stroke-linecap="butt"/><path d="M125.22973,88.55826l-0.97675,-0.01931c-1.66433,-0.21126 -3.34557,-0.31726 -5.02325,-0.31403c0,0 -1.02856,0 -1.76619,-0.65973c-0.29924,-0.00482 -0.59933,-0.00731 -0.90048,-0.00693c0,0 -2.5,0 -2.5,-2.5c0,-2.5 2.5,-2.5 2.5,-2.5c3.26711,0.0038 6.41232,0.33885 9.66667,0.33333h2.33333c0,0 2.5,0 2.5,2.5c0,2.5 -2.5,2.5 -2.5,2.5h-1.55943c-0.73816,0.66666 -1.7739,0.66667 -1.7739,0.66667z" fill="#9edc8f" stroke="none" stroke-width="0.5" stroke-linecap="butt"/><path d="M109.72973,109.05826c-2,-1.5 -0.5,-3.5 -0.5,-3.5l2.0152,-2.1312c1.36832,-0.51524 2.47819,-1.67203 3.31813,-2.8688c0,0 0.52609,-0.70146 1.37056,-0.96197c0.66526,-1.76341 1.06153,-3.51546 2.53717,-5.23973c1.09105,-1.27488 1.62954,-3.75074 3.30695,-3.79548c0.10022,-0.00267 4.59166,4.44671 5.55308,5.39608l1.51774,1.87269c0,0 1.56173,1.95217 -0.39043,3.51391c-1.95217,1.56174 -3.51391,-0.39044 -3.51391,-0.39044l-1.14893,-1.46063c-0.53292,-0.53845 -1.22713,-0.96599 -1.72917,-1.52567c-0.35607,0.34431 -0.77839,0.65515 -1.03817,1.06422c-0.92669,1.45924 -0.77463,3.41916 -1.62272,4.92543c-0.94343,1.67559 -2.46953,3.01498 -3.22431,4.78359c0,0 -1.01534,2.28453 -3.29987,1.26919c-0.35538,-0.15794 -0.6309,-0.3466 -0.84283,-0.5526c-0.60679,0.24253 -1.40682,0.27765 -2.30849,-0.3986z" fill="#7dae71" stroke="none" stroke-width="0.5" stroke-linecap="butt"/><path d="M69.83019,104.97881c-1.92055,1.60046 -3.52102,-0.32009 -3.52102,-0.32009l-1.49363,-1.86671c-0.05979,0.17911 -0.11535,0.35865 -0.16046,0.53926c0,0 -0.60634,2.42535 -3.03169,1.81901c-2.42536,-0.60634 -1.81902,-3.03169 -1.81902,-3.03169c0.43101,-1.72212 1.68849,-7.33129 2.83935,-7.71849c4.9153,-1.65371 5.46665,3.1077 6.14843,5.52626l1.35814,1.53144c0,0 1.60046,1.92055 -0.32009,3.52101z" fill="#7dae71" stroke="none" stroke-width="0.5" stroke-linecap="butt"/><path d="M161.38891,294.18736c0,19.32997 -27.74311,24.33334 -65.66667,24.33334c-37.92356,0 -71.66666,-5.00337 -71.66666,-24.33334c0,-4.32956 2.87282,-7.19673 3.92667,-11.68389c0.93844,-3.99574 -0.11759,-9.69012 2.61825,-12.4352c2.94513,-2.95508 7.68946,-2.08614 13.29095,-4.87428c2.87593,-1.4315 6.49925,-9.34162 12.88638,-10.44169c6.38712,-1.10007 17.22142,4.75236 23.43736,4.18556c3.00301,-0.27383 7.83659,-7.59005 12.84038,-5.41716c1.2325,0.53521 5.51263,3.41986 13.07722,4.0098c3.10719,0.24232 8.70819,-3.50475 11.82933,-2.29575c3.18238,1.23271 6.44394,7.40066 9.68009,9.10461c1.8187,0.95761 9.9306,-4.76193 14.08014,-1.09177c1.55056,1.37143 3.95581,4.61359 8.16538,6.58669c2.26683,1.0625 6.81025,2.62693 8.48728,5.13991c3.54301,5.3091 3.01389,15.17534 3.01389,19.21318z" fill="#93cd93" stroke="#6f9a6f" stroke-width="2.5" stroke-linecap="butt"/><path d="M311.29922,291.34038c0,21.98994 -31.56081,27.68182 -74.703,27.68182c-43.14218,0 -81.52865,-5.69188 -81.52865,-27.68182c0,-4.92534 3.26814,-8.18707 4.46702,-13.2917c1.06758,-4.54559 -0.13377,-11.02357 2.97855,-14.1464c3.3504,-3.36172 8.7476,-2.3732 15.11991,-5.54503c3.27169,-1.62849 7.39362,-10.62711 14.65966,-11.87856c7.26604,-1.25145 19.59125,5.40632 26.66255,4.76153c3.41625,-0.31151 8.91497,-8.63451 14.60734,-6.16261c1.40211,0.60886 6.27122,3.89047 14.87677,4.56158c3.53476,0.27567 9.90651,-3.98703 13.45715,-2.61167c3.6203,1.40235 7.33068,8.41906 11.01216,10.35748c2.06897,1.08938 11.29715,-5.41721 16.0177,-1.24201c1.76393,1.56015 4.50016,5.24847 9.28901,7.49308c2.57876,1.20871 7.7474,2.98842 9.6552,5.84721c4.03057,6.03967 3.42863,17.26361 3.42863,21.85709z" fill="#93cd93" stroke="#6f9a6f" stroke-width="2.5" stroke-linecap="butt"/><path d="M479.50898,290.87575c0,25.53659 -36.65109,32.14647 -86.75143,32.14647c-50.10034,0 -94.67795,-6.60989 -94.67795,-32.14647c0,-5.71972 3.79524,-9.50752 5.18748,-15.43545c1.23976,-5.27872 -0.15535,-12.8015 3.45894,-16.42799c3.89078,-3.90391 10.15845,-2.75597 17.55852,-6.43936c3.79937,-1.89114 8.5861,-12.3411 17.02404,-13.79439c8.43795,-1.45329 22.75101,6.27828 30.96281,5.5295c3.96724,-0.36175 10.35282,-10.02713 16.96328,-7.15655c1.62824,0.70706 7.28267,4.51794 17.27616,5.2973c4.10487,0.32013 11.50429,-4.63008 15.62758,-3.03289c4.2042,1.62853 8.513,9.77691 12.78825,12.02799c2.40267,1.26508 13.11921,-6.29092 18.60111,-1.44232c2.04843,1.81178 5.22597,6.09496 10.78718,8.70159c2.99467,1.40366 8.99693,3.47041 11.21243,6.79028c4.68063,7.01378 3.98162,20.04796 3.98162,25.3823z" fill="#93cd93" stroke="#6f9a6f" stroke-width="2.5" stroke-linecap="butt"/><path d="M633.04652,285.25635c0,27.60546 -39.62041,34.75085 -93.77969,34.75085c-54.15927,0 -102.34838,-7.1454 -102.34838,-34.75085c0,-6.18311 4.10272,-10.27778 5.60775,-16.68596c1.34021,-5.70638 -0.16793,-13.83863 3.73917,-17.75893c4.20599,-4.22019 10.98145,-2.97924 18.98104,-6.96105c4.10717,-2.04435 9.2817,-13.34092 18.40326,-14.91195c9.12156,-1.57103 24.59421,6.78692 33.47129,5.97747c4.28865,-0.39106 11.19156,-10.83949 18.33758,-7.73634c1.76016,0.76434 7.87269,4.88397 18.6758,5.72646c4.43743,0.34606 12.43631,-5.00519 16.89366,-3.2786c4.54481,1.76046 9.20269,10.569 13.8243,13.00244c2.59732,1.36757 14.18208,-6.80058 20.1081,-1.55917c2.21438,1.95857 5.64936,6.58875 11.66111,9.40657c3.23729,1.51738 9.72582,3.75156 12.12082,7.3404c5.05984,7.58201 4.30419,21.67217 4.30419,27.43867z" fill="#93cd93" stroke="#6f9a6f" stroke-width="2.5" stroke-linecap="butt"/><path d="M220.19371,82.48651l7,-6l-5,13l-5,-13l9,6" fill="none" stroke="#7dae71" stroke-width="2.5" stroke-linecap="round"/><path d="M243.19371,79.48651l-21,13" fill="none" stroke="#7dae71" stroke-width="2.5" stroke-linecap="round"/></g></g></svg>