<svg version="1.1" xmlns="http://www.w3.org/2000/svg" xmlns:xlink="http://www.w3.org/1999/xlink" width="62.216" height="63.36821" viewBox="0,0,62.216,63.36821"><g transform="translate(-209,-149.00679)"><g data-paper-data="{&quot;isPaintingLayer&quot;:true}" fill-rule="nonzero" stroke-linejoin="miter" stroke-miterlimit="10" stroke-dasharray="" stroke-dashoffset="0" style="mix-blend-mode: normal"><path d="M268.083,183.402c0,14.527 -12.525,26.307 -27.978,26.307c-15.453,0 -27.977,-11.775 -27.977,-26.307c0,-14.527 12.523,-21.275 27.977,-21.275c15.452,-0.001 27.978,6.749 27.978,21.275z" fill="#ec1c2c" stroke="none" stroke-width="1" stroke-linecap="butt"/><g stroke="none" stroke-linecap="butt"><path d="M271.216,183.121c0,16.156 -13.927,29.254 -31.109,29.254c-17.179,0 -31.107,-13.098 -31.107,-29.254c0,-14.238 10.821,-20.648 25.149,-21.972c0,0 4.528,-0.58 9.136,-0.189c15.684,0.73 27.931,7.017 27.931,22.161zM266.47,183.55c0,-12.602 -10.007,-18.984 -22.949,-19.92c0,0 -8.207,0.115 -8.456,0.144c-12.145,1.341 -21.314,7.71 -21.314,19.774c0,13.686 11.798,24.785 26.357,24.785c14.558,0 26.356,-11.097 26.362,-24.783z" fill="#765945" stroke-width="1"/><path d="M240.10799,208.383c-14.559,0 -26.40678,-11.1536 -26.40678,-24.8396c0,-12.064 9.20771,-18.47716 21.35271,-19.81816c0.249,-0.029 8.47462,-0.14467 8.47462,-0.14467c12.942,0.936 22.99125,7.36284 22.99125,19.96484c-0.006,13.686 -11.85379,24.83759 -26.41179,24.83759z" data-paper-data="{&quot;noHover&quot;:false,&quot;origItem&quot;:[&quot;Path&quot;,{&quot;applyMatrix&quot;:true,&quot;segments&quot;:[[[266.47,183.55],[-0.006,13.686],[0,-12.602]],[[243.521,163.63],[12.942,0.936],[0,0]],[[235.065,163.774],[0.249,-0.029],[-12.145,1.341]],[[213.751,183.548],[0,-12.064],[0,13.686]],[[240.108,208.333],[-14.559,0],[14.558,0]]],&quot;closed&quot;:true,&quot;fillColor&quot;:[0,0,0,1]}]}" fill="#ff4d4d" stroke-width="0.5"/><path d="M249.06,170.065c-3.568,0.181 -6.986,0.271 -10.561,0.672c-2.387,0.268 -4.687,0.289 -6.455,-1.514c-0.384,-0.395 0.118,-1.076 0.598,-0.773c1.182,0.741 2.373,1.041 3.571,1.099c0.078,0.064 4.274,-0.49 6.19,-1.098c2.312,-0.63 4.626,-1.15 6.929,-0.389c1.101,0.364 0.888,1.942 -0.272,2.003z" fill="#d44040" stroke-width="1"/></g><path d="M261.11282,169.79284c1.9217,2.23583 4.87405,5.91185 5.51589,9.93664c0.67073,4.20596 -1.01298,8.71608 -1.01298,8.71608c0,0 -3.96531,-12.33275 -7.89522,-16.90505c-3.92991,-4.5723 -15.83625,-7.81938 -15.83625,-7.81938c0,0 4.44571,-0.38127 9.25589,0.78332c3.95026,0.95639 8.20059,3.22666 9.97266,5.28841z" fill="#fa7272" stroke="none" stroke-width="0" stroke-linecap="butt"/><g stroke="none" stroke-linecap="butt"><path d="M233.116,153.686c1.021,-0.61 2.039,-1.222 3.059,-1.833c0.734,1.128 1.472,2.229 2.064,3.482c2.162,4.564 1.686,9.385 1.624,14.212c-0.375,0.089 -0.977,0.153 -1.348,0.219c0.258,-6.148 -1.205,-11.784 -5.399,-16.08z" fill="#99661d" stroke-width="1"/><path d="M242.297,167.438c0,0 -0.23,1.876 -0.251,2.23c0,0 -3.771,1.124 -5.25,0.562l-0.046,-1.609c0.03,-3.215 -0.97,-6.668 -1.562,-7.749c-0.283,-0.516 -1.423,-3.466 -4.9,-6.557c-0.596,-0.527 -0.395,-1.515 0.242,-1.898c1.807,-1.084 3.609,-2.168 5.414,-3.252c0.58,-0.347 1.265,-0.088 1.658,0.435c5.528,7.358 4.864,17.077 4.695,17.838zM239.761,168.152c0.112,-4.442 0.49,-8.57 -1.522,-12.817c-0.592,-1.253 -1.33,-2.354 -2.064,-3.482c-1.02,0.611 -2.038,1.223 -3.059,1.833c3.962,4.058 5.58,8.969 5.53,14.683v1.152l1.109,-0.141z" fill="#755a45" stroke-width="1"/><path d="M239.77258,169.4268l-1.11473,0.14277l-0.02537,-1.24871c0.05,-5.714 -1.57619,-10.6219 -5.53819,-14.6799c1.021,-0.61 2.05893,-1.22693 3.07893,-1.83793c0.734,1.128 1.48931,2.23144 2.08131,3.48444c2.012,4.247 1.63853,8.46832 1.52653,12.91032z" data-paper-data="{&quot;noHover&quot;:false,&quot;origItem&quot;:[&quot;Path&quot;,{&quot;applyMatrix&quot;:true,&quot;segments&quot;:[[[239.761,168.152],[0,0],[0.112,-4.442]],[[238.239,155.335],[2.012,4.247],[-0.592,-1.253]],[[236.175,151.853],[0.734,1.128],[-1.02,0.611]],[[233.116,153.686],[1.021,-0.61],[3.962,4.058]],[[238.646,168.369],[0.05,-5.714],[0,0]],[238.646,169.521],[239.755,169.38]],&quot;closed&quot;:true,&quot;fillColor&quot;:[0,0,0,1]}]}" fill="#753c16" stroke-width="0.5"/></g><path d="M254.33333,173.58333c0,-1.38071 1.11929,-2.5 2.5,-2.5c1.38071,0 2.5,1.11929 2.5,2.5c0,1.38071 -1.11929,2.5 -2.5,2.5c-1.38071,0 -2.5,-1.11929 -2.5,-2.5z" fill="#fafafa" stroke="none" stroke-width="0.5" stroke-linecap="butt"/><path d="M258.66667,196.75c0,0 3.24998,-6.64021 3.37226,-11.20534c0.12228,-4.56514 -2.87226,-7.46132 -2.87226,-7.46132" fill="none" stroke="#ffffff" stroke-width="2.5" stroke-linecap="round"/></g></g></svg>