<svg version="1.1" xmlns="http://www.w3.org/2000/svg" xmlns:xlink="http://www.w3.org/1999/xlink" width="44.67325" height="72.03027" viewBox="0,0,44.67325,72.03027"><g transform="translate(-217.66337,-143.98486)"><g data-paper-data="{&quot;isPaintingLayer&quot;:true}" stroke-linejoin="miter" stroke-miterlimit="10" stroke-dasharray="" stroke-dashoffset="0" style="mix-blend-mode: normal"><path d="M254.81486,216.00436c-16.6331,0.343 -28.5506,-7.5449 -33.9521,-18.0049c-6.6018,-12.8606 -3.3437,-37.9817 13.1179,-40.0394c0.0857,-1.4575 0.7716,-7.5449 1.7147,-11.6603l5.4015,-2.3149c3.0008,2.9151 4.1154,9.7741 -0.9431,15.69c1.9719,0.7716 4.5441,4.3726 3.6009,8.488c-1.8004,7.7164 -4.2011,14.4896 -0.6001,22.6347c2.9151,6.516 11.2316,9.8598 16.2044,15.4327c6.0873,6.7733 1.9719,9.5169 -4.5441,9.7741z" fill="#f5c879" fill-rule="evenodd" stroke="none" stroke-width="1" stroke-linecap="butt"/><path d="M238.86766,145.44236c1.7148,1.0289 3.6867,3.4295 3.5152,5.4015c-0.4286,0.5144 -4.6298,9.2597 -3.1722,10.0313c3.6867,1.8862 -1.8005,16.2044 0.2572,25.3783c2.8293,12.6891 13.8037,15.5185 18.1763,22.7204c2.4007,3.944 -1.9719,4.9728 -3.258,4.9728c-19.9768,-0.3429 -27.9504,-11.1459 -31.2085,-17.8334c-4.2868,-8.7452 -1.629,-19.5481 2.0577,-28.0362c0.7717,-1.7147 2.7436,-4.887 4.1154,-6.1731c2.2292,-1.8862 2.7436,-2.0577 5.6587,-2.3149c0.4287,-0.0857 3.8582,-14.1467 3.8582,-14.1467z" fill="#f5d49b" fill-rule="evenodd" stroke="none" stroke-width="1" stroke-linecap="butt"/><path d="M235.43816,162.58986c0.1715,-0.6001 1.0289,-0.3429 0.8574,0.1715c-5.23,17.4047 -3.0008,33.7806 8.9167,42.3543c2.4864,1.8005 7.4591,3.944 8.5737,4.3727c1.2004,0.4286 0.2572,1.1145 -0.8573,0.7716c-1.0289,-0.343 -1.8863,-0.6859 -3.4295,-1.3718c-12.8607,-5.8302 -23.6636,-15.347 -14.061,-46.2983z" fill="#f5c879" fill-rule="evenodd" stroke="none" stroke-width="1" stroke-linecap="butt"/><path d="M225.75,172.19089c0,-0.69036 0.55964,-1.25 1.25,-1.25c0.69036,0 1.25,0.55964 1.25,1.25c0,0.69036 -0.55964,1.25 -1.25,1.25c-0.69036,0 -1.25,-0.55964 -1.25,-1.25z" fill="#ffffff" fill-rule="nonzero" stroke="none" stroke-width="0.5" stroke-linecap="butt"/><path d="M227,175.52422c0,0 -2.1055,11.40003 0.18886,18.06799c2.29435,6.66796 10.47781,12.93201 10.47781,12.93201" fill="none" fill-rule="nonzero" stroke="#ffffff" stroke-width="2" stroke-linecap="round"/></g></g></svg>