<svg version="1.1" xmlns="http://www.w3.org/2000/svg" xmlns:xlink="http://www.w3.org/1999/xlink" width="126.33333" height="25" viewBox="0,0,126.33333,25"><g transform="translate(-176.16667,-170.16667)"><g data-paper-data="{&quot;isPaintingLayer&quot;:true}" fill-rule="nonzero" stroke-linejoin="miter" stroke-miterlimit="10" stroke-dasharray="" stroke-dashoffset="0" style="mix-blend-mode: normal"><path d="M184,193.66667c0,0 -6.33333,-7.70711 -6.33333,-12c0,-4.29289 6.33333,-10 6.33333,-10h111.66667c0,0 5.33333,6.1136 5.33333,10.66667c0,4.55307 -5.33333,11.33333 -5.33333,11.33333z" fill="#a7744d" stroke="#785437" stroke-width="3" stroke-linecap="butt"/><path d="M254,173.66667v0.33333l41.66667,-1c0,0 4,5.8363 4,8c0,2.05267 -5,11 -5,11c0,0 3.40795,-11.40898 -2.83392,-14.22294c-7.18149,-3.23756 -37.83275,-4.11039 -37.83275,-4.11039z" fill="#d19160" stroke="none" stroke-width="0" stroke-linecap="butt"/><path d="M291.5,177c0,-1.38071 1.11929,-2.5 2.5,-2.5c1.38071,0 2.5,1.11929 2.5,2.5c0,1.38071 -1.11929,2.5 -2.5,2.5c-1.38071,0 -2.5,-1.11929 -2.5,-2.5z" fill="#ffffff" stroke="none" stroke-width="0.5" stroke-linecap="butt"/><path d="M293,181.66667c0,0 0.22528,5.08611 -2.39449,6.66889c-2.71047,1.63758 -13.93884,1.33111 -13.93884,1.33111" fill="none" stroke="#ffffff" stroke-width="2.5" stroke-linecap="round"/></g></g></svg>