<svg version="1.1" xmlns="http://www.w3.org/2000/svg" xmlns:xlink="http://www.w3.org/1999/xlink" width="64.16667" height="59.5" viewBox="0,0,64.16667,59.5"><g transform="translate(-207.91667,-150.25)"><g data-paper-data="{&quot;isPaintingLayer&quot;:true}" fill-rule="nonzero" stroke-linecap="butt" stroke-linejoin="miter" stroke-miterlimit="10" stroke-dasharray="" stroke-dashoffset="0" style="mix-blend-mode: normal"><path d="M270.33333,180c0,15.46397 -13.5807,28 -30.33333,28c-16.75264,0 -30.33333,-12.53603 -30.33333,-28c0,-15.46397 13.5807,-28 30.33333,-28c16.75264,0 30.33333,12.53603 30.33333,28z" fill="#7fa9e0" stroke="#688bb7" stroke-width="3.5"/><path d="M224.75862,175.14523c0,2.11167 -0.31004,5.17165 -3.15803,6.50568c-2.28766,1.07157 -1.72963,4.18078 -3.17427,5.74012c-1.73075,1.86817 4.33614,8.14743 2.304,8.14743c-5.84001,0 -9.06366,-13.29439 -9.06366,-19.13439c0,-5.84001 5.5389,-10.07073 5.5389,-10.07073c0,0 1.23267,0.10444 2.82666,3.6645c1.06669,2.38236 4.72639,2.80609 4.72639,5.1474z" fill="#8eda9a" stroke="#79ba83" stroke-width="3.5"/><path d="M232.65217,189.23188c0,1.55257 -1.46446,2.69891 -1.98199,3.86758c-0.78983,1.78357 -0.91515,3.23387 -2.36584,3.23387c-1.14095,0 -1.08528,-2.16709 -1.92959,-3.34132c-0.93261,-1.29704 -2.70809,-1.70167 -2.70809,-3.76013c0,-1.62982 2.41519,-0.37254 3.03893,-1.39549c0.87724,-1.4387 0.19536,-4.83639 1.59875,-4.83639c1.46604,0 2.18289,1.44072 2.97046,3.00394c0.50239,0.9972 1.37737,1.70045 1.37737,3.22794z" fill="#8eda9a" stroke="#79ba83" stroke-width="2"/><path d="M266.34368,171.57138c0,8.66934 1.49204,1.81122 -7.09394,1.81122c-1.07298,0 -4.24239,3.36424 -4.05633,-0.65871c0.17411,-3.76448 -2.03617,-3.38985 -2.77535,-5.36385c-1.73067,-4.62181 -7.44787,-0.09557 -8.95114,-2.26597c-2.65903,-3.83906 -5.49901,4.03471 -5.49901,-0.16382c0,-8.66934 -2.39765,-10.26358 6.18833,-10.26358c8.58598,0 22.18744,8.23537 22.18744,16.90471z" fill="#8eda9a" stroke="#79ba83" stroke-width="3.5"/><path d="M263.66667,188c0,0.94144 -1.59353,1.15545 -2.04592,1.90736c-0.87456,1.45358 -1.1341,3.09264 -2.95408,3.09264c-1.56571,0 -1.16581,-0.71967 -2.54662,-1.84625c-1.0545,-0.86036 -4.12004,-1.95804 -4.12004,-3.15375c0,-1.38128 3.31044,-2.63173 4.63275,-3.53664c1.32123,-0.90417 0.9871,-1.79669 2.36725,-1.79669c1.58163,0 4.21573,0.84373 5.0385,2.08354c0.61373,0.92481 -0.37183,2.07001 -0.37183,3.2498z" fill="#8eda9a" stroke="#79ba83" stroke-width="3.5"/><path d="M231.33333,164.78999c0,1.85185 -0.90034,-0.17648 -2.83333,-0.17648c-1.933,0 -3.83333,-1.85418 -3.83333,-3.70603c0,-1.85185 -0.433,-1.23534 1.5,-1.23534c0.73395,0 2.32209,-0.23505 3.18286,0.80342c1.1607,1.40031 1.9838,3.16572 1.9838,4.31443z" fill="#f5f5f5" stroke="#dbdbdb" stroke-width="1.5"/><path d="M254.33333,204c0,1.65685 -6.91996,3.33333 -12.16667,3.33333c-5.24671,0 -11.5,-1.34315 -11.5,-3c0,-0.84844 0.97308,-1.94794 3.27775,-2.49363c1.62064,-0.38373 4.26652,1.52313 6.39603,1.50067c0.75597,-0.00798 1.15553,-2.00704 1.82623,-2.00704c1.58343,0 4.40971,-1.54433 5.72258,-1.32796c3.03732,0.50058 6.44409,2.8378 6.44409,3.99463z" fill="#f5f5f5" stroke="#dbdbdb" stroke-width="1.5"/></g></g></svg>