<svg version="1.1" xmlns="http://www.w3.org/2000/svg" xmlns:xlink="http://www.w3.org/1999/xlink" width="42.1275" height="64.13148" viewBox="0,0,42.1275,64.13148"><g transform="translate(-219.49516,-139.34464)"><g data-paper-data="{&quot;isPaintingLayer&quot;:true}" fill-rule="evenodd" stroke-linecap="butt" stroke-linejoin="miter" stroke-miterlimit="10" stroke-dasharray="" stroke-dashoffset="0" style="mix-blend-mode: normal"><g fill="#9bc762" stroke="#597338" stroke-width="2"><path d="M236.34157,151.80731c-1.04058,-2.76044 -2.02834,-7.50321 -0.57311,-10.25573c1.33638,-2.52493 3.67373,-0.89724 4.78826,3.10715c0.94022,3.36914 0.77119,8.92179 0.81345,10.09429c0.04754,1.29419 -0.10828,2.5619 -0.16375,3.84817c-0.0449,1.08515 0.34334,2.89283 -0.0449,3.87207c-1.94647,-3.40097 -3.44131,-7.0057 -4.81995,-10.66595z"/><path d="M241.18529,162.42031c-1.54238,0.07943 -3.4598,-1.48738 -4.64828,-2.3423c-0.63386,-0.45783 -8.52008,-6.83092 -10.66727,-9.99895c-0.96927,-1.42921 -1.88044,-2.85308 -1.64539,-4.64755c0.31429,-2.40575 1.95175,-2.95364 4.07253,-1.90553c3.28813,1.62505 6.03748,5.26418 7.7621,8.42421c0.85835,1.56945 1.67444,3.17602 2.54335,4.72692c0.83986,1.50594 2.62258,3.97263 2.58296,5.7432z"/><path d="M240.89477,162.3356c-0.10036,-1.1142 0.64178,-2.60429 0.89532,-3.68937c0.26411,-1.16187 0.52821,-2.30526 0.90325,-3.44065c0.70827,-2.33411 1.55222,-4.62471 2.5275,-6.86011c0.87683,-1.92937 1.81441,-4.07048 3.23003,-5.68232c1.20697,-1.37626 3.50206,-2.82924 5.16329,-1.16715c1.4341,1.43714 0.52821,4.40662 0.02113,6.08727c-0.70252,2.25494 -1.93326,4.09702 -3.33831,5.95495c-1.30997,1.73089 -7.62476,8.20725 -9.4022,8.7974z"/><path d="M241.12454,162.41238c0.72893,-0.95547 1.92534,-1.74944 2.8101,-2.59109c1.14622,-1.09036 2.31622,-2.15168 3.48093,-3.21827c1.69292,-1.54833 3.50206,-3.13627 5.87373,-3.44065c0.85835,-0.10855 2.41922,-0.16144 2.71502,0.90252c0.26411,0.97924 -1.02209,2.09879 -1.65595,2.62542c-0.94055,0.75099 -1.94746,1.41456 -3.00818,1.98239c-0.58896,0.33872 -7.63533,2.99332 -10.21565,3.73969z"/><path d="M240.95551,162.46263c-0.17959,-3.27915 0.20072,-6.49749 0.30636,-9.75551c0.01056,-1.69906 0.19821,-3.39239 0.55991,-5.05243c0.18487,-0.75693 1.12509,-3.44059 2.08644,-1.91616c0.55462,0.87604 0.20072,2.80019 0.16639,3.77679c-0.05018,1.4133 -0.06603,2.96156 -0.5467,4.31399c-0.31693,0.88132 -2.39809,8.64659 -2.5724,8.63332z"/></g><path d="M240.69669,202.47598c-2.60185,0.01241 -5.14559,-0.77053 -7.29199,-2.24431c-1.42618,-0.99251 -2.55127,-2.48789 -3.51526,-3.91703c-1.43938,-2.13583 -2.85235,-4.31669 -4.18081,-6.52661c-2.40529,-3.97692 -4.16503,-8.31144 -5.21347,-12.84153c-0.82401,-3.66825 -1.08284,-10.43565 2.71766,-12.70387c1.94647,-1.16715 4.83051,-1.83409 7.0358,-2.28934c1.90949,-0.39431 3.79257,-0.88925 5.75489,-1.05867c1.11981,-0.08993 2.25019,-0.19319 3.35944,-0.01849c0.85306,0.13496 1.26771,0.60606 1.88308,0.61134c0.11885,0 0.89268,-0.43135 1.10661,-0.48431c0.43525,-0.08544 0.8771,-0.13324 1.32053,-0.14295c1.41033,-0.08201 2.73615,0.14295 4.12007,0.35205c3.57336,0.52927 7.34217,1.89497 10.13906,4.25311c3.48885,2.94043 2.92102,7.43969 1.95439,11.4864c-1.05643,4.457 -4.83051,14.58833 -8.45142,19.50046c-3.6209,4.91219 -8.59403,6.03438 -10.73858,6.02375z" fill="#ff9c9c" stroke="#ff7676" stroke-width="2"/><path d="M236.57926,189.51011c0,-0.37419 0.29561,-0.67754 0.66027,-0.67754c0.36466,0 0.66027,0.30334 0.66027,0.67754c0,0.37419 -0.29561,0.67754 -0.66027,0.67754c-0.36466,0 -0.66027,-0.30334 -0.66027,-0.67754z" fill="#ff6b6b" stroke="none" stroke-width="1"/><path d="M249.16923,170.77719c0,-0.37419 0.29561,-0.67754 0.66027,-0.67754c0.36466,0 0.66027,0.30334 0.66027,0.67754c0,0.37419 -0.29561,0.67754 -0.66027,0.67754c-0.36466,0 -0.66027,-0.30334 -0.66027,-0.67754z" fill="#ff6b6b" stroke="none" stroke-width="1"/><path d="M247.096,167.62504c0,-0.37419 0.29561,-0.67754 0.66027,-0.67754c0.36466,0 0.66027,0.30334 0.66027,0.67754c0,0.37419 -0.29561,0.67754 -0.66027,0.67754c-0.36466,0 -0.66027,-0.30334 -0.66027,-0.67754z" fill="#ff6b6b" stroke="none" stroke-width="1"/><path d="M251.73899,167.93999c0,-0.37419 0.29561,-0.67754 0.66027,-0.67754c0.36466,0 0.66027,0.30334 0.66027,0.67754c0,0.37419 -0.29561,0.67754 -0.66027,0.67754c-0.36466,0 -0.66027,-0.30334 -0.66027,-0.67754z" fill="#ff6b6b" stroke="none" stroke-width="1"/><path d="M244.20667,164.45701c0,-0.37419 0.29561,-0.67754 0.66027,-0.67754c0.36466,0 0.66027,0.30334 0.66027,0.67754c0,0.37419 -0.29561,0.67754 -0.66027,0.67754c-0.36466,0 -0.66027,-0.30334 -0.66027,-0.67754z" fill="#ff6b6b" stroke="none" stroke-width="1"/><path d="M238.8004,166.15616c0,-0.37419 0.29561,-0.67754 0.66027,-0.67754c0.36466,0 0.66027,0.30334 0.66027,0.67754c0,0.37419 -0.29561,0.67754 -0.66027,0.67754c-0.36466,0 -0.66027,-0.30334 -0.66027,-0.67754z" fill="#ff6b6b" stroke="none" stroke-width="1"/><path d="M234.36605,165.69035c0,-0.37419 0.29561,-0.67754 0.66027,-0.67754c0.36466,0 0.66027,0.30334 0.66027,0.67754c0,0.37419 -0.29561,0.67754 -0.66027,0.67754c-0.36466,0 -0.66027,-0.30334 -0.66027,-0.67754z" fill="#ff6b6b" stroke="none" stroke-width="1"/><path d="M228.7485,165.56331c0,-0.37419 0.29561,-0.67754 0.66027,-0.67754c0.36466,0 0.66027,0.30334 0.66027,0.67754c0,0.37419 -0.29561,0.67754 -0.66027,0.67754c-0.36466,0 -0.66027,-0.30334 -0.66027,-0.67754z" fill="#ff6b6b" stroke="none" stroke-width="1"/><path d="M232.72859,171.11331c0,-0.37419 0.29561,-0.67754 0.66027,-0.67754c0.36466,0 0.66027,0.30334 0.66027,0.67754c0,0.37419 -0.29561,0.67754 -0.66027,0.67754c-0.36466,0 -0.66027,-0.30334 -0.66027,-0.67754z" fill="#ff6b6b" stroke="none" stroke-width="1"/><path d="M227.04501,170.78513c0,-0.37419 0.29561,-0.67754 0.66027,-0.67754c0.36466,0 0.66027,0.30334 0.66027,0.67754c0,0.37419 -0.29561,0.67754 -0.66027,0.67754c-0.36466,0 -0.66027,-0.30334 -0.66027,-0.67754z" fill="#ff6b6b" stroke="none" stroke-width="1"/><path d="M243.36681,191.03986c0,-0.37419 0.29561,-0.67754 0.66027,-0.67754c0.36466,0 0.66027,0.30334 0.66027,0.67754c0,0.37419 -0.29561,0.67754 -0.66027,0.67754c-0.36466,0 -0.66027,-0.30334 -0.66027,-0.67754z" fill="#ff6b6b" stroke="none" stroke-width="1"/><path d="M241.28301,170.07848c0,-0.37419 0.29561,-0.67754 0.66027,-0.67754c0.36466,0 0.66027,0.30334 0.66027,0.67754c0,0.37419 -0.29561,0.67754 -0.66027,0.67754c-0.36466,0 -0.66027,-0.30334 -0.66027,-0.67754z" fill="#ff6b6b" stroke="none" stroke-width="1"/><path d="M242.78841,174.42161c0,-0.37419 0.29561,-0.67754 0.66027,-0.67754c0.36466,0 0.66027,0.30334 0.66027,0.67754c0,0.37419 -0.29561,0.67754 -0.66027,0.67754c-0.36466,0 -0.66027,-0.30334 -0.66027,-0.67754z" fill="#ff6b6b" stroke="none" stroke-width="1"/><path d="M237.67003,171.16625c0,-0.37419 0.29561,-0.67754 0.66027,-0.67754c0.36466,0 0.66027,0.30334 0.66027,0.67754c0,0.37419 -0.29561,0.67754 -0.66027,0.67754c-0.36466,0 -0.66027,-0.30334 -0.66027,-0.67754z" fill="#ff6b6b" stroke="none" stroke-width="1"/><path d="M232.00229,193.45889c0,-0.37419 0.29561,-0.67754 0.66027,-0.67754c0.36466,0 0.66027,0.30334 0.66027,0.67754c0,0.37419 -0.29561,0.67754 -0.66027,0.67754c-0.36466,0 -0.66027,-0.30334 -0.66027,-0.67754z" fill="#ff6b6b" stroke="none" stroke-width="1"/><path d="M236.57926,175.37176c0,-0.37419 0.29561,-0.67754 0.66027,-0.67754c0.36466,0 0.66027,0.30334 0.66027,0.67754c0,0.37419 -0.29561,0.67754 -0.66027,0.67754c-0.36466,0 -0.66027,-0.30334 -0.66027,-0.67754z" fill="#ff6b6b" stroke="none" stroke-width="1"/><path d="M228.77227,186.58028c0,-0.37419 0.29561,-0.67754 0.66027,-0.67754c0.36466,0 0.66027,0.30334 0.66027,0.67754c0,0.37419 -0.29561,0.67754 -0.66027,0.67754c-0.36466,0 -0.66027,-0.30334 -0.66027,-0.67754z" fill="#ff6b6b" stroke="none" stroke-width="1"/><path d="M233.29113,179.82605c0,-0.37419 0.29561,-0.67754 0.66027,-0.67754c0.36466,0 0.66027,0.30334 0.66027,0.67754c0,0.37419 -0.29561,0.67754 -0.66027,0.67754c-0.36466,0 -0.66027,-0.30334 -0.66027,-0.67754z" fill="#ff6b6b" stroke="none" stroke-width="1"/><path d="M228.47647,179.64873c0,-0.37419 0.29561,-0.67754 0.66027,-0.67754c0.36466,0 0.66027,0.30334 0.66027,0.67754c0,0.37419 -0.29561,0.67754 -0.66027,0.67754c-0.36466,0 -0.66027,-0.30334 -0.66027,-0.67754z" fill="#ff6b6b" stroke="none" stroke-width="1"/><path d="M249.93779,178.66682c0,-0.37419 0.29561,-0.67754 0.66027,-0.67754c0.36466,0 0.66027,0.30334 0.66027,0.67754c0,0.37419 -0.29561,0.67754 -0.66027,0.67754c-0.36466,0 -0.66027,-0.30334 -0.66027,-0.67754z" fill="#ff6b6b" stroke="none" stroke-width="1"/><path d="M254.11331,171.11067c0,-0.37419 0.29561,-0.67754 0.66027,-0.67754c0.36466,0 0.66027,0.30334 0.66027,0.67754c0,0.37419 -0.29561,0.67754 -0.66027,0.67754c-0.36466,0 -0.66027,-0.30334 -0.66027,-0.67754z" fill="#ff6b6b" stroke="none" stroke-width="1"/><path d="M254.52532,177.78285c0,-0.37419 0.29561,-0.67754 0.66027,-0.67754c0.36466,0 0.66027,0.30334 0.66027,0.67754c0,0.37419 -0.29561,0.67754 -0.66027,0.67754c-0.36466,0 -0.66027,-0.30334 -0.66027,-0.67754z" fill="#ff6b6b" stroke="none" stroke-width="1"/><path d="M256.75966,174.23635c0,-0.37419 0.29561,-0.67754 0.66027,-0.67754c0.36466,0 0.66027,0.30334 0.66027,0.67754c0,0.37419 -0.29561,0.67754 -0.66027,0.67754c-0.36466,0 -0.66027,-0.30334 -0.66027,-0.67754z" fill="#ff6b6b" stroke="none" stroke-width="1"/><path d="M256.88908,167.88706c0,-0.37419 0.29561,-0.67754 0.66027,-0.67754c0.36466,0 0.66027,0.30334 0.66027,0.67754c0,0.37419 -0.29561,0.67754 -0.66027,0.67754c-0.36466,0 -0.66027,-0.30334 -0.66027,-0.67754z" fill="#ff6b6b" stroke="none" stroke-width="1"/><path d="M249.08736,163.69478c0,-0.37419 0.29561,-0.67754 0.66027,-0.67754c0.36466,0 0.66027,0.30334 0.66027,0.67754c0,0.37419 -0.29561,0.67754 -0.66027,0.67754c-0.36466,0 -0.66027,-0.30334 -0.66027,-0.67754z" fill="#ff6b6b" stroke="none" stroke-width="1"/><path d="M223.10454,168.3661c0,-0.37419 0.29561,-0.67754 0.66027,-0.67754c0.36466,0 0.66027,0.30334 0.66027,0.67754c0,0.37419 -0.29561,0.67754 -0.66027,0.67754c-0.36466,0 -0.66027,-0.30334 -0.66027,-0.67754z" fill="#ff6b6b" stroke="none" stroke-width="1"/><path d="M221.96095,177.44143c0,-0.37419 0.29561,-0.67754 0.66027,-0.67754c0.36466,0 0.66027,0.30334 0.66027,0.67754c0,0.37419 -0.29561,0.67754 -0.66027,0.67754c-0.36466,0 -0.66027,-0.30334 -0.66027,-0.67754z" fill="#ff6b6b" stroke="none" stroke-width="1"/><path d="M220.81209,173.26503c0,-0.37419 0.29561,-0.67754 0.66027,-0.67754c0.36466,0 0.66027,0.30334 0.66027,0.67754c0,0.37419 -0.29561,0.67754 -0.66027,0.67754c-0.36466,0 -0.66027,-0.30334 -0.66027,-0.67754z" fill="#ff6b6b" stroke="none" stroke-width="1"/><path d="M240.66764,177.59758c0,-0.37419 0.29561,-0.67754 0.66027,-0.67754c0.36466,0 0.66027,0.30334 0.66027,0.67754c0,0.37419 -0.29561,0.67754 -0.66027,0.67754c-0.36466,0 -0.66027,-0.30334 -0.66027,-0.67754z" fill="#ff6b6b" stroke="none" stroke-width="1"/><path d="M252.16156,183.65045c0,-0.37419 0.29561,-0.67754 0.66027,-0.67754c0.36466,0 0.66027,0.30334 0.66027,0.67754c0,0.37419 -0.29561,0.67754 -0.66027,0.67754c-0.36466,0 -0.66027,-0.30334 -0.66027,-0.67754z" fill="#ff6b6b" stroke="none" stroke-width="1"/><path d="M244.97876,181.29721c-0.33928,-0.13365 -0.50338,-0.52363 -0.36653,-0.87106c0.13685,-0.34742 0.52284,-0.52073 0.86212,-0.38708c0.33928,0.13365 0.50338,0.52363 0.36653,0.87106c-0.13685,0.34742 -0.52284,0.52073 -0.86212,0.38708z" fill="#ff6b6b" stroke="none" stroke-width="1"/><path d="M246.67343,173.26503c0,-0.37419 0.29561,-0.67754 0.66027,-0.67754c0.36466,0 0.66027,0.30334 0.66027,0.67754c0,0.37419 -0.29561,0.67754 -0.66027,0.67754c-0.36466,0 -0.66027,-0.30334 -0.66027,-0.67754z" fill="#ff6b6b" stroke="none" stroke-width="1"/><path d="M238.43329,183.39637c0,-0.37419 0.29561,-0.67754 0.66027,-0.67754c0.36466,0 0.66027,0.30334 0.66027,0.67754c0,0.37419 -0.29561,0.67754 -0.66027,0.67754c-0.36466,0 -0.66027,-0.30334 -0.66027,-0.67754z" fill="#ff6b6b" stroke="none" stroke-width="1"/><path d="M251.5145,174.61746c0,-0.37419 0.29561,-0.67754 0.66027,-0.67754c0.36466,0 0.66027,0.30334 0.66027,0.67754c0,0.37419 -0.29561,0.67754 -0.66027,0.67754c-0.36466,0 -0.66027,-0.30334 -0.66027,-0.67754z" fill="#ff6b6b" stroke="none" stroke-width="1"/><path d="M252.34116,189.38307c0,-0.37419 0.29561,-0.67754 0.66027,-0.67754c0.36466,0 0.66027,0.30334 0.66027,0.67754c0,0.37419 -0.29561,0.67754 -0.66027,0.67754c-0.36466,0 -0.66027,-0.30334 -0.66027,-0.67754z" fill="#ff6b6b" stroke="none" stroke-width="1"/><path d="M246.82397,185.68836c0,-0.37419 0.29561,-0.67754 0.66027,-0.67754c0.36466,0 0.66027,0.30334 0.66027,0.67754c0,0.37419 -0.29561,0.67754 -0.66027,0.67754c-0.36466,0 -0.66027,-0.30334 -0.66027,-0.67754z" fill="#ff6b6b" stroke="none" stroke-width="1"/><path d="M230.30937,175.4141c0,-0.37419 0.29561,-0.67754 0.66027,-0.67754c0.36466,0 0.66027,0.30334 0.66027,0.67754c0,0.37419 -0.29561,0.67754 -0.66027,0.67754c-0.36466,0 -0.66027,-0.30334 -0.66027,-0.67754z" fill="#ff6b6b" stroke="none" stroke-width="1"/><path d="M225.69806,174.47984c0,-0.37419 0.29561,-0.67754 0.66027,-0.67754c0.36466,0 0.66027,0.30334 0.66027,0.67754c0,0.37419 -0.29561,0.67754 -0.66027,0.67754c-0.36466,0 -0.66027,-0.30334 -0.66027,-0.67754z" fill="#ff6b6b" stroke="none" stroke-width="1"/></g></g></svg>