<svg version="1.1" xmlns="http://www.w3.org/2000/svg" xmlns:xlink="http://www.w3.org/1999/xlink" width="432.33726" height="279.5" viewBox="0,0,432.33726,279.5"><defs><linearGradient x1="31" y1="180" x2="449" y2="180" gradientUnits="userSpaceOnUse" id="color-1"><stop offset="0" stop-color="#ffffff"/><stop offset="1" stop-color="#ffffff" stop-opacity="0"/></linearGradient></defs><g transform="translate(-29.75,-40.25)"><g data-paper-data="{&quot;isPaintingLayer&quot;:true}" stroke-linejoin="miter" stroke-miterlimit="10" stroke-dasharray="" stroke-dashoffset="0" style="mix-blend-mode: normal"><path d="M31,318.5v-277h418v277z" fill="url(#color-1)" fill-rule="nonzero" stroke="#ffffff" stroke-width="2.5" stroke-linecap="butt"/><text transform="translate(49.37452,103.2978) scale(1.19152,1.19152)" font-size="22" xml:space="preserve" fill="#000000" fill-rule="nonzero" stroke="none" stroke-width="1" stroke-linecap="butt" stroke-linejoin="miter" stroke-miterlimit="10" stroke-dasharray="" stroke-dashoffset="0" font-family="Scratch" font-weight="400" text-anchor="start" style="mix-blend-mode: normal"><tspan x="0" dy="0">In this game, you'll have to catch</tspan><tspan x="0" dy="19.58px">the apple. But don't let it fall.</tspan><tspan x="0" dy="19.58px">As your points will go up you'll have </tspan><tspan x="0" dy="19.58px">different fruits like-</tspan></text><g fill-rule="nonzero"><path d="M75.06949,233.98429v0c-9.5003,0 -17.4278,-6.5645 -17.4278,-16.064c0,-9.5003 7.9283,-17.4286 17.4278,-17.4286c9.4996,0 17.4286,7.9297 17.4279,17.4293c0,9.4981 -7.9269,16.0633 -17.4279,16.0633z" fill="#f6987c" stroke="#de6e4c" stroke-width="2.18331" stroke-linecap="butt"/><path d="M91.70443,215.27685c0,2.29994 -0.47348,7.09047 -1.87752,9.37484c-1.00886,1.64142 -2.1496,3.52916 -3.52645,4.6337c-2.68593,2.15472 -5.99572,3.13695 -7.48116,3.44899c-0.49436,0.10385 -1.1402,-0.1219 -1.1402,-0.1219c0,0 11.30955,-8.181 11.30955,-16.43036c0,-8.24936 -10.58727,-14.19311 -10.58727,-14.19311c0,0 2.18154,0.11916 4.77777,1.65029c3.81494,2.24987 8.52528,6.72881 8.52528,11.63755z" fill="#f57953" stroke="none" stroke-width="0" stroke-linecap="butt"/><g fill="#de6e4c" stroke="none" stroke-width="0.72777" stroke-linecap="butt"><path d="M66.91389,227.3769c0.222,0.0174 0.23,1.0305 -0.556,1.0545c-0.7801,0.024 -0.9141,-0.9803 -0.6346,-1.0043c0.1383,-0.0124 0.0786,0.3588 0.5939,0.3588c0.5152,0 0.4861,-0.4178 0.5967,-0.409z"/><path d="M73.482,229.10679c0.2773,0.0211 0.289,1.2874 -0.6972,1.3187c-0.9752,0.0313 -1.1426,-1.2263 -0.7932,-1.2561c0.1739,-0.016 0.0982,0.449 0.7423,0.449c0.6441,0 0.6077,-0.5225 0.7481,-0.5116z"/><path d="M80.30489,227.24589c0.278,0.0196 0.2889,1.2852 -0.6965,1.3187c-0.9752,0.0313 -1.1426,-1.2256 -0.7933,-1.2561c0.1747,-0.0168 0.0983,0.449 0.7424,0.449c0.644,0 0.6076,-0.5218 0.7474,-0.5116z"/><path d="M78.932,230.56229c0.2772,0.0211 0.2882,1.2874 -0.6958,1.3187c-0.9766,0.0313 -1.1433,-1.2263 -0.7947,-1.2561c0.1739,-0.016 0.1004,0.449 0.743,0.449c0.6427,0 0.6077,-0.5225 0.7475,-0.5116z"/><path d="M75.71849,223.34719c0.2212,0.0168 0.2307,1.0291 -0.5575,1.056c-0.7787,0.0233 -0.9141,-0.9817 -0.6346,-1.0058c0.1383,-0.0123 0.0786,0.3588 0.5939,0.3588c0.5152,0 0.4861,-0.4177 0.5982,-0.409z"/><path d="M63.16449,221.48629c0.2212,0.016 0.2307,1.0291 -0.5575,1.0553c-0.7787,0.024 -0.9141,-0.981 -0.6346,-1.0043c0.1383,-0.0139 0.0786,0.358 0.5938,0.358c0.5153,0 0.4862,-0.417 0.5983,-0.409z"/><path d="M70.12559,224.28019c0.2219,0.0146 0.2307,1.0284 -0.556,1.0546c-0.7802,0.0247 -0.9141,-0.9803 -0.6347,-1.0044c0.1383,-0.0131 0.0786,0.3588 0.5939,0.3588c0.5153,0 0.4862,-0.4184 0.5968,-0.409z"/><path d="M64.37479,217.70559c0.1935,0.0152 0.2015,0.9017 -0.4884,0.9228c-0.6834,0.0204 -0.8013,-0.8581 -0.5567,-0.8792c0.1208,-0.0094 0.0698,0.3144 0.5196,0.3144c0.4512,0 0.4257,-0.3653 0.5255,-0.358z"/><path d="M71.41079,217.6415c0.2213,0.0153 0.2307,1.0291 -0.5575,1.0546c-0.7779,0.0247 -0.914,-0.9803 -0.6346,-1.0044c0.1383,-0.0131 0.0786,0.3588 0.5939,0.3588c0.5153,0 0.4861,-0.4177 0.5982,-0.409z"/><path d="M68.12349,211.97879c0.195,0.0138 0.2023,0.9009 -0.4876,0.9213c-0.6827,0.0211 -0.7998,-0.858 -0.5553,-0.8791c0.1215,-0.0095 0.0691,0.3144 0.5196,0.3144c0.4505,0 0.4258,-0.3639 0.5233,-0.3566z"/><path d="M85.77409,221.48629c0.2219,0.016 0.2307,1.0291 -0.5561,1.0553c-0.7794,0.0247 -0.9133,-0.981 -0.6338,-1.0051c0.1375,-0.0131 0.0778,0.3588 0.5931,0.3588c0.5152,0 0.4861,-0.417 0.5968,-0.409z"/><path d="M84.32139,208.5342c0.1601,0.0117 0.166,0.7409 -0.4017,0.7584c-0.5618,0.0189 -0.6557,-0.7052 -0.4563,-0.7227c0.0997,-0.0087 0.056,0.2583 0.4272,0.2583c0.3712,0 0.3522,-0.2998 0.4308,-0.294z"/><path d="M89.7062,219.60579c0.2307,0.0167 0.2394,1.0661 -0.5793,1.0916c-0.8064,0.0255 -0.9439,-1.0159 -0.6557,-1.0392c0.1448,-0.0117 0.0822,0.3711 0.6157,0.3711c0.5334,0 0.5036,-0.4315 0.6193,-0.4235z"/><path d="M89.6858,223.34719c0.222,0.0168 0.2307,1.0291 -0.556,1.056c-0.7794,0.0233 -0.9134,-0.9817 -0.6339,-1.0058c0.1376,-0.0123 0.0779,0.3588 0.5931,0.3588c0.5153,0 0.4862,-0.4177 0.5968,-0.409z"/><path d="M66.74579,206.67259c0.1601,0.0109 0.1667,0.7401 -0.4017,0.7576c-0.5626,0.0189 -0.6572,-0.7052 -0.4563,-0.7219c0.099,-0.0088 0.0546,0.2583 0.4272,0.2583c0.3711,0 0.35,-0.2998 0.4308,-0.294z"/><path d="M89.50019,215.58629c0.1536,0.0116 0.1587,0.711 -0.3813,0.7278c-0.5393,0.0182 -0.6324,-0.6754 -0.4396,-0.6921c0.0939,-0.0088 0.0546,0.2474 0.4097,0.2474c0.3545,0 0.3355,-0.2889 0.4112,-0.2831z"/><path d="M77.4178,206.67259c0.1601,0.0109 0.1667,0.7401 -0.4017,0.7576c-0.5626,0.0189 -0.6572,-0.7052 -0.4563,-0.7219c0.099,-0.0088 0.0546,0.2583 0.4272,0.2583c0.3711,0 0.35,-0.2998 0.4308,-0.294z"/><path d="M78.77949,202.93989c0.1594,0.0116 0.1659,0.7401 -0.4032,0.7576c-0.5618,0.0189 -0.6557,-0.7052 -0.4563,-0.722c0.1004,-0.0087 0.056,0.2577 0.4272,0.2577c0.3726,0 0.3515,-0.2992 0.4323,-0.2933z"/><path d="M85.11179,226.4475c0.2212,0.0168 0.2307,1.0284 -0.5575,1.0546c-0.7794,0.024 -0.9141,-0.9811 -0.6339,-1.0036c0.1376,-0.0139 0.0779,0.358 0.5932,0.358c0.5152,0 0.4861,-0.4192 0.5982,-0.409z"/><path d="M61.11069,212.90959c0.1943,0.0145 0.2031,0.9009 -0.4876,0.9221c-0.6826,0.0211 -0.7998,-0.8588 -0.5553,-0.8792c0.1216,-0.0102 0.0692,0.3144 0.5196,0.3144c0.4505,0 0.4258,-0.3646 0.5233,-0.3573z"/><path d="M79.65859,212.69709c0.1936,0.0138 0.2016,0.9002 -0.4883,0.922c-0.6841,0.0211 -0.8013,-0.8587 -0.5568,-0.8791c0.1209,-0.0102 0.0706,0.3144 0.5197,0.3144c0.4505,0 0.4257,-0.3646 0.5254,-0.3573z"/><path d="M87.65899,210.08149c0.1528,0.0109 0.1594,0.7103 -0.3821,0.7277c-0.5407,0.0175 -0.6332,-0.6761 -0.4396,-0.6928c0.0946,-0.0087 0.0539,0.2482 0.409,0.2482c0.3559,0 0.3355,-0.289 0.4127,-0.2831z"/><path d="M81.4417,222.9208c0.2212,0.0152 0.2299,1.029 -0.5575,1.0545c-0.7795,0.0247 -0.9141,-0.9803 -0.6339,-1.0043c0.1375,-0.0124 0.0779,0.3588 0.5931,0.3588c0.5153,0 0.4862,-0.4185 0.5983,-0.409z"/><path d="M81.01809,217.6415c0.2212,0.0153 0.2307,1.0291 -0.5575,1.0546c-0.7794,0.0247 -0.9133,-0.9803 -0.6346,-1.0044c0.1383,-0.0131 0.0786,0.3588 0.5939,0.3588c0.516,0 0.4861,-0.4177 0.5982,-0.409z"/><path d="M84.9262,214.65619c0.1543,0.0109 0.1594,0.7096 -0.3813,0.7278c-0.5393,0.0182 -0.6325,-0.6761 -0.4396,-0.6929c0.0939,-0.0087 0.0546,0.2475 0.4097,0.2475c0.3559,0 0.3355,-0.2882 0.4112,-0.2824z"/><path d="M76.3014,219.62399c0.222,0.0174 0.2315,1.029 -0.556,1.0545c-0.7802,0.0255 -0.9155,-0.9803 -0.6346,-1.0036c0.1368,-0.0131 0.0771,0.3581 0.5924,0.3581c0.5153,0 0.4861,-0.4185 0.5982,-0.409z"/><path d="M73.9049,212.69709c0.1936,0.0138 0.2023,0.9002 -0.4876,0.922c-0.6841,0.0211 -0.7998,-0.8587 -0.5553,-0.8791c0.1215,-0.0102 0.0691,0.3144 0.5196,0.3144c0.4505,0 0.4258,-0.3646 0.5233,-0.3573z"/></g><path d="M72.80759,205.4885v0c-1.8456,0.1776 -2.0516,-1.9788 -0.2045,-2.1564c1.8471,-0.1761 2.0523,1.9803 0.2045,2.1564" fill="#de6e4c" stroke="none" stroke-width="0.72777" stroke-linecap="butt"/><path d="M82.46428,206.90517c0,-0.69036 0.55964,-1.25 1.25,-1.25c0.69036,0 1.25,0.55964 1.25,1.25c0,0.69036 -0.55964,1.25 -1.25,1.25c-0.69036,0 -1.25,-0.55964 -1.25,-1.25z" fill="#f5f5f5" stroke="none" stroke-width="0.5" stroke-linecap="butt"/><path d="M86.42856,210.04803c0,0 1.23251,1.75209 1.36278,4.57447c0.15206,3.29472 -2.79135,7.28268 -2.79135,7.28268" fill="none" stroke="#ffffff" stroke-width="2" stroke-linecap="round"/></g><g><path d="M166.594,246.00646c-13.40025,0.27633 -23.00143,-6.07845 -27.35308,-14.50542c-5.31866,-10.36098 -2.69381,-30.59947 10.56827,-32.25723c0.06904,-1.17422 0.62163,-6.07845 1.38143,-9.39397l4.35165,-1.86497c2.41756,2.34851 3.31552,7.87438 -0.7598,12.64045c1.58864,0.62163 3.6609,3.52273 2.90102,6.83825c-1.45047,6.21662 -3.38456,11.67336 -0.48346,18.23536c2.34851,5.24953 9.0486,7.94342 13.05487,12.43316c4.90416,5.45682 1.58864,7.66717 -3.6609,7.87438z" fill="#f5c879" fill-rule="evenodd" stroke="none" stroke-width="1" stroke-linecap="butt"/><path d="M153.74634,189.15908c1.38151,0.82892 2.97014,2.76293 2.83198,4.35165c-0.3453,0.41442 -3.72994,7.45996 -2.55564,8.08159c2.97014,1.51959 -1.45055,13.05487 0.20721,20.4457c2.27939,10.22281 11.12078,12.50228 14.6435,18.3044c1.93409,3.17743 -1.58864,4.00627 -2.62477,4.00627c-16.09405,-0.27625 -22.51788,-8.97955 -25.14273,-14.36725c-3.45361,-7.04546 -1.31238,-15.74868 1.65776,-22.58701c0.62171,-1.38143 2.21035,-3.93715 3.31552,-4.97328c1.79593,-1.51959 2.21035,-1.65776 4.55886,-1.86497c0.34538,-0.06904 3.10831,-11.39711 3.10831,-11.39711z" fill="#f5d49b" fill-rule="evenodd" stroke="none" stroke-width="1" stroke-linecap="butt"/><path d="M150.98341,202.97375c0.13817,-0.48346 0.82892,-0.27625 0.69075,0.13817c-4.21348,14.02188 -2.41756,27.21491 7.18363,34.1222c2.00314,1.45055 6.00933,3.17743 6.90729,3.52281c0.96709,0.3453 0.20721,0.89788 -0.69067,0.62163c-0.82892,-0.27633 -1.51967,-0.55259 -2.76293,-1.10517c-10.36106,-4.69703 -19.06428,-12.36412 -11.32807,-37.29964z" fill="#f5c879" fill-rule="evenodd" stroke="none" stroke-width="1" stroke-linecap="butt"/><path d="M143.17827,210.70869c0,-0.55618 0.45087,-1.00705 1.00705,-1.00705c0.55618,0 1.00705,0.45087 1.00705,1.00705c0,0.55618 -0.45087,1.00705 -1.00705,1.00705c-0.55618,0 -1.00705,-0.45087 -1.00705,-1.00705z" fill="#ffffff" fill-rule="nonzero" stroke="none" stroke-width="0.5" stroke-linecap="butt"/><path d="M152.77878,238.3689c0,0 -6.5929,-5.04655 -8.44131,-10.41851c-1.84842,-5.37196 -0.15215,-14.55625 -0.15215,-14.55625" fill="none" fill-rule="nonzero" stroke="#ffffff" stroke-width="2" stroke-linecap="round"/></g><path d="M271.4236,228.02388c-3.21733,11.26998 -19.19348,16.58989 -35.68378,11.88228c-16.49039,-4.70763 -27.25019,-17.66005 -24.03287,-28.93003c3.21735,-11.27006 19.19348,-16.58989 35.68386,-11.88226c16.49031,4.70761 27.25014,17.65996 24.0328,28.93002z" fill="#73a572" fill-rule="evenodd" stroke="#364e36" stroke-width="2.72535" stroke-linecap="butt"/><path d="M252.70728,201.93422c0.90701,0.53501 1.79776,1.09439 2.68229,1.66718c0.97573,0.60866 1.93364,1.25701 2.81567,2.00008c1.14949,0.89418 2.20158,1.92106 3.26074,2.92079c1.08417,1.07951 2.15167,2.18471 3.13375,3.36185c0.90869,1.18737 1.79594,2.38583 2.56172,3.67685c0.58463,0.87391 1.03617,1.83367 1.48998,2.78325c0.54882,0.98387 0.93952,2.03787 1.3568,3.08622c0.29977,0.82722 0.85914,1.58637 0.9329,2.48941c-0.44694,0.15824 -0.32275,-0.5453 -0.4331,-0.8038c-0.65107,-1.18795 -1.14914,-2.46237 -1.75949,-3.67703c-0.48487,-1.03433 -1.04526,-2.05187 -1.68072,-2.99612c-1.22305,-1.70897 -2.36508,-3.48155 -3.77279,-5.04145c-0.50051,-0.59375 -1.04477,-1.12667 -1.60779,-1.65839c-2.12116,-1.75822 -4.29244,-3.41944 -6.52746,-5.0258c-1.21904,-0.73097 -2.47447,-1.4459 -3.71472,-2.14088c-1.58731,-0.84929 -3.20252,-1.6396 -4.89824,-2.24856c-1.14128,-0.41738 -2.34659,-0.65539 -3.56604,-0.66812c-2.26819,-0.08352 -4.53187,-0.22524 -6.80488,-0.08549c-0.75769,-0.01587 -1.49698,0.22967 -2.23694,0.36641c-1.83192,0.39511 -3.67321,0.83321 -5.48778,1.30901c-0.99735,0.23775 -1.95236,0.63022 -2.92999,0.94251c-1.36144,0.41451 -2.67081,1.00241 -3.95298,1.62958c-1.63783,0.72878 -3.08339,1.81368 -4.58543,2.79059c-1.16591,0.8103 -2.35273,1.59544 -3.51382,2.41236c0.05335,-0.10785 0.10431,-0.21153 0.16035,-0.31794c1.15053,-0.98797 2.35152,-1.91828 3.58039,-2.80238c0.75778,-0.5682 1.54702,-1.06796 2.38194,-1.50631c1.93322,-1.01833 3.8888,-2.00078 5.91729,-2.79986c1.73468,-0.639 3.51987,-1.15259 5.25765,-1.78281c1.25104,-0.36678 2.51217,-0.75695 3.79274,-0.99371c1.36198,-0.16866 2.71094,-0.29886 4.07738,-0.39081c2.77101,0.21326 5.62828,0.70647 8.50034,1.51891c1.94558,0.55037 3.80364,1.21665 5.57024,1.98448zM244.65836,201.95081c0.19803,0.04461 0.4014,0.09522 0.59338,0.16786c0.94964,0.34243 1.91763,0.70196 2.8457,1.10025c1.05485,0.47114 2.08511,0.97687 3.12729,1.47507c2.12846,1.02162 4.11176,2.27861 6.06705,3.60112c1.8222,1.20792 3.52128,2.62328 5.11356,4.12628c0.90195,0.80259 1.64553,1.73745 2.47977,2.60909c0.68976,0.88416 1.3986,1.78262 2.01057,2.72613c0.65923,0.99978 1.23218,2.05219 1.83811,3.08612c0.37702,0.70032 0.83298,1.37109 1.15983,2.09936c0.22843,0.56401 0.58835,1.03687 0.82369,1.59558c-0.25187,0.60029 -0.8558,-0.09984 -0.86584,-0.49471c-0.45232,-1.03761 -1.13421,-1.93245 -1.73814,-2.87619c-0.58513,-0.803 -1.06283,-1.68688 -1.67149,-2.47122c-0.91433,-1.27133 -1.92199,-2.47462 -3.05817,-3.54485c-1.6039,-1.62198 -3.42748,-3.01243 -5.28922,-4.31215c-1.44003,-0.95613 -2.91132,-1.83524 -4.49875,-2.52158c-1.56012,-0.74207 -3.11705,-1.49957 -4.72572,-2.13171c-0.89464,-0.34194 -1.78094,-0.73875 -2.65195,-1.13622c-0.90846,-0.45063 -1.8888,-0.63891 -2.87597,-0.83621c-1.34938,-0.1735 -2.69107,-0.42303 -4.0533,-0.48805c-1.31707,-0.06891 -2.62813,-0.26804 -3.94738,-0.29909c-1.44559,-0.04438 -2.90809,0.16456 -4.33466,0.40889c-2.28723,0.31287 -4.55367,0.69883 -6.80157,1.25527c-0.75059,0.16196 -1.47648,0.42228 -2.1945,0.6964c-1.99857,0.72001 -3.94464,1.59829 -5.87494,2.49386c-0.51839,0.21341 -1.01616,0.51809 -1.44678,0.88518c-0.05898,0.10234 -0.1399,0.16057 -0.2421,0.20403c0.02267,-0.00341 0.04803,-0.00041 0.06953,-0.00299c2.52282,-0.92751 5.07446,-1.8168 7.60944,-2.70722c1.01029,-0.39766 2.06275,-0.63297 3.1237,-0.81958c2.42617,-0.35635 4.86053,-0.54498 7.29507,-0.82042c1.62762,-0.1484 3.25616,0.0834 4.87668,0.17586c1.64492,0.09469 3.29127,0.21477 4.92813,0.39489c0.34535,0.08495 0.68226,0.16535 1.0232,0.26679c1.63944,0.48742 3.20607,1.16779 4.8134,1.74774c1.14558,0.39811 2.27347,0.89665 3.38158,1.38801c1.65854,0.7047 3.25281,1.51816 4.8408,2.36857c1.36165,0.75673 2.69446,1.58467 3.91449,2.56078c1.54675,1.24851 3.21075,2.38418 4.47793,3.94639c0.86488,1.01473 1.71674,2.03294 2.52222,3.09799c0.97277,1.189 1.80711,2.51133 2.78575,3.69483c0.30849,0.17031 0.20485,0.44048 -0.00595,0.49795c0.29009,0.49525 -0.51122,0.59814 -0.69015,0.16806c-0.33793,-0.44448 -0.78423,-0.79344 -1.24133,-1.10056c-1.08715,-0.93552 -2.06556,-1.98211 -3.10946,-2.96886c-0.75067,-0.7413 -1.50011,-1.49533 -2.30712,-2.17412c-0.77356,-0.64051 -1.54725,-1.26373 -2.38873,-1.81118c-0.87373,-0.6412 -1.89021,-1.05883 -2.86396,-1.51419c-1.32651,-0.55923 -2.62119,-1.20065 -4.00512,-1.60988c-1.66484,-0.5574 -3.33279,-1.10053 -5.03438,-1.53765c-0.72238,-0.21251 -1.43259,-0.42616 -2.17357,-0.56947c-0.96339,-0.19024 -1.92491,-0.45233 -2.894,-0.61428c-1.35395,-0.26182 -2.72737,-0.46419 -4.0897,-0.68c-2.32319,-0.35502 -4.60036,-0.86102 -6.9353,-1.14432c-0.95937,-0.08924 -1.9306,-0.24555 -2.89391,-0.29634c-1.58321,-0.12304 -3.16195,-0.06001 -4.74644,0.08802c-1.31497,0.26166 -2.64239,0.60035 -3.96827,0.8077c-1.47077,0.27264 -2.95415,0.4128 -4.44365,0.46893c-0.72597,0.04383 -1.43166,-0.09974 -2.15523,0.00348c-0.36803,0.05272 -1.07624,0.06027 -1.08687,-0.44372c0.08177,-0.25463 0.28749,-0.34585 0.50549,-0.40204c0.11798,-0.2289 0.42156,-0.35082 0.69306,-0.4171c-0.26113,0.02358 -0.51802,-0.10498 -0.44501,-0.44388c0.16395,-0.45092 0.73236,-0.52609 1.10472,-0.73208c1.65364,-1.00015 3.34506,-1.93364 5.0969,-2.73669c1.50841,-0.68393 3.04135,-1.32086 4.59773,-1.8787c1.85072,-0.58493 3.74307,-1.02549 5.63606,-1.42606c1.20203,-0.28887 2.42306,-0.41145 3.64446,-0.55867c1.22011,-0.10627 2.43019,-0.16923 3.65368,-0.19275c1.76831,-0.0897 3.53906,0.05399 5.29135,0.24777c0.60304,0.09696 1.21007,0.12667 1.80415,0.26058zM254.79918,216.46946c0.56107,0.1668 1.10346,0.34938 1.65596,0.53657c1.13551,0.43157 2.28343,0.87348 3.37543,1.40909c0.97615,0.45403 1.7776,1.15999 2.61276,1.82916c1.54652,1.34298 2.98208,2.83597 4.62929,4.05734c1.1669,0.78651 2.42916,1.40801 3.66326,2.08085c-0.00668,0.03601 -0.00213,0.07511 -0.00912,0.11103c-0.8762,-0.19939 -1.7461,-0.41098 -2.60342,-0.66833c-1.10223,-0.4628 -2.31234,-0.74191 -3.29378,-1.45412c-0.98009,-0.66762 -1.83352,-1.46039 -2.72178,-2.24603c-0.66801,-0.53052 -1.27413,-1.19821 -2.08901,-1.49927c-0.5874,-0.27786 -1.24932,-0.35016 -1.88298,-0.46453c-1.04778,-0.15114 -2.07286,-0.43446 -3.13312,-0.50027c-1.14732,-0.17939 -2.30716,-0.2079 -3.46905,-0.20918c-0.60537,-0.03224 -1.19968,-0.01946 -1.80412,0.05733c-0.71202,0.01496 -1.43598,-0.03075 -2.13402,0.16848c-0.69733,0.31404 -1.46399,0.44955 -2.18843,0.67538c-0.52418,0.09233 -1.03848,0.24602 -1.57403,0.21329c-1.15188,-0.21574 -2.31117,-0.39851 -3.45405,-0.65918c-1.74679,-0.43866 -3.50448,-0.8182 -5.22798,-1.34264c-1.57232,-0.52757 -3.10309,-1.1489 -4.66514,-1.70572c-0.51104,-0.19312 -1.09251,-0.35036 -1.6407,-0.19161c-0.52894,0.18177 -1.00759,0.56358 -1.58604,0.57327c-0.88888,-0.03107 -1.73316,-0.35994 -2.5671,-0.63541c-0.51881,-0.14659 -0.98753,-0.38887 -1.47131,-0.62059c-1.27875,-0.70546 -2.516,-1.51178 -3.82058,-2.17082c-1.56294,-0.82475 -3.187,-1.45307 -4.82265,-2.11357c-0.28929,-0.1827 -0.74145,-0.22248 -1.06259,-0.36871c-0.19267,-0.08774 -0.32761,-0.20519 -0.40266,-0.4319c0.19669,-0.45432 0.81537,-0.05802 1.16542,0.01177c0.78075,0.1459 1.56853,0.21076 2.35209,0.34746c1.5482,0.24632 3.12791,0.29165 4.69199,0.10096c1.15419,-0.19605 2.30586,-0.39646 3.47497,-0.4477c0.89546,-0.1134 1.7912,0.00531 2.68197,0.07739c1.16373,0.04685 2.33022,0.225 3.47212,0.43716c2.85172,0.60031 5.65268,1.37799 8.50044,1.99584c2.25604,0.44629 4.54332,0.8647 6.80815,1.26735c2.31351,0.30548 4.57416,0.7699 6.8385,1.32132c0.56583,0.1424 1.14029,0.29158 1.70129,0.4586zM213.51493,211.33128c0.43176,0.23723 0.84644,0.54452 1.29577,0.75258c1.13819,0.52411 2.20211,1.17063 3.20306,1.92801c1.34827,0.96391 2.59945,2.07725 3.92977,3.06465c1.77557,1.23295 3.59748,2.38473 5.46164,3.47533c0.93173,0.48861 1.90371,0.9014 2.88809,1.27115c1.75027,0.71367 3.52884,1.33814 5.26756,2.08052c1.23204,0.59363 2.56441,0.99569 3.91723,1.19898c1.25339,0.24821 2.50514,0.4852 3.76885,0.6801c1.05775,0.07976 2.03802,0.51422 3.04844,0.79422c0.66837,0.19024 1.39888,0.39063 2.07658,0.11053c0.62278,-0.21286 1.06148,-0.73957 1.53147,-1.17913c0.3821,-0.36673 0.87334,-0.61255 1.40445,-0.57925c0.96536,0.06845 1.91982,0.23367 2.89092,0.22737c0.59487,0.10314 1.10834,-0.20144 1.59509,-0.52532c0.56778,-0.31279 1.15606,-0.6177 1.70105,-0.97216c0.77929,-0.55712 1.67057,-0.92706 2.61213,-1.03242c0.33463,0.0367 0.66412,0.18629 0.87793,0.45273c0.76746,0.66143 1.09235,1.71772 1.88939,2.3512c0.4009,0.36302 0.95221,0.37955 1.45315,0.52459c1.42644,0.21587 2.89356,0.41368 4.32881,0.56599c0.47018,0.11818 1.15198,-0.21699 1.41675,0.33264c0.00058,0.07471 -0.01039,0.14165 -0.03331,0.19496c0.19757,-0.04655 0.39577,-0.10085 0.59327,-0.15008c-0.00448,0.02138 -0.01367,0.04161 -0.01815,0.063c-0.20723,0.05149 -0.41474,0.11097 -0.62055,0.1651c-0.16648,0.21259 -0.54667,0.20566 -0.86264,0.21014c-0.48101,0.12395 -0.95266,0.24747 -1.43479,0.36628c-0.23578,0.07764 -0.47177,0.15897 -0.70822,0.23108c-0.90606,0.31795 -1.82218,0.60142 -2.74541,0.85846c-0.65688,0.30116 -1.27529,0.69432 -1.92195,1.02328c-1.02602,0.51439 -2.05087,1.02962 -3.1327,1.40746c-0.54954,0.26056 -1.14926,0.39016 -1.73441,0.5313c-0.88526,0.21865 -1.78981,0.26352 -2.69099,0.35157c-1.52531,0.07715 -3.05355,0.19504 -4.57387,0.04598c-1.26856,-0.13256 -2.53191,-0.31088 -3.78393,-0.54811c-1.20475,-0.18189 -2.38014,-0.49548 -3.5812,-0.69515c-1.24266,-0.26066 -2.48119,-0.57012 -3.72046,-0.84806c-1.44494,-0.35619 -2.88614,-0.67543 -4.30473,-1.12686c-1.64962,-0.69743 -3.24628,-1.50465 -4.81958,-2.36256c-1.61126,-0.94644 -3.2617,-1.85549 -4.83485,-2.86652c-1.25221,-0.89851 -2.47392,-1.84252 -3.51509,-2.99282c-2.3363,-2.28024 -4.57621,-4.6474 -6.82463,-7.01739c-0.46808,-0.54734 -0.9993,-1.05609 -1.52596,-1.54446c-0.4966,-0.07226 -0.59981,-0.96415 -0.00021,-0.95386c0.08297,0.03904 0.15553,0.09063 0.23615,0.13493zM270.0492,228.84532c-1.13438,1.10989 -2.27685,2.20525 -3.47742,3.24029c-0.99797,0.93718 -2.10613,1.73492 -3.23842,2.49035c-0.80939,0.58808 -1.66916,1.08904 -2.5394,1.57529c-2.54409,1.38149 -5.30813,2.34695 -8.11486,2.95028c-1.32496,0.20995 -2.64129,0.48072 -3.9774,0.60074c-2.10289,0.15963 -4.19217,0.34667 -6.29927,0.30739c-1.77019,-0.11413 -3.53161,-0.3882 -5.29748,-0.54475c-0.08039,-0.01124 -0.1588,-0.03318 -0.23919,-0.04501c-0.34191,-0.08814 -0.6806,-0.16996 -1.02318,-0.26687c-2.18457,-0.61797 -4.26136,-1.39177 -6.21809,-2.28127c-1.64053,-1.02951 -3.29683,-2.05623 -4.81075,-3.26848c-1.12689,-1.0138 -2.17315,-2.11515 -3.19121,-3.24176c-0.93193,-0.99089 -1.7609,-2.06459 -2.57371,-3.15795c-1.03362,-1.32907 -1.80372,-2.84402 -2.63145,-4.30973c-0.82365,-1.40318 -1.53304,-2.86806 -2.1532,-4.37891c-0.78297,-1.74772 -1.37052,-3.57425 -1.89924,-5.4197c-0.02669,-0.14164 -0.08551,-0.28172 -0.13022,-0.42296c-0.00169,-0.00581 0.00782,-0.01545 0.00604,-0.02095c0.0434,-0.22942 0.0961,-0.45554 0.15122,-0.6839l1.15079,2.2104c1.61574,3.18463 3.48109,6.25554 5.42954,9.23437c1.19968,1.53479 2.54017,2.93858 3.91499,4.30952c0.88959,0.84374 1.71506,1.74671 2.59779,2.59707c0.65789,0.56156 1.4149,1.01915 2.13743,1.49023c1.4189,0.84422 2.81534,1.70307 4.29293,2.4407c1.06086,0.50457 2.12646,1.07902 3.27556,1.35811c1.47658,0.37997 2.9775,0.49922 4.4772,0.76688c1.44167,0.25549 2.9102,0.41572 4.37423,0.48797c2.49849,0.24803 5.0228,-0.0215 7.52527,-0.18753c1.41148,-0.05339 2.79146,-0.39311 4.16811,-0.70579c1.46714,-0.32481 2.88865,-0.80953 4.27693,-1.40176c0.93362,-0.3503 1.80386,-0.84796 2.67559,-1.33237c1.22725,-0.79536 2.45008,-1.61155 3.67438,-2.41242c1.31556,-0.87724 2.62055,-1.77354 3.92848,-2.65844c-0.07422,0.23053 -0.15649,0.45595 -0.24199,0.68096z" fill="#4a6a49" fill-rule="nonzero" stroke="none" stroke-width="1" stroke-linecap="butt"/><path d="M213.36061,207.98795c1.25357,0.62678 0.62678,1.88035 0.62678,1.88035l-0.21924,0.42765c-0.32019,0.75297 -0.44915,1.59796 -0.43367,2.41602c0,0 0,1.40153 -1.40153,1.40153c-1.40153,0 -1.40153,-1.40153 -1.40153,-1.40153c0.01587,-1.17147 0.21525,-2.36293 0.63416,-3.45705l0.31468,-0.64019c0,0 0.62678,-1.25357 1.88035,-0.62678z" fill="#364e36" fill-rule="nonzero" stroke="none" stroke-width="0.5" stroke-linecap="butt"/><path d="M270.39672,222.52267c1.40153,0 1.40153,1.40153 1.40153,1.40153l-0.01409,1.53299c-0.15685,1.0827 -0.25544,2.17825 -0.25287,3.27225c0,0 0,1.40153 -1.40153,1.40153c-1.40153,0 -1.40153,-1.40153 -1.40153,-1.40153c0.00254,-1.22647 0.10975,-2.45421 0.28104,-3.66866l-0.01409,-1.13658c0,0 0,-1.40153 1.40153,-1.40153z" fill="#364e36" fill-rule="nonzero" stroke="none" stroke-width="0.5" stroke-linecap="butt"/><path d="M224.81367,202.56758c0,-0.55289 0.4482,-1.00109 1.00109,-1.00109c0.55289,0 1.00109,0.4482 1.00109,1.00109c0,0.55289 -0.4482,1.00109 -1.00109,1.00109c-0.55289,0 -1.00109,-0.4482 -1.00109,-1.00109z" fill="#ffffff" fill-rule="nonzero" stroke="none" stroke-width="0.5" stroke-linecap="butt"/><path d="M229.55217,202.56758c0,0 12.07467,-1.36249 18.76277,1.69076c6.6881,3.05327 13.53913,10.58929 13.53913,10.58929" fill="none" fill-rule="nonzero" stroke="#ffffff" stroke-width="2.5" stroke-linecap="round"/><g fill-rule="evenodd" stroke-linecap="butt"><g fill="#9bc762" stroke="#597338" stroke-width="2"><path d="M336.34157,192.80731c-1.04058,-2.76044 -2.02834,-7.50321 -0.57311,-10.25573c1.33638,-2.52493 3.67373,-0.89724 4.78826,3.10715c0.94022,3.36914 0.77119,8.92179 0.81345,10.09429c0.04754,1.29419 -0.10828,2.5619 -0.16375,3.84817c-0.0449,1.08515 0.34334,2.89283 -0.0449,3.87207c-1.94647,-3.40097 -3.44131,-7.0057 -4.81995,-10.66595z"/><path d="M341.18529,203.42031c-1.54238,0.07943 -3.4598,-1.48738 -4.64828,-2.3423c-0.63386,-0.45783 -8.52008,-6.83092 -10.66727,-9.99895c-0.96927,-1.42921 -1.88044,-2.85308 -1.64539,-4.64755c0.31429,-2.40575 1.95175,-2.95364 4.07253,-1.90553c3.28813,1.62505 6.03748,5.26418 7.7621,8.42421c0.85835,1.56945 1.67444,3.17602 2.54335,4.72692c0.83986,1.50594 2.62258,3.97263 2.58296,5.7432z"/><path d="M340.89477,203.3356c-0.10036,-1.1142 0.64178,-2.60429 0.89532,-3.68937c0.26411,-1.16187 0.52821,-2.30526 0.90325,-3.44065c0.70827,-2.33411 1.55222,-4.62471 2.5275,-6.86011c0.87683,-1.92937 1.81441,-4.07048 3.23003,-5.68232c1.20697,-1.37626 3.50206,-2.82924 5.16329,-1.16715c1.4341,1.43714 0.52821,4.40662 0.02113,6.08727c-0.70252,2.25494 -1.93326,4.09702 -3.33831,5.95495c-1.30997,1.73089 -7.62476,8.20725 -9.4022,8.7974z"/><path d="M341.12454,203.41238c0.72893,-0.95547 1.92534,-1.74944 2.8101,-2.59109c1.14622,-1.09036 2.31622,-2.15168 3.48093,-3.21827c1.69292,-1.54833 3.50206,-3.13627 5.87373,-3.44065c0.85835,-0.10855 2.41922,-0.16144 2.71502,0.90252c0.26411,0.97924 -1.02209,2.09879 -1.65595,2.62542c-0.94055,0.75099 -1.94746,1.41456 -3.00818,1.98239c-0.58896,0.33872 -7.63533,2.99332 -10.21565,3.73969z"/><path d="M340.95551,203.46263c-0.17959,-3.27915 0.20072,-6.49749 0.30636,-9.75551c0.01056,-1.69906 0.19821,-3.39239 0.55991,-5.05243c0.18487,-0.75693 1.12509,-3.44059 2.08644,-1.91616c0.55462,0.87604 0.20072,2.80019 0.16639,3.77679c-0.05018,1.4133 -0.06603,2.96156 -0.5467,4.31399c-0.31693,0.88132 -2.39809,8.64659 -2.5724,8.63332z"/></g><path d="M340.69669,243.47598c-2.60185,0.01241 -5.14559,-0.77053 -7.29199,-2.24431c-1.42618,-0.99251 -2.55127,-2.48789 -3.51526,-3.91703c-1.43938,-2.13583 -2.85235,-4.31669 -4.18081,-6.52661c-2.40529,-3.97692 -4.16503,-8.31144 -5.21347,-12.84153c-0.82401,-3.66825 -1.08284,-10.43565 2.71766,-12.70387c1.94647,-1.16715 4.83051,-1.83409 7.0358,-2.28934c1.90949,-0.39431 3.79257,-0.88925 5.75489,-1.05867c1.11981,-0.08993 2.25019,-0.19319 3.35944,-0.01849c0.85306,0.13496 1.26771,0.60606 1.88308,0.61134c0.11885,0 0.89268,-0.43135 1.10661,-0.48431c0.43525,-0.08544 0.8771,-0.13324 1.32053,-0.14295c1.41033,-0.08201 2.73615,0.14295 4.12007,0.35205c3.57336,0.52927 7.34217,1.89497 10.13906,4.25311c3.48885,2.94043 2.92102,7.43969 1.95439,11.4864c-1.05643,4.457 -4.83051,14.58833 -8.45142,19.50046c-3.6209,4.91219 -8.59403,6.03438 -10.73858,6.02375z" fill="#ff9c9c" stroke="#ff7676" stroke-width="2"/><path d="M336.57926,230.51011c0,-0.37419 0.29561,-0.67754 0.66027,-0.67754c0.36466,0 0.66027,0.30334 0.66027,0.67754c0,0.37419 -0.29561,0.67754 -0.66027,0.67754c-0.36466,0 -0.66027,-0.30334 -0.66027,-0.67754z" fill="#ff6b6b" stroke="none" stroke-width="1"/><path d="M349.16923,211.77719c0,-0.37419 0.29561,-0.67754 0.66027,-0.67754c0.36466,0 0.66027,0.30334 0.66027,0.67754c0,0.37419 -0.29561,0.67754 -0.66027,0.67754c-0.36466,0 -0.66027,-0.30334 -0.66027,-0.67754z" fill="#ff6b6b" stroke="none" stroke-width="1"/><path d="M347.096,208.62504c0,-0.37419 0.29561,-0.67754 0.66027,-0.67754c0.36466,0 0.66027,0.30334 0.66027,0.67754c0,0.37419 -0.29561,0.67754 -0.66027,0.67754c-0.36466,0 -0.66027,-0.30334 -0.66027,-0.67754z" fill="#ff6b6b" stroke="none" stroke-width="1"/><path d="M351.73899,208.93999c0,-0.37419 0.29561,-0.67754 0.66027,-0.67754c0.36466,0 0.66027,0.30334 0.66027,0.67754c0,0.37419 -0.29561,0.67754 -0.66027,0.67754c-0.36466,0 -0.66027,-0.30334 -0.66027,-0.67754z" fill="#ff6b6b" stroke="none" stroke-width="1"/><path d="M344.20667,205.45701c0,-0.37419 0.29561,-0.67754 0.66027,-0.67754c0.36466,0 0.66027,0.30334 0.66027,0.67754c0,0.37419 -0.29561,0.67754 -0.66027,0.67754c-0.36466,0 -0.66027,-0.30334 -0.66027,-0.67754z" fill="#ff6b6b" stroke="none" stroke-width="1"/><path d="M338.8004,207.15616c0,-0.37419 0.29561,-0.67754 0.66027,-0.67754c0.36466,0 0.66027,0.30334 0.66027,0.67754c0,0.37419 -0.29561,0.67754 -0.66027,0.67754c-0.36466,0 -0.66027,-0.30334 -0.66027,-0.67754z" fill="#ff6b6b" stroke="none" stroke-width="1"/><path d="M334.36605,206.69035c0,-0.37419 0.29561,-0.67754 0.66027,-0.67754c0.36466,0 0.66027,0.30334 0.66027,0.67754c0,0.37419 -0.29561,0.67754 -0.66027,0.67754c-0.36466,0 -0.66027,-0.30334 -0.66027,-0.67754z" fill="#ff6b6b" stroke="none" stroke-width="1"/><path d="M328.7485,206.56331c0,-0.37419 0.29561,-0.67754 0.66027,-0.67754c0.36466,0 0.66027,0.30334 0.66027,0.67754c0,0.37419 -0.29561,0.67754 -0.66027,0.67754c-0.36466,0 -0.66027,-0.30334 -0.66027,-0.67754z" fill="#ff6b6b" stroke="none" stroke-width="1"/><path d="M332.72859,212.11331c0,-0.37419 0.29561,-0.67754 0.66027,-0.67754c0.36466,0 0.66027,0.30334 0.66027,0.67754c0,0.37419 -0.29561,0.67754 -0.66027,0.67754c-0.36466,0 -0.66027,-0.30334 -0.66027,-0.67754z" fill="#ff6b6b" stroke="none" stroke-width="1"/><path d="M327.04501,211.78513c0,-0.37419 0.29561,-0.67754 0.66027,-0.67754c0.36466,0 0.66027,0.30334 0.66027,0.67754c0,0.37419 -0.29561,0.67754 -0.66027,0.67754c-0.36466,0 -0.66027,-0.30334 -0.66027,-0.67754z" fill="#ff6b6b" stroke="none" stroke-width="1"/><path d="M343.36681,232.03986c0,-0.37419 0.29561,-0.67754 0.66027,-0.67754c0.36466,0 0.66027,0.30334 0.66027,0.67754c0,0.37419 -0.29561,0.67754 -0.66027,0.67754c-0.36466,0 -0.66027,-0.30334 -0.66027,-0.67754z" fill="#ff6b6b" stroke="none" stroke-width="1"/><path d="M341.28301,211.07848c0,-0.37419 0.29561,-0.67754 0.66027,-0.67754c0.36466,0 0.66027,0.30334 0.66027,0.67754c0,0.37419 -0.29561,0.67754 -0.66027,0.67754c-0.36466,0 -0.66027,-0.30334 -0.66027,-0.67754z" fill="#ff6b6b" stroke="none" stroke-width="1"/><path d="M342.78841,215.42161c0,-0.37419 0.29561,-0.67754 0.66027,-0.67754c0.36466,0 0.66027,0.30334 0.66027,0.67754c0,0.37419 -0.29561,0.67754 -0.66027,0.67754c-0.36466,0 -0.66027,-0.30334 -0.66027,-0.67754z" fill="#ff6b6b" stroke="none" stroke-width="1"/><path d="M337.67003,212.16625c0,-0.37419 0.29561,-0.67754 0.66027,-0.67754c0.36466,0 0.66027,0.30334 0.66027,0.67754c0,0.37419 -0.29561,0.67754 -0.66027,0.67754c-0.36466,0 -0.66027,-0.30334 -0.66027,-0.67754z" fill="#ff6b6b" stroke="none" stroke-width="1"/><path d="M332.00229,234.45889c0,-0.37419 0.29561,-0.67754 0.66027,-0.67754c0.36466,0 0.66027,0.30334 0.66027,0.67754c0,0.37419 -0.29561,0.67754 -0.66027,0.67754c-0.36466,0 -0.66027,-0.30334 -0.66027,-0.67754z" fill="#ff6b6b" stroke="none" stroke-width="1"/><path d="M336.57926,216.37176c0,-0.37419 0.29561,-0.67754 0.66027,-0.67754c0.36466,0 0.66027,0.30334 0.66027,0.67754c0,0.37419 -0.29561,0.67754 -0.66027,0.67754c-0.36466,0 -0.66027,-0.30334 -0.66027,-0.67754z" fill="#ff6b6b" stroke="none" stroke-width="1"/><path d="M328.77227,227.58028c0,-0.37419 0.29561,-0.67754 0.66027,-0.67754c0.36466,0 0.66027,0.30334 0.66027,0.67754c0,0.37419 -0.29561,0.67754 -0.66027,0.67754c-0.36466,0 -0.66027,-0.30334 -0.66027,-0.67754z" fill="#ff6b6b" stroke="none" stroke-width="1"/><path d="M333.29113,220.82605c0,-0.37419 0.29561,-0.67754 0.66027,-0.67754c0.36466,0 0.66027,0.30334 0.66027,0.67754c0,0.37419 -0.29561,0.67754 -0.66027,0.67754c-0.36466,0 -0.66027,-0.30334 -0.66027,-0.67754z" fill="#ff6b6b" stroke="none" stroke-width="1"/><path d="M328.47647,220.64873c0,-0.37419 0.29561,-0.67754 0.66027,-0.67754c0.36466,0 0.66027,0.30334 0.66027,0.67754c0,0.37419 -0.29561,0.67754 -0.66027,0.67754c-0.36466,0 -0.66027,-0.30334 -0.66027,-0.67754z" fill="#ff6b6b" stroke="none" stroke-width="1"/><path d="M349.93779,219.66682c0,-0.37419 0.29561,-0.67754 0.66027,-0.67754c0.36466,0 0.66027,0.30334 0.66027,0.67754c0,0.37419 -0.29561,0.67754 -0.66027,0.67754c-0.36466,0 -0.66027,-0.30334 -0.66027,-0.67754z" fill="#ff6b6b" stroke="none" stroke-width="1"/><path d="M354.11331,212.11067c0,-0.37419 0.29561,-0.67754 0.66027,-0.67754c0.36466,0 0.66027,0.30334 0.66027,0.67754c0,0.37419 -0.29561,0.67754 -0.66027,0.67754c-0.36466,0 -0.66027,-0.30334 -0.66027,-0.67754z" fill="#ff6b6b" stroke="none" stroke-width="1"/><path d="M354.52532,218.78285c0,-0.37419 0.29561,-0.67754 0.66027,-0.67754c0.36466,0 0.66027,0.30334 0.66027,0.67754c0,0.37419 -0.29561,0.67754 -0.66027,0.67754c-0.36466,0 -0.66027,-0.30334 -0.66027,-0.67754z" fill="#ff6b6b" stroke="none" stroke-width="1"/><path d="M356.75966,215.23635c0,-0.37419 0.29561,-0.67754 0.66027,-0.67754c0.36466,0 0.66027,0.30334 0.66027,0.67754c0,0.37419 -0.29561,0.67754 -0.66027,0.67754c-0.36466,0 -0.66027,-0.30334 -0.66027,-0.67754z" fill="#ff6b6b" stroke="none" stroke-width="1"/><path d="M356.88908,208.88706c0,-0.37419 0.29561,-0.67754 0.66027,-0.67754c0.36466,0 0.66027,0.30334 0.66027,0.67754c0,0.37419 -0.29561,0.67754 -0.66027,0.67754c-0.36466,0 -0.66027,-0.30334 -0.66027,-0.67754z" fill="#ff6b6b" stroke="none" stroke-width="1"/><path d="M349.08736,204.69478c0,-0.37419 0.29561,-0.67754 0.66027,-0.67754c0.36466,0 0.66027,0.30334 0.66027,0.67754c0,0.37419 -0.29561,0.67754 -0.66027,0.67754c-0.36466,0 -0.66027,-0.30334 -0.66027,-0.67754z" fill="#ff6b6b" stroke="none" stroke-width="1"/><path d="M323.10454,209.3661c0,-0.37419 0.29561,-0.67754 0.66027,-0.67754c0.36466,0 0.66027,0.30334 0.66027,0.67754c0,0.37419 -0.29561,0.67754 -0.66027,0.67754c-0.36466,0 -0.66027,-0.30334 -0.66027,-0.67754z" fill="#ff6b6b" stroke="none" stroke-width="1"/><path d="M321.96095,218.44143c0,-0.37419 0.29561,-0.67754 0.66027,-0.67754c0.36466,0 0.66027,0.30334 0.66027,0.67754c0,0.37419 -0.29561,0.67754 -0.66027,0.67754c-0.36466,0 -0.66027,-0.30334 -0.66027,-0.67754z" fill="#ff6b6b" stroke="none" stroke-width="1"/><path d="M320.81209,214.26503c0,-0.37419 0.29561,-0.67754 0.66027,-0.67754c0.36466,0 0.66027,0.30334 0.66027,0.67754c0,0.37419 -0.29561,0.67754 -0.66027,0.67754c-0.36466,0 -0.66027,-0.30334 -0.66027,-0.67754z" fill="#ff6b6b" stroke="none" stroke-width="1"/><path d="M340.66764,218.59758c0,-0.37419 0.29561,-0.67754 0.66027,-0.67754c0.36466,0 0.66027,0.30334 0.66027,0.67754c0,0.37419 -0.29561,0.67754 -0.66027,0.67754c-0.36466,0 -0.66027,-0.30334 -0.66027,-0.67754z" fill="#ff6b6b" stroke="none" stroke-width="1"/><path d="M352.16156,224.65045c0,-0.37419 0.29561,-0.67754 0.66027,-0.67754c0.36466,0 0.66027,0.30334 0.66027,0.67754c0,0.37419 -0.29561,0.67754 -0.66027,0.67754c-0.36466,0 -0.66027,-0.30334 -0.66027,-0.67754z" fill="#ff6b6b" stroke="none" stroke-width="1"/><path d="M344.97876,222.29721c-0.33928,-0.13365 -0.50338,-0.52363 -0.36653,-0.87106c0.13685,-0.34742 0.52284,-0.52073 0.86212,-0.38708c0.33928,0.13365 0.50338,0.52363 0.36653,0.87106c-0.13685,0.34742 -0.52284,0.52073 -0.86212,0.38708z" fill="#ff6b6b" stroke="none" stroke-width="1"/><path d="M346.67343,214.26503c0,-0.37419 0.29561,-0.67754 0.66027,-0.67754c0.36466,0 0.66027,0.30334 0.66027,0.67754c0,0.37419 -0.29561,0.67754 -0.66027,0.67754c-0.36466,0 -0.66027,-0.30334 -0.66027,-0.67754z" fill="#ff6b6b" stroke="none" stroke-width="1"/><path d="M338.43329,224.39637c0,-0.37419 0.29561,-0.67754 0.66027,-0.67754c0.36466,0 0.66027,0.30334 0.66027,0.67754c0,0.37419 -0.29561,0.67754 -0.66027,0.67754c-0.36466,0 -0.66027,-0.30334 -0.66027,-0.67754z" fill="#ff6b6b" stroke="none" stroke-width="1"/><path d="M351.5145,215.61746c0,-0.37419 0.29561,-0.67754 0.66027,-0.67754c0.36466,0 0.66027,0.30334 0.66027,0.67754c0,0.37419 -0.29561,0.67754 -0.66027,0.67754c-0.36466,0 -0.66027,-0.30334 -0.66027,-0.67754z" fill="#ff6b6b" stroke="none" stroke-width="1"/><path d="M352.34116,230.38307c0,-0.37419 0.29561,-0.67754 0.66027,-0.67754c0.36466,0 0.66027,0.30334 0.66027,0.67754c0,0.37419 -0.29561,0.67754 -0.66027,0.67754c-0.36466,0 -0.66027,-0.30334 -0.66027,-0.67754z" fill="#ff6b6b" stroke="none" stroke-width="1"/><path d="M346.82397,226.68836c0,-0.37419 0.29561,-0.67754 0.66027,-0.67754c0.36466,0 0.66027,0.30334 0.66027,0.67754c0,0.37419 -0.29561,0.67754 -0.66027,0.67754c-0.36466,0 -0.66027,-0.30334 -0.66027,-0.67754z" fill="#ff6b6b" stroke="none" stroke-width="1"/><path d="M330.30937,216.4141c0,-0.37419 0.29561,-0.67754 0.66027,-0.67754c0.36466,0 0.66027,0.30334 0.66027,0.67754c0,0.37419 -0.29561,0.67754 -0.66027,0.67754c-0.36466,0 -0.66027,-0.30334 -0.66027,-0.67754z" fill="#ff6b6b" stroke="none" stroke-width="1"/><path d="M325.69806,215.47984c0,-0.37419 0.29561,-0.67754 0.66027,-0.67754c0.36466,0 0.66027,0.30334 0.66027,0.67754c0,0.37419 -0.29561,0.67754 -0.66027,0.67754c-0.36466,0 -0.66027,-0.30334 -0.66027,-0.67754z" fill="#ff6b6b" stroke="none" stroke-width="1"/></g><text transform="translate(49.42505,256.4853)" font-size="22" xml:space="preserve" fill="#000000" fill-rule="nonzero" stroke="none" stroke-width="1" stroke-linecap="butt" stroke-linejoin="miter" stroke-miterlimit="10" stroke-dasharray="" stroke-dashoffset="0" font-family="Scratch" font-weight="400" text-anchor="start" style="mix-blend-mode: normal"><tspan x="0" dy="0">Cost-10</tspan></text><text transform="translate(124.42505,268.4853)" font-size="22" xml:space="preserve" fill="#000000" fill-rule="nonzero" stroke="none" stroke-width="1" stroke-linecap="butt" stroke-linejoin="miter" stroke-miterlimit="10" stroke-dasharray="" stroke-dashoffset="0" font-family="Scratch" font-weight="400" text-anchor="start" style="mix-blend-mode: normal"><tspan x="0" dy="0">Cost-50</tspan></text><text transform="translate(215.42505,269.4853)" font-size="22" xml:space="preserve" fill="#000000" fill-rule="nonzero" stroke="none" stroke-width="1" stroke-linecap="butt" stroke-linejoin="miter" stroke-miterlimit="10" stroke-dasharray="" stroke-dashoffset="0" font-family="Scratch" font-weight="400" text-anchor="start" style="mix-blend-mode: normal"><tspan x="0" dy="0">Cost-70</tspan></text><text transform="translate(315.42505,282.4853)" font-size="22" xml:space="preserve" fill="#000000" fill-rule="nonzero" stroke="none" stroke-width="1" stroke-linecap="butt" stroke-linejoin="miter" stroke-miterlimit="10" stroke-dasharray="" stroke-dashoffset="0" font-family="Scratch" font-weight="400" text-anchor="start" style="mix-blend-mode: normal"><tspan x="0" dy="0">Cost-100</tspan></text></g></g></svg>