<svg version="1.1" xmlns="http://www.w3.org/2000/svg" xmlns:xlink="http://www.w3.org/1999/xlink" width="78.70995" height="57.96661" viewBox="0,0,78.70995,57.96661"><g transform="translate(-200.64503,-151.0167)"><g data-paper-data="{&quot;isPaintingLayer&quot;:true}" stroke-linejoin="miter" stroke-miterlimit="10" stroke-dasharray="" stroke-dashoffset="0" style="mix-blend-mode: normal"><path d="M277.2822,190.64323c-4.01727,14.07211 -23.96568,20.71474 -44.55608,14.83665c-20.5905,-5.87812 -34.02559,-22.05099 -30.00832,-36.1231c4.0173,-14.07221 23.96568,-20.71474 44.55618,-14.83662c20.5904,5.87809 34.02552,22.05087 30.00823,36.12308z" fill="#73a572" fill-rule="evenodd" stroke="#364e36" stroke-width="2.72535" stroke-linecap="butt"/><path d="M253.91231,158.06673c1.13253,0.66803 2.24475,1.3665 3.3492,2.0817c1.21833,0.76 2.41441,1.56955 3.51575,2.49737c1.43529,1.11651 2.74897,2.39871 4.07148,3.647c1.35373,1.34791 2.68666,2.72791 3.91292,4.19773c1.13462,1.48259 2.24248,2.97903 3.19866,4.59105c0.72999,1.09119 1.2938,2.28959 1.86044,3.47527c0.68528,1.2285 1.17312,2.54456 1.69415,3.85357c0.37431,1.0329 1.07275,1.9808 1.16485,3.10837c-0.55806,0.19759 -0.403,-0.68088 -0.54079,-1.00366c-0.81295,-1.48332 -1.43486,-3.07461 -2.19696,-4.59128c-0.60543,-1.2915 -1.30515,-2.56204 -2.09861,-3.74107c-1.52715,-2.13388 -2.95312,-4.34719 -4.71084,-6.29494c-0.62495,-0.74138 -1.30454,-1.4068 -2.00754,-2.07073c-2.64856,-2.19538 -5.3597,-4.26964 -8.15042,-6.2754c-1.52214,-0.91271 -3.08971,-1.8054 -4.63833,-2.67318c-1.98197,-1.06046 -3.99879,-2.04727 -6.11612,-2.80763c-1.42504,-0.52115 -2.93004,-0.81835 -4.45269,-0.83424c-2.83214,-0.10429 -5.65866,-0.28124 -8.49682,-0.10675c-0.94608,-0.01981 -1.86918,0.28677 -2.79312,0.45751c-2.2874,0.49335 -4.5865,1.04038 -6.85224,1.63448c-1.24533,0.29686 -2.43779,0.78692 -3.65849,1.17685c-1.69995,0.51757 -3.33487,1.25165 -4.93584,2.03475c-2.04505,0.90998 -3.85003,2.26463 -5.72553,3.48443c-1.4558,1.01177 -2.93771,1.99213 -4.38749,3.01216c0.06661,-0.13466 0.13024,-0.26412 0.20022,-0.39699c1.4366,-1.23362 2.93619,-2.39523 4.4706,-3.49916c0.94619,-0.70948 1.93166,-1.33349 2.97418,-1.88084c2.41389,-1.27153 4.8557,-2.49825 7.38855,-3.49601c2.16598,-0.79788 4.39504,-1.43917 6.56489,-2.22608c1.56209,-0.45798 3.13679,-0.94516 4.73575,-1.24078c1.70062,-0.2106 3.38498,-0.37317 5.09116,-0.48798c3.45998,0.26629 7.02768,0.88212 10.61383,1.89657c2.42932,0.68721 4.74936,1.51915 6.95521,2.4779zM243.86214,158.08744c0.24727,0.0557 0.5012,0.1189 0.74091,0.20959c1.18575,0.42757 2.39442,0.87649 3.55325,1.37381c1.31713,0.58828 2.60355,1.21976 3.90485,1.84183c2.65767,1.27563 5.1341,2.84515 7.57554,4.49649c2.27527,1.50825 4.3968,3.27552 6.38498,5.15223c1.12621,1.00214 2.05467,2.16944 3.09633,3.2578c0.86126,1.10399 1.74634,2.22584 2.51047,3.40395c0.82314,1.24836 1.53854,2.56244 2.29513,3.85344c0.47076,0.87445 1.04009,1.71199 1.44821,2.62134c0.28523,0.70424 0.73464,1.29467 1.02849,1.9923c-0.31449,0.74955 -1.06858,-0.12466 -1.08112,-0.61771c-0.56478,-1.2956 -1.41622,-2.41293 -2.1703,-3.59132c-0.73061,-1.00266 -1.32709,-2.1063 -2.08708,-3.08565c-1.14167,-1.58743 -2.39987,-3.0899 -3.81854,-4.42623c-2.00269,-2.02526 -4.27968,-3.76143 -6.60431,-5.38431c-1.79807,-1.19386 -3.63518,-2.29155 -5.61731,-3.14854c-1.94802,-0.92658 -3.89206,-1.87242 -5.90071,-2.66173c-1.11708,-0.42696 -2.22375,-0.92243 -3.31132,-1.41872c-1.13434,-0.56267 -2.35843,-0.79777 -3.59104,-1.04412c-1.68489,-0.21664 -3.36017,-0.52821 -5.0611,-0.6094c-1.64454,-0.08604 -3.28158,-0.33469 -4.92884,-0.37346c-1.80502,-0.05542 -3.63115,0.20547 -5.41241,0.51056c-2.85592,0.39066 -5.68588,0.87258 -8.49269,1.56738c-0.93721,0.20223 -1.84359,0.52727 -2.74013,0.86955c-2.49549,0.89903 -4.92542,1.99568 -7.33567,3.11392c-0.64728,0.26647 -1.26882,0.64691 -1.8065,1.10527c-0.07365,0.12778 -0.17468,0.20049 -0.30229,0.25476c0.02831,-0.00426 0.05997,-0.00051 0.08682,-0.00373c3.15008,-1.15812 6.33616,-2.26852 9.50143,-3.38033c1.26149,-0.49653 2.57563,-0.79035 3.90037,-1.02336c3.02941,-0.44495 6.06903,-0.68048 9.10889,-1.02441c2.03231,-0.1853 4.06576,0.10414 6.0892,0.21958c2.05391,0.11823 4.1096,0.26817 6.15345,0.49307c0.43122,0.10607 0.8519,0.20646 1.27761,0.33312c2.04707,0.60861 4.00322,1.45815 6.01019,2.18229c1.43041,0.49709 2.83874,1.11959 4.22237,1.73312c2.07091,0.87992 4.06158,1.89563 6.0444,2.95748c1.7002,0.94488 3.3644,1.97868 4.88777,3.19748c1.93133,1.55894 4.00906,2.97698 5.59131,4.92761c1.07992,1.26703 2.14358,2.5384 3.14934,3.86827c1.21464,1.48463 2.25642,3.13574 3.47839,4.6135c0.38519,0.21265 0.25578,0.55 -0.00743,0.62176c0.36222,0.61839 -0.63833,0.74686 -0.86175,0.20985c-0.42195,-0.555 -0.97922,-0.99072 -1.54997,-1.3742c-1.35746,-1.16812 -2.57914,-2.47494 -3.88259,-3.70703c-0.93731,-0.92562 -1.87309,-1.86713 -2.88075,-2.71469c-0.9659,-0.79976 -1.93195,-1.57794 -2.98266,-2.2615c-1.09097,-0.80062 -2.36019,-1.32209 -3.57604,-1.89067c-1.65633,-0.69827 -3.27292,-1.49917 -5.00094,-2.01015c-2.07878,-0.69599 -4.16144,-1.37416 -6.28611,-1.91997c-0.90199,-0.26535 -1.78879,-0.53212 -2.714,-0.71106c-1.20292,-0.23754 -2.40351,-0.56479 -3.61356,-0.76701c-1.69059,-0.32692 -3.4055,-0.57961 -5.10655,-0.84907c-2.90082,-0.44329 -5.74418,-1.0751 -8.65967,-1.42884c-1.1979,-0.11143 -2.41062,-0.3066 -3.61344,-0.37002c-1.97686,-0.15363 -3.94813,-0.07493 -5.92658,0.10991c-1.64192,0.32672 -3.29938,0.74962 -4.95493,1.00853c-1.83646,0.34043 -3.68866,0.51544 -5.5485,0.58552c-0.90647,0.05473 -1.78762,-0.12454 -2.6911,0.00435c-0.45954,0.06583 -1.34383,0.07525 -1.35711,-0.55404c0.1021,-0.31794 0.35897,-0.43184 0.63117,-0.502c0.14731,-0.28581 0.52638,-0.43805 0.86538,-0.52081c-0.32606,0.02944 -0.64682,-0.13108 -0.55566,-0.55424c0.20471,-0.56304 0.91445,-0.65689 1.37939,-0.9141c2.06479,-1.24882 4.17677,-2.41441 6.36418,-3.41713c1.88345,-0.85398 3.79754,-1.64927 5.7409,-2.34581c2.31088,-0.73037 4.67373,-1.28047 7.03739,-1.78063c1.5009,-0.36069 3.02552,-0.51375 4.55061,-0.69757c1.52348,-0.13269 3.03442,-0.21131 4.56212,-0.24068c2.20798,-0.112 4.419,0.06742 6.60697,0.30937c0.75298,0.12107 1.51094,0.15817 2.25273,0.32537zM256.52434,176.21596c0.70057,0.20827 1.37782,0.43625 2.06769,0.66998c1.41784,0.53887 2.85117,1.09066 4.21468,1.75944c1.21886,0.56692 2.21958,1.4484 3.26239,2.28396c1.93104,1.67689 3.72354,3.54109 5.7803,5.06614c1.45703,0.98206 3.03314,1.75809 4.57408,2.59823c-0.00834,0.04496 -0.00266,0.09378 -0.01139,0.13863c-1.09405,-0.24896 -2.18025,-0.51317 -3.25072,-0.8345c-1.37628,-0.57787 -2.88727,-0.92637 -4.11274,-1.81567c-1.22378,-0.83361 -2.2894,-1.8235 -3.39852,-2.80448c-0.8341,-0.66243 -1.59093,-1.49613 -2.60842,-1.87204c-0.73345,-0.34694 -1.55995,-0.43722 -2.35116,-0.58003c-1.3083,-0.18872 -2.58825,-0.54248 -3.91213,-0.62465c-1.43258,-0.22399 -2.8808,-0.25959 -4.33158,-0.26119c-0.75589,-0.04026 -1.49797,-0.0243 -2.25269,0.07159c-0.88906,0.01868 -1.79302,-0.0384 -2.66461,0.21037c-0.87071,0.39212 -1.82799,0.56132 -2.73256,0.8433c-0.65451,0.11529 -1.29668,0.30719 -1.96539,0.26632c-1.43828,-0.26938 -2.88581,-0.49759 -4.31285,-0.82308c-2.18111,-0.54773 -4.37582,-1.02163 -6.52785,-1.67647c-1.96326,-0.65874 -3.87463,-1.43456 -5.82506,-2.12982c-0.6381,-0.24114 -1.36415,-0.43747 -2.04864,-0.23925c-0.66046,0.22697 -1.25811,0.70371 -1.98039,0.7158c-1.10989,-0.0388 -2.16409,-0.44943 -3.20537,-0.79339c-0.6478,-0.18304 -1.23306,-0.48556 -1.83713,-0.77489c-1.59669,-0.88086 -3.14157,-1.88767 -4.77051,-2.71057c-1.95155,-1.02981 -3.97941,-1.81436 -6.02174,-2.63908c-0.36122,-0.22812 -0.9258,-0.2778 -1.32679,-0.46039c-0.24058,-0.10955 -0.40906,-0.25621 -0.50277,-0.53928c0.2456,-0.56728 1.0181,-0.07245 1.45519,0.0147c0.97487,0.18218 1.95853,0.26316 2.93691,0.43385c1.93314,0.30756 3.90562,0.36417 5.85859,0.12606c1.44117,-0.24479 2.87918,-0.49504 4.33898,-0.55901c1.1181,-0.1416 2.23656,0.00663 3.34881,0.09663c1.45307,0.0585 2.9096,0.28094 4.33542,0.54586c3.56076,0.74957 7.05814,1.72061 10.61396,2.49208c2.81698,0.55726 5.67295,1.0797 8.50091,1.58246c2.88873,0.38143 5.71146,0.96133 8.5388,1.64985c0.70651,0.17781 1.42381,0.36408 2.12429,0.57263zM204.97531,169.80024c0.53911,0.29622 1.0569,0.67991 1.61794,0.9397c1.42118,0.65442 2.74963,1.46169 3.99946,2.40739c1.6835,1.20357 3.24577,2.59373 4.90686,3.82664c2.21704,1.53951 4.49194,2.97766 6.8196,4.33943c1.16339,0.6101 2.37704,1.12552 3.60617,1.5872c2.18545,0.89111 4.40624,1.67085 6.57727,2.59781c1.53837,0.74123 3.20202,1.24326 4.8912,1.49709c1.56503,0.30992 3.12801,0.60584 4.70592,0.8492c1.32075,0.09959 2.54475,0.64208 3.80639,0.99169c0.83455,0.23754 1.74669,0.48776 2.5929,0.13801c0.77763,-0.26578 1.3254,-0.92345 1.91225,-1.4723c0.4771,-0.45791 1.09049,-0.76485 1.75365,-0.72327c1.20538,0.08547 2.39716,0.29177 3.60971,0.2839c0.74278,0.12879 1.38392,-0.25152 1.99169,-0.65593c0.70895,-0.39056 1.4435,-0.77128 2.12399,-1.21388c0.97305,-0.69564 2.08594,-1.15756 3.2616,-1.28912c0.41783,0.04582 0.82925,0.23261 1.09622,0.5653c0.95828,0.82589 1.36395,2.14481 2.35916,2.9358c0.50058,0.45328 1.18897,0.47392 1.81446,0.65502c1.78111,0.26954 3.613,0.51653 5.40511,0.70671c0.58708,0.14756 1.43841,-0.27094 1.76901,0.41535c0.00073,0.09328 -0.01297,0.17687 -0.04159,0.24344c0.24669,-0.05813 0.49417,-0.12592 0.74078,-0.1874c-0.00559,0.0267 -0.01707,0.05195 -0.02266,0.07866c-0.25875,0.06429 -0.51786,0.13856 -0.77484,0.20615c-0.20787,0.26545 -0.68259,0.25679 -1.07713,0.26239c-0.60061,0.15477 -1.18953,0.309 -1.79153,0.45735c-0.2944,0.09694 -0.58907,0.19849 -0.88431,0.28854c-1.13134,0.39701 -2.27524,0.75095 -3.42802,1.07191c-0.82021,0.37604 -1.59238,0.86695 -2.39982,1.2777c-1.28113,0.64229 -2.56079,1.28562 -3.9116,1.7574c-0.68617,0.32535 -1.43501,0.48717 -2.16565,0.6634c-1.10537,0.27301 -2.23482,0.32904 -3.36007,0.43898c-1.90456,0.09633 -3.81277,0.24353 -5.7111,0.05741c-1.58397,-0.16552 -3.16144,-0.38817 -4.72475,-0.68439c-1.5043,-0.22712 -2.97193,-0.61867 -4.47162,-0.86799c-1.55163,-0.32547 -3.0981,-0.71187 -4.6455,-1.05892c-1.8042,-0.44475 -3.60374,-0.84337 -5.37504,-1.40704c-2.05978,-0.87084 -4.05342,-1.87876 -6.01791,-2.94998c-2.01188,-1.18176 -4.07268,-2.31683 -6.03697,-3.57924c-1.56356,-1.12191 -3.08903,-2.30064 -4.38907,-3.73694c-2.91719,-2.84719 -5.71402,-5.80292 -8.52148,-8.76217c-0.58446,-0.68343 -1.24776,-1.31867 -1.90537,-1.92847c-0.62007,-0.09023 -0.74894,-1.20387 -0.00026,-1.19103c0.1036,0.04875 0.1942,0.11317 0.29486,0.16848zM275.56607,191.66892c-1.41643,1.38585 -2.84296,2.75356 -4.34203,4.04594c-1.2461,1.1702 -2.62979,2.16628 -4.04361,3.10954c-1.01063,0.7343 -2.08417,1.35981 -3.17079,1.96696c-3.17664,1.72498 -6.62793,2.93049 -10.13251,3.68383c-1.65439,0.26215 -3.29801,0.60025 -4.96633,0.7501c-2.62575,0.19932 -5.2345,0.43287 -7.8655,0.38382c-2.21032,-0.14251 -4.4097,-0.48472 -6.61463,-0.6802c-0.10038,-0.01404 -0.19828,-0.04143 -0.29866,-0.0562c-0.42692,-0.11006 -0.84982,-0.21222 -1.27758,-0.33322c-2.72773,-0.77162 -5.32089,-1.73782 -7.76413,-2.84848c-2.04843,-1.28548 -4.11654,-2.56749 -6.00688,-4.08114c-1.40707,-1.26587 -2.71347,-2.64106 -3.98466,-4.04778c-1.16364,-1.23726 -2.19873,-2.57792 -3.21363,-3.94313c-1.29061,-1.65952 -2.25219,-3.55115 -3.28573,-5.38129c-1.02844,-1.75206 -1.91421,-3.58117 -2.68856,-5.46767c-0.97765,-2.18227 -1.71128,-4.46294 -2.37146,-6.76724c-0.03332,-0.17686 -0.10677,-0.35176 -0.1626,-0.52812c-0.00211,-0.00725 0.00976,-0.01929 0.00754,-0.02616c0.05419,-0.28646 0.12,-0.56881 0.18882,-0.85394l1.43692,2.75999c2.01747,3.97644 4.34662,7.8109 6.77952,11.53037c1.49797,1.91639 3.17175,3.66922 4.8884,5.38103c1.11078,1.05352 2.14149,2.181 3.24369,3.2428c0.82146,0.70118 1.76669,1.27255 2.66887,1.86075c1.77169,1.05412 3.51534,2.12651 5.36031,3.04755c1.32463,0.63002 2.65517,1.3473 4.08998,1.69578c1.84371,0.47444 3.71782,0.62335 5.59039,0.95755c1.80012,0.31901 3.63378,0.51908 5.46182,0.6093c3.11971,0.3097 6.27165,-0.02685 9.39633,-0.23416c1.76242,-0.06666 3.48552,-0.49085 5.20446,-0.88127c1.83193,-0.40557 3.60688,-1.01081 5.34033,-1.75029c1.16575,-0.4374 2.25237,-1.0588 3.34084,-1.66365c1.53239,-0.99312 3.05926,-2.01224 4.58797,-3.01223c1.64266,-1.09535 3.27212,-2.21451 4.90525,-3.31942c-0.09268,0.28785 -0.1954,0.56932 -0.30216,0.85027z" fill="#4a6a49" fill-rule="nonzero" stroke="none" stroke-width="1" stroke-linecap="butt"/><path d="M204.78262,165.62564c1.56525,0.78262 0.78262,2.34787 0.78262,2.34787l-0.27375,0.53398c-0.3998,0.94018 -0.56083,1.99527 -0.5415,3.01673c0,0 0,1.75 -1.75,1.75c-1.75,0 -1.75,-1.75 -1.75,-1.75c0.01982,-1.46274 0.26877,-2.95044 0.79183,-4.3166l0.39292,-0.79936c0,0 0.78262,-1.56525 2.34787,-0.78262z" fill="#364e36" fill-rule="nonzero" stroke="none" stroke-width="0.5" stroke-linecap="butt"/><path d="M276,183.77422c1.75,0 1.75,1.75 1.75,1.75l-0.01759,1.91415c-0.19585,1.3519 -0.31895,2.71984 -0.31574,4.08585c0,0 0,1.75 -1.75,1.75c-1.75,0 -1.75,-1.75 -1.75,-1.75c0.00317,-1.53141 0.13704,-3.06442 0.35092,-4.58082l-0.01759,-1.41918c0,0 0,-1.75 1.75,-1.75z" fill="#364e36" fill-rule="nonzero" stroke="none" stroke-width="0.5" stroke-linecap="butt"/><path d="M219.08333,158.85756c0,-0.69036 0.55964,-1.25 1.25,-1.25c0.69036,0 1.25,0.55964 1.25,1.25c0,0.69036 -0.55964,1.25 -1.25,1.25c-0.69036,0 -1.25,-0.55964 -1.25,-1.25z" fill="#ffffff" fill-rule="nonzero" stroke="none" stroke-width="0.5" stroke-linecap="butt"/><path d="M225,158.85756c0,0 15.07687,-1.70126 23.42788,2.11115c8.35101,3.81242 16.90546,13.22218 16.90546,13.22218" fill="none" fill-rule="nonzero" stroke="#ffffff" stroke-width="2.5" stroke-linecap="round"/></g></g></svg>